<?xml version="1.0" encoding="UTF-8" standalone="no"?>
<!DOCTYPE svg PUBLIC "-//W3C//DTD SVG 1.1//EN"
 "http://www.w3.org/Graphics/SVG/1.1/DTD/svg11.dtd">
<!-- Generated by graphviz version 14.1.1 (0)
 -->
<!-- Title: dependencies Pages: 1 -->
<svg width="1193pt" height="741pt"
 viewBox="0.00 0.00 1193.00 741.00" xmlns="http://www.w3.org/2000/svg" xmlns:xlink="http://www.w3.org/1999/xlink">
<g id="graph0" class="graph" transform="scale(1 1) rotate(0) translate(4 737)">
<title>dependencies</title>
<polygon fill="#f8f9fa" stroke="none" points="-4,4 -4,-737 1189,-737 1189,4 -4,4"/>
<g id="clust1" class="cluster">
<title>cluster_djls_app</title>
<path fill="#e4cdcd" stroke="#971a1a" stroke-width="2" d="M505,-650C505,-650 551,-650 551,-650 557,-650 563,-656 563,-662 563,-662 563,-713 563,-713 563,-719 557,-725 551,-725 551,-725 505,-725 505,-725 499,-725 493,-719 493,-713 493,-713 493,-662 493,-662 493,-656 499,-650 505,-650"/>
<text xml:space="preserve" text-anchor="middle" x="528" y="-707.7" font-family="Helvetica Bold" font-size="14.00">djls&#45;app</text>
</g>
<g id="clust2" class="cluster">
<title>cluster_djls_bench</title>
<path fill="#e4d7cd" stroke="#97501a" stroke-width="2" d="M264,-556C264,-556 328,-556 328,-556 334,-556 340,-562 340,-568 340,-568 340,-619 340,-619 340,-625 334,-631 328,-631 328,-631 264,-631 264,-631 258,-631 252,-625 252,-619 252,-619 252,-568 252,-568 252,-562 258,-556 264,-556"/>
<text xml:space="preserve" text-anchor="middle" x="296" y="-613.7" font-family="Helvetica Bold" font-size="14.00">djls&#45;bench</text>
</g>
<g id="clust3" class="cluster">
<title>cluster_djls_conf</title>
<path fill="#e4e0cd" stroke="#97851a" stroke-width="2" d="M740,-180C740,-180 794,-180 794,-180 800,-180 806,-186 806,-192 806,-192 806,-243 806,-243 806,-249 800,-255 794,-255 794,-255 740,-255 740,-255 734,-255 728,-249 728,-243 728,-243 728,-192 728,-192 728,-186 734,-180 740,-180"/>
<text xml:space="preserve" text-anchor="middle" x="767" y="-237.7" font-family="Helvetica Bold" font-size="14.00">djls&#45;conf</text>
</g>
<g id="clust4" class="cluster">
<title>cluster_djls_corpus</title>
<path fill="#dde4cd" stroke="#74971a" stroke-width="2" d="M136,-462C136,-462 204,-462 204,-462 210,-462 216,-468 216,-474 216,-474 216,-525 216,-525 216,-531 210,-537 204,-537 204,-537 136,-537 136,-537 130,-537 124,-531 124,-525 124,-525 124,-474 124,-474 124,-468 130,-462 136,-462"/>
<text xml:space="preserve" text-anchor="middle" x="170" y="-519.7" font-family="Helvetica Bold" font-size="14.00">djls&#45;corpus</text>
</g>
<g id="clust5" class="cluster">
<title>cluster_djls_db</title>
<path fill="#d3e4cd" stroke="#3e971a" stroke-width="2" d="M738,-462C738,-462 784,-462 784,-462 790,-462 796,-468 796,-474 796,-474 796,-525 796,-525 796,-531 790,-537 784,-537 784,-537 738,-537 738,-537 732,-537 726,-531 726,-525 726,-525 726,-474 726,-474 726,-468 732,-462 738,-462"/>
<text xml:space="preserve" text-anchor="middle" x="761" y="-519.7" font-family="Helvetica Bold" font-size="14.00">djls&#45;db</text>
</g>
<g id="clust6" class="cluster">
<title>cluster_djls_dev</title>
<path fill="#cde4d0" stroke="#1a972c" stroke-width="2" d="M20,-462C20,-462 70,-462 70,-462 76,-462 82,-468 82,-474 82,-474 82,-525 82,-525 82,-531 76,-537 70,-537 70,-537 20,-537 20,-537 14,-537 8,-531 8,-525 8,-525 8,-474 8,-474 8,-468 14,-462 20,-462"/>
<text xml:space="preserve" text-anchor="middle" x="45" y="-519.7" font-family="Helvetica Bold" font-size="14.00">djls&#45;dev</text>
</g>
<g id="clust7" class="cluster">
<title>cluster_djls_ide</title>
<path fill="#cde4da" stroke="#1a9762" stroke-width="2" d="M388,-462C388,-462 436,-462 436,-462 442,-462 448,-468 448,-474 448,-474 448,-525 448,-525 448,-531 442,-537 436,-537 436,-537 388,-537 388,-537 382,-537 376,-531 376,-525 376,-525 376,-474 376,-474 376,-468 382,-462 388,-462"/>
<text xml:space="preserve" text-anchor="middle" x="412" y="-519.7" font-family="Helvetica Bold" font-size="14.00">djls&#45;ide</text>
</g>
<g id="clust8" class="cluster">
<title>cluster_djls_project</title>
<path fill="#cde4e4" stroke="#1a9797" stroke-width="2" d="M727,-274C727,-274 795,-274 795,-274 801,-274 807,-280 807,-286 807,-286 807,-337 807,-337 807,-343 801,-349 795,-349 795,-349 727,-349 727,-349 721,-349 715,-343 715,-337 715,-337 715,-286 715,-286 715,-280 721,-274 727,-274"/>
<text xml:space="preserve" text-anchor="middle" x="761" y="-331.7" font-family="Helvetica Bold" font-size="14.00">djls&#45;project</text>
</g>
<g id="clust9" class="cluster">
<title>cluster_djls_python</title>
<path fill="#cddae4" stroke="#1a6297" stroke-width="2" d="M606,-180C606,-180 674,-180 674,-180 680,-180 686,-186 686,-192 686,-192 686,-243 686,-243 686,-249 680,-255 674,-255 674,-255 606,-255 606,-255 600,-255 594,-249 594,-243 594,-243 594,-192 594,-192 594,-186 600,-180 606,-180"/>
<text xml:space="preserve" text-anchor="middle" x="640" y="-237.7" font-family="Helvetica Bold" font-size="14.00">djls&#45;python</text>
</g>
<g id="clust10" class="cluster">
<title>cluster_djls_semantic</title>
<path fill="#cdd0e4" stroke="#1a2c97" stroke-width="2" d="M721,-368C721,-368 801,-368 801,-368 807,-368 813,-374 813,-380 813,-380 813,-431 813,-431 813,-437 807,-443 801,-443 801,-443 721,-443 721,-443 715,-443 709,-437 709,-431 709,-431 709,-380 709,-380 709,-374 715,-368 721,-368"/>
<text xml:space="preserve" text-anchor="middle" x="761" y="-425.7" font-family="Helvetica Bold" font-size="14.00">djls&#45;semantic</text>
</g>
<g id="clust11" class="cluster">
<title>cluster_djls_server</title>
<path fill="#d3cde4" stroke="#3e1a97" stroke-width="2" d="M495,-556C495,-556 561,-556 561,-556 567,-556 573,-562 573,-568 573,-568 573,-619 573,-619 573,-625 567,-631 561,-631 561,-631 495,-631 495,-631 489,-631 483,-625 483,-619 483,-619 483,-568 483,-568 483,-562 489,-556 495,-556"/>
<text xml:space="preserve" text-anchor="middle" x="528" y="-613.7" font-family="Helvetica Bold" font-size="14.00">djls&#45;server</text>
</g>
<g id="clust12" class="cluster">
<title>cluster_djls_source</title>
<path fill="#ddcde4" stroke="#741a97" stroke-width="2" d="M728,-86C728,-86 796,-86 796,-86 802,-86 808,-92 808,-98 808,-98 808,-149 808,-149 808,-155 802,-161 796,-161 796,-161 728,-161 728,-161 722,-161 716,-155 716,-149 716,-149 716,-98 716,-98 716,-92 722,-86 728,-86"/>
<text xml:space="preserve" text-anchor="middle" x="762" y="-143.7" font-family="Helvetica Bold" font-size="14.00">djls&#45;source</text>
</g>
<g id="clust13" class="cluster">
<title>cluster_djls_templates</title>
<path fill="#e4cde0" stroke="#971a85" stroke-width="2" d="M861,-274C861,-274 947,-274 947,-274 953,-274 959,-280 959,-286 959,-286 959,-337 959,-337 959,-343 953,-349 947,-349 947,-349 861,-349 861,-349 855,-349 849,-343 849,-337 849,-337 849,-286 849,-286 849,-280 855,-274 861,-274"/>
<text xml:space="preserve" text-anchor="middle" x="904" y="-331.7" font-family="Helvetica Bold" font-size="14.00">djls&#45;templates</text>
</g>
<g id="clust14" class="cluster">
<title>cluster_djls_workspace</title>
<path fill="#e4cdd7" stroke="#971a50" stroke-width="2" d="M858,-180C858,-180 949,-180 949,-180 955,-180 961,-186 961,-192 961,-192 961,-243 961,-243 961,-249 955,-255 949,-255 949,-255 858,-255 858,-255 852,-255 846,-249 846,-243 846,-243 846,-192 846,-192 846,-186 852,-180 858,-180"/>
<text xml:space="preserve" text-anchor="middle" x="903.5" y="-237.7" font-family="Helvetica Bold" font-size="14.00">djls&#45;workspace</text>
</g>
<!-- djls -->
<g id="node1" class="node">
<title>djls</title>
<polygon fill="#e4cdcd" stroke="#971a1a" stroke-width="2" points="555,-694 501,-694 501,-658 555,-658 555,-694"/>
<text xml:space="preserve" text-anchor="middle" x="528" y="-672.3" font-family="Helvetica,sans-Serif" font-size="11.00">djls</text>
</g>
<!-- djls_server -->
<g id="node11" class="node">
<title>djls_server</title>
<polygon fill="#d3cde4" stroke="#3e1a97" stroke-width="2" points="564.88,-600 491.12,-600 491.12,-564 564.88,-564 564.88,-600"/>
<text xml:space="preserve" text-anchor="middle" x="528" y="-578.3" font-family="Helvetica,sans-Serif" font-size="11.00">djls&#45;server</text>
</g>
<!-- djls&#45;&gt;djls_server -->
<g id="edge2" class="edge">
<title>djls&#45;&gt;djls_server</title>
<path fill="none" stroke="#971a1a" stroke-width="1.5" stroke-dasharray="5,2" d="M528,-657.43C528,-657.43 528,-610.12 528,-610.12"/>
<polygon fill="#971a1a" stroke="#971a1a" stroke-width="1.5" points="530.45,-610.12 528,-603.12 525.55,-610.12 530.45,-610.12"/>
</g>
<!-- ext_clap -->
<g id="node15" class="node">
<title>ext_clap</title>
<polygon fill="#d0d0d0" stroke="#606060" stroke-width="2" points="72,-412 18,-412 18,-376 72,-376 72,-412"/>
<text xml:space="preserve" text-anchor="middle" x="45" y="-390.3" font-family="Helvetica,sans-Serif" font-size="11.00">clap</text>
</g>
<!-- djls&#45;&gt;ext_clap -->
<g id="edge1" class="edge">
<title>djls&#45;&gt;ext_clap</title>
<path fill="none" stroke="#444444" d="M500.33,-676C452.19,-676 358.12,-676 358.12,-676 358.12,-676 358.12,-388 358.12,-388 358.12,-388 81.3,-388 81.3,-388"/>
<polygon fill="#444444" stroke="#444444" points="81.3,-385.55 74.3,-388 81.3,-390.45 81.3,-385.55"/>
</g>
<!-- djls_bench -->
<g id="node2" class="node">
<title>djls_bench</title>
<polygon fill="#e4d7cd" stroke="#97501a" stroke-width="2" points="331.75,-600 260.25,-600 260.25,-564 331.75,-564 331.75,-600"/>
<text xml:space="preserve" text-anchor="middle" x="296" y="-578.3" font-family="Helvetica,sans-Serif" font-size="11.00">djls&#45;bench</text>
</g>
<!-- djls_corpus -->
<g id="node4" class="node">
<title>djls_corpus</title>
<polygon fill="#dde4cd" stroke="#74971a" stroke-width="2" points="207.62,-506 132.38,-506 132.38,-470 207.62,-470 207.62,-506"/>
<text xml:space="preserve" text-anchor="middle" x="170" y="-484.3" font-family="Helvetica,sans-Serif" font-size="11.00">djls&#45;corpus</text>
</g>
<!-- djls_bench&#45;&gt;djls_corpus -->
<g id="edge3" class="edge">
<title>djls_bench&#45;&gt;djls_corpus</title>
<path fill="none" stroke="#97501a" stroke-width="1.5" stroke-dasharray="5,2" d="M284.08,-563.43C284.08,-536.03 284.08,-488 284.08,-488 284.08,-488 217.89,-488 217.89,-488"/>
<polygon fill="#97501a" stroke="#97501a" stroke-width="1.5" points="217.89,-485.55 210.89,-488 217.89,-490.45 217.89,-485.55"/>
</g>
<!-- djls_ide -->
<g id="node7" class="node">
<title>djls_ide</title>
<polygon fill="#cde4da" stroke="#1a9762" stroke-width="2" points="439.5,-506 384.5,-506 384.5,-470 439.5,-470 439.5,-506"/>
<text xml:space="preserve" text-anchor="middle" x="412" y="-484.3" font-family="Helvetica,sans-Serif" font-size="11.00">djls&#45;ide</text>
</g>
<!-- djls_bench&#45;&gt;djls_ide -->
<g id="edge4" class="edge">
<title>djls_bench&#45;&gt;djls_ide</title>
<path fill="none" stroke="#97501a" stroke-width="1.5" stroke-dasharray="5,2" d="M332.7,-582C366.69,-582 412,-582 412,-582 412,-582 412,-515.84 412,-515.84"/>
<polygon fill="#97501a" stroke="#97501a" stroke-width="1.5" points="414.45,-515.84 412,-508.84 409.55,-515.84 414.45,-515.84"/>
</g>
<!-- ext_salsa -->
<g id="node16" class="node">
<title>ext_salsa</title>
<polygon fill="#d0d0d0" stroke="#606060" stroke-width="2" points="663,-36 609,-36 609,0 663,0 663,-36"/>
<text xml:space="preserve" text-anchor="middle" x="636" y="-14.3" font-family="Helvetica,sans-Serif" font-size="11.00">salsa</text>
</g>
<!-- djls_bench&#45;&gt;ext_salsa -->
<g id="edge5" class="edge">
<title>djls_bench&#45;&gt;ext_salsa</title>
<path fill="none" stroke="#444444" d="M307.92,-563.04C307.92,-464.13 307.92,-12 307.92,-12 307.92,-12 599.51,-12 599.51,-12"/>
<polygon fill="#444444" stroke="#444444" points="599.51,-14.45 606.51,-12 599.51,-9.55 599.51,-14.45"/>
</g>
<!-- djls_conf -->
<g id="node3" class="node">
<title>djls_conf</title>
<polygon fill="#e4e0cd" stroke="#97851a" stroke-width="2" points="797.88,-224 736.12,-224 736.12,-188 797.88,-188 797.88,-224"/>
<text xml:space="preserve" text-anchor="middle" x="767" y="-202.3" font-family="Helvetica,sans-Serif" font-size="11.00">djls&#45;conf</text>
</g>
<!-- djls_corpus&#45;&gt;ext_clap -->
<g id="edge6" class="edge">
<title>djls_corpus&#45;&gt;ext_clap</title>
<path fill="none" stroke="#444444" d="M170,-469.34C170,-443.51 170,-400 170,-400 170,-400 81.26,-400 81.26,-400"/>
<polygon fill="#444444" stroke="#444444" points="81.26,-397.55 74.26,-400 81.26,-402.45 81.26,-397.55"/>
</g>
<!-- djls_db -->
<g id="node5" class="node">
<title>djls_db</title>
<polygon fill="#d3e4cd" stroke="#3e971a" stroke-width="2" points="788,-506 734,-506 734,-470 788,-470 788,-506"/>
<text xml:space="preserve" text-anchor="middle" x="761" y="-484.3" font-family="Helvetica,sans-Serif" font-size="11.00">djls&#45;db</text>
</g>
<!-- djls_semantic -->
<g id="node10" class="node">
<title>djls_semantic</title>
<polygon fill="#cdd0e4" stroke="#1a2c97" stroke-width="2" points="805.38,-412 716.62,-412 716.62,-376 805.38,-376 805.38,-412"/>
<text xml:space="preserve" text-anchor="middle" x="761" y="-390.3" font-family="Helvetica,sans-Serif" font-size="11.00">djls&#45;semantic</text>
</g>
<!-- djls_db&#45;&gt;djls_semantic -->
<g id="edge7" class="edge">
<title>djls_db&#45;&gt;djls_semantic</title>
<path fill="none" stroke="#3e971a" stroke-width="1.5" stroke-dasharray="5,2" d="M761,-469.43C761,-469.43 761,-422.12 761,-422.12"/>
<polygon fill="#3e971a" stroke="#3e971a" stroke-width="1.5" points="763.45,-422.12 761,-415.12 758.55,-422.12 763.45,-422.12"/>
</g>
<!-- djls_db&#45;&gt;ext_salsa -->
<g id="edge8" class="edge">
<title>djls_db&#45;&gt;ext_salsa</title>
<path fill="none" stroke="#444444" d="M733.38,-492C713.85,-492 691.12,-492 691.12,-492 691.12,-492 691.12,-29 691.12,-29 691.12,-29 672.4,-29 672.4,-29"/>
<polygon fill="#444444" stroke="#444444" points="672.4,-26.55 665.4,-29 672.4,-31.45 672.4,-26.55"/>
</g>
<!-- djls_dev -->
<g id="node6" class="node">
<title>djls_dev</title>
<polygon fill="#cde4d0" stroke="#1a972c" stroke-width="2" points="74.38,-506 15.62,-506 15.62,-470 74.38,-470 74.38,-506"/>
<text xml:space="preserve" text-anchor="middle" x="45" y="-484.3" font-family="Helvetica,sans-Serif" font-size="11.00">djls&#45;dev</text>
</g>
<!-- djls_dev&#45;&gt;ext_clap -->
<g id="edge9" class="edge">
<title>djls_dev&#45;&gt;ext_clap</title>
<path fill="none" stroke="#444444" d="M45,-469.43C45,-469.43 45,-421.37 45,-421.37"/>
<polygon fill="#444444" stroke="#444444" points="47.45,-421.37 45,-414.37 42.55,-421.37 47.45,-421.37"/>
</g>
<!-- djls_ide&#45;&gt;djls_semantic -->
<g id="edge10" class="edge">
<title>djls_ide&#45;&gt;djls_semantic</title>
<path fill="none" stroke="#1a9762" stroke-width="1.5" stroke-dasharray="5,2" d="M440.36,-477C517.48,-477 725.31,-477 725.31,-477 725.31,-477 725.31,-422.1 725.31,-422.1"/>
<polygon fill="#1a9762" stroke="#1a9762" stroke-width="1.5" points="727.76,-422.1 725.31,-415.1 722.86,-422.1 727.76,-422.1"/>
</g>
<!-- djls_ide&#45;&gt;ext_salsa -->
<g id="edge11" class="edge">
<title>djls_ide&#45;&gt;ext_salsa</title>
<path fill="none" stroke="#444444" d="M402.94,-469.24C402.94,-382.43 402.94,-24 402.94,-24 402.94,-24 599.84,-24 599.84,-24"/>
<polygon fill="#444444" stroke="#444444" points="599.84,-26.45 606.84,-24 599.84,-21.55 599.84,-26.45"/>
</g>
<!-- ext_tower_lsp_server -->
<g id="node18" class="node">
<title>ext_tower_lsp_server</title>
<polygon fill="#d0d0d0" stroke="#606060" stroke-width="2" points="526.62,-412 421.38,-412 421.38,-376 526.62,-376 526.62,-412"/>
<text xml:space="preserve" text-anchor="middle" x="474" y="-390.3" font-family="Helvetica,sans-Serif" font-size="11.00">tower&#45;lsp&#45;server</text>
</g>
<!-- djls_ide&#45;&gt;ext_tower_lsp_server -->
<g id="edge12" class="edge">
<title>djls_ide&#45;&gt;ext_tower_lsp_server</title>
<path fill="none" stroke="#444444" d="M430.44,-469.43C430.44,-469.43 430.44,-421.37 430.44,-421.37"/>
<polygon fill="#444444" stroke="#444444" points="432.89,-421.37 430.44,-414.37 427.99,-421.37 432.89,-421.37"/>
</g>
<!-- djls_project -->
<g id="node8" class="node">
<title>djls_project</title>
<polygon fill="#cde4e4" stroke="#1a9797" stroke-width="2" points="799.38,-318 722.62,-318 722.62,-282 799.38,-282 799.38,-318"/>
<text xml:space="preserve" text-anchor="middle" x="761" y="-296.3" font-family="Helvetica,sans-Serif" font-size="11.00">djls&#45;project</text>
</g>
<!-- djls_project&#45;&gt;djls_conf -->
<g id="edge13" class="edge">
<title>djls_project&#45;&gt;djls_conf</title>
<path fill="none" stroke="#1a9797" stroke-width="1.5" stroke-dasharray="5,2" d="M767,-281.43C767,-281.43 767,-234.12 767,-234.12"/>
<polygon fill="#1a9797" stroke="#1a9797" stroke-width="1.5" points="769.45,-234.12 767,-227.12 764.55,-234.12 769.45,-234.12"/>
</g>
<!-- djls_python -->
<g id="node9" class="node">
<title>djls_python</title>
<polygon fill="#cddae4" stroke="#1a6297" stroke-width="2" points="678.38,-224 601.62,-224 601.62,-188 678.38,-188 678.38,-224"/>
<text xml:space="preserve" text-anchor="middle" x="640" y="-202.3" font-family="Helvetica,sans-Serif" font-size="11.00">djls&#45;python</text>
</g>
<!-- djls_project&#45;&gt;djls_python -->
<g id="edge14" class="edge">
<title>djls_project&#45;&gt;djls_python</title>
<path fill="none" stroke="#1a9797" stroke-width="1.5" stroke-dasharray="5,2" d="M730.25,-281.34C730.25,-255.51 730.25,-212 730.25,-212 730.25,-212 688.59,-212 688.59,-212"/>
<polygon fill="#1a9797" stroke="#1a9797" stroke-width="1.5" points="688.59,-209.55 681.59,-212 688.59,-214.45 688.59,-209.55"/>
</g>
<!-- djls_workspace -->
<g id="node14" class="node">
<title>djls_workspace</title>
<polygon fill="#e4cdd7" stroke="#971a50" stroke-width="2" points="952.5,-224 855.5,-224 855.5,-188 952.5,-188 952.5,-224"/>
<text xml:space="preserve" text-anchor="middle" x="904" y="-202.3" font-family="Helvetica,sans-Serif" font-size="11.00">djls&#45;workspace</text>
</g>
<!-- djls_project&#45;&gt;djls_workspace -->
<g id="edge15" class="edge">
<title>djls_project&#45;&gt;djls_workspace</title>
<path fill="none" stroke="#1a9797" stroke-width="1.5" stroke-dasharray="5,2" d="M800.21,-309C810.07,-309 817.91,-309 817.91,-309 817.91,-309 817.91,-200 817.91,-200 817.91,-200 845.65,-200 845.65,-200"/>
<polygon fill="#1a9797" stroke="#1a9797" stroke-width="1.5" points="845.65,-202.45 852.65,-200 845.65,-197.55 845.65,-202.45"/>
</g>
<!-- djls_project&#45;&gt;ext_salsa -->
<g id="edge16" class="edge">
<title>djls_project&#45;&gt;ext_salsa</title>
<path fill="none" stroke="#444444" d="M733.19,-281.28C733.19,-242.92 733.19,-159 733.19,-159 733.19,-159 636,-159 636,-159 636,-159 636,-45.24 636,-45.24"/>
<polygon fill="#444444" stroke="#444444" points="638.45,-45.24 636,-38.24 633.55,-45.24 638.45,-45.24"/>
</g>
<!-- djls_source -->
<g id="node12" class="node">
<title>djls_source</title>
<polygon fill="#ddcde4" stroke="#741a97" stroke-width="2" points="799.62,-130 724.38,-130 724.38,-94 799.62,-94 799.62,-130"/>
<text xml:space="preserve" text-anchor="middle" x="762" y="-108.3" font-family="Helvetica,sans-Serif" font-size="11.00">djls&#45;source</text>
</g>
<!-- djls_python&#45;&gt;djls_source -->
<g id="edge17" class="edge">
<title>djls_python&#45;&gt;djls_source</title>
<path fill="none" stroke="#1a6297" stroke-width="1.5" stroke-dasharray="5,2" d="M679.31,-200C702.49,-200 727.31,-200 727.31,-200 727.31,-200 727.31,-139.93 727.31,-139.93"/>
<polygon fill="#1a6297" stroke="#1a6297" stroke-width="1.5" points="729.76,-139.93 727.31,-132.93 724.86,-139.93 729.76,-139.93"/>
</g>
<!-- djls_python&#45;&gt;ext_salsa -->
<g id="edge18" class="edge">
<title>djls_python&#45;&gt;ext_salsa</title>
<path fill="none" stroke="#444444" d="M622.5,-187.29C622.5,-187.29 622.5,-45.43 622.5,-45.43"/>
<polygon fill="#444444" stroke="#444444" points="624.95,-45.43 622.5,-38.43 620.05,-45.43 624.95,-45.43"/>
</g>
<!-- djls_semantic&#45;&gt;djls_project -->
<g id="edge19" class="edge">
<title>djls_semantic&#45;&gt;djls_project</title>
<path fill="none" stroke="#1a2c97" stroke-width="1.5" stroke-dasharray="5,2" d="M761,-375.43C761,-375.43 761,-328.12 761,-328.12"/>
<polygon fill="#1a2c97" stroke="#1a2c97" stroke-width="1.5" points="763.45,-328.12 761,-321.12 758.55,-328.12 763.45,-328.12"/>
</g>
<!-- djls_templates -->
<g id="node13" class="node">
<title>djls_templates</title>
<polygon fill="#e4cde0" stroke="#971a85" stroke-width="2" points="951,-318 857,-318 857,-282 951,-282 951,-318"/>
<text xml:space="preserve" text-anchor="middle" x="904" y="-296.3" font-family="Helvetica,sans-Serif" font-size="11.00">djls&#45;templates</text>
</g>
<!-- djls_semantic&#45;&gt;djls_templates -->
<g id="edge20" class="edge">
<title>djls_semantic&#45;&gt;djls_templates</title>
<path fill="none" stroke="#1a2c97" stroke-width="1.5" stroke-dasharray="5,2" d="M806.25,-394C848.14,-394 904,-394 904,-394 904,-394 904,-327.84 904,-327.84"/>
<polygon fill="#1a2c97" stroke="#1a2c97" stroke-width="1.5" points="906.45,-327.84 904,-320.84 901.55,-327.84 906.45,-327.84"/>
</g>
<!-- djls_semantic&#45;&gt;ext_salsa -->
<g id="edge21" class="edge">
<title>djls_semantic&#45;&gt;ext_salsa</title>
<path fill="none" stroke="#444444" d="M715.71,-394C708.78,-394 703.88,-394 703.88,-394 703.88,-394 703.88,-22 703.88,-22 703.88,-22 672.51,-22 672.51,-22"/>
<polygon fill="#444444" stroke="#444444" points="672.51,-19.55 665.51,-22 672.51,-24.45 672.51,-19.55"/>
</g>
<!-- djls_server&#45;&gt;djls_db -->
<g id="edge22" class="edge">
<title>djls_server&#45;&gt;djls_db</title>
<path fill="none" stroke="#3e1a97" stroke-width="1.5" stroke-dasharray="5,2" d="M545.75,-563.17C545.75,-538.68 545.75,-499 545.75,-499 545.75,-499 724.03,-499 724.03,-499"/>
<polygon fill="#3e1a97" stroke="#3e1a97" stroke-width="1.5" points="724.03,-501.45 731.03,-499 724.03,-496.55 724.03,-501.45"/>
</g>
<!-- djls_server&#45;&gt;djls_ide -->
<g id="edge23" class="edge">
<title>djls_server&#45;&gt;djls_ide</title>
<path fill="none" stroke="#3e1a97" stroke-width="1.5" stroke-dasharray="5,2" d="M502.96,-563.1C502.96,-534.63 502.96,-484 502.96,-484 502.96,-484 449.55,-484 449.55,-484"/>
<polygon fill="#3e1a97" stroke="#3e1a97" stroke-width="1.5" points="449.55,-481.55 442.55,-484 449.55,-486.45 449.55,-481.55"/>
</g>
<!-- ext_tokio -->
<g id="node17" class="node">
<title>ext_tokio</title>
<polygon fill="#d0d0d0" stroke="#606060" stroke-width="2" points="1185,-130 1131,-130 1131,-94 1185,-94 1185,-130"/>
<text xml:space="preserve" text-anchor="middle" x="1158" y="-108.3" font-family="Helvetica,sans-Serif" font-size="11.00">tokio</text>
</g>
<!-- djls_server&#45;&gt;ext_tokio -->
<g id="edge24" class="edge">
<title>djls_server&#45;&gt;ext_tokio</title>
<path fill="none" stroke="#444444" d="M565.59,-582C702.56,-582 1167,-582 1167,-582 1167,-582 1167,-139.23 1167,-139.23"/>
<polygon fill="#444444" stroke="#444444" points="1169.45,-139.23 1167,-132.23 1164.55,-139.23 1169.45,-139.23"/>
</g>
<!-- djls_server&#45;&gt;ext_tower_lsp_server -->
<g id="edge25" class="edge">
<title>djls_server&#45;&gt;ext_tower_lsp_server</title>
<path fill="none" stroke="#444444" d="M514.79,-563.29C514.79,-563.29 514.79,-421.43 514.79,-421.43"/>
<polygon fill="#444444" stroke="#444444" points="517.24,-421.43 514.79,-414.43 512.34,-421.43 517.24,-421.43"/>
</g>
<!-- djls_source&#45;&gt;ext_salsa -->
<g id="edge26" class="edge">
<title>djls_source&#45;&gt;ext_salsa</title>
<path fill="none" stroke="#444444" d="M723.6,-112C691.01,-112 649.5,-112 649.5,-112 649.5,-112 649.5,-45.08 649.5,-45.08"/>
<polygon fill="#444444" stroke="#444444" points="651.95,-45.08 649.5,-38.08 647.05,-45.08 651.95,-45.08"/>
</g>
<!-- djls_templates&#45;&gt;djls_conf -->
<g id="edge27" class="edge">
<title>djls_templates&#45;&gt;djls_conf</title>
<path fill="none" stroke="#971a85" stroke-width="1.5" stroke-dasharray="5,2" d="M856.17,-300C842.12,-300 830.44,-300 830.44,-300 830.44,-300 830.44,-212 830.44,-212 830.44,-212 807.99,-212 807.99,-212"/>
<polygon fill="#971a85" stroke="#971a85" stroke-width="1.5" points="807.99,-209.55 800.99,-212 807.99,-214.45 807.99,-209.55"/>
</g>
<!-- djls_templates&#45;&gt;djls_workspace -->
<g id="edge28" class="edge">
<title>djls_templates&#45;&gt;djls_workspace</title>
<path fill="none" stroke="#971a85" stroke-width="1.5" stroke-dasharray="5,2" d="M904,-281.43C904,-281.43 904,-234.12 904,-234.12"/>
<polygon fill="#971a85" stroke="#971a85" stroke-width="1.5" points="906.45,-234.12 904,-227.12 901.55,-234.12 906.45,-234.12"/>
</g>
<!-- djls_templates&#45;&gt;ext_salsa -->
<g id="edge29" class="edge">
<title>djls_templates&#45;&gt;ext_salsa</title>
<path fill="none" stroke="#444444" d="M856.21,-291C848.49,-291 842.97,-291 842.97,-291 842.97,-291 842.97,-14 842.97,-14 842.97,-14 672.43,-14 672.43,-14"/>
<polygon fill="#444444" stroke="#444444" points="672.43,-11.55 665.43,-14 672.43,-16.45 672.43,-11.55"/>
</g>
<!-- djls_workspace&#45;&gt;djls_source -->
<g id="edge30" class="edge">
<title>djls_workspace&#45;&gt;djls_source</title>
<path fill="none" stroke="#971a50" stroke-width="1.5" stroke-dasharray="5,2" d="M887.83,-187.43C887.83,-160.03 887.83,-112 887.83,-112 887.83,-112 809.71,-112 809.71,-112"/>
<polygon fill="#971a50" stroke="#971a50" stroke-width="1.5" points="809.71,-109.55 802.71,-112 809.71,-114.45 809.71,-109.55"/>
</g>
<!-- djls_workspace&#45;&gt;ext_salsa -->
<g id="edge31" class="edge">
<title>djls_workspace&#45;&gt;ext_salsa</title>
<path fill="none" stroke="#444444" d="M920.17,-187.28C920.17,-137.74 920.17,-7 920.17,-7 920.17,-7 672.28,-7 672.28,-7"/>
<polygon fill="#444444" stroke="#444444" points="672.28,-4.55 665.28,-7 672.28,-9.45 672.28,-4.55"/>
</g>
<!-- djls_workspace&#45;&gt;ext_tokio -->
<g id="edge32" class="edge">
<title>djls_workspace&#45;&gt;ext_tokio</title>
<path fill="none" stroke="#444444" d="M953.28,-206C1024.83,-206 1149,-206 1149,-206 1149,-206 1149,-139.08 1149,-139.08"/>
<polygon fill="#444444" stroke="#444444" points="1151.45,-139.08 1149,-132.08 1146.55,-139.08 1151.45,-139.08"/>
</g>

<polygon fill="#1a9762" stroke="#1a9762" points="499.85,-477.00 494.85,-480.50 494.85,-473.50"/>
<polygon fill="#1a9762" stroke="#1a9762" points="585.34,-477.00 580.34,-480.50 580.34,-473.50"/>
<polygon fill="#1a9797" stroke="#1a9797" points="817.91,-252.00 821.41,-257.00 814.41,-257.00"/>
<polygon fill="#1a2c97" stroke="#1a2c97" points="857.62,-394.00 852.62,-397.50 852.62,-390.50"/>
<polygon fill="#3e1a97" stroke="#3e1a97" points="637.39,-499.00 632.39,-502.50 632.39,-495.50"/>
<polygon fill="#971a85" stroke="#971a85" points="830.44,-253.50 833.94,-258.50 826.94,-258.50"/>
</g>
</svg>
