<?xml version="1.0" encoding="UTF-8" standalone="no"?>
<!DOCTYPE svg PUBLIC "-//W3C//DTD SVG 1.1//EN"
 "http://www.w3.org/Graphics/SVG/1.1/DTD/svg11.dtd">
<!-- Generated by graphviz version 14.1.1 (0)
 -->
<!-- Title: dependencies Pages: 1 -->
<svg width="587pt" height="757pt"
 viewBox="0.00 0.00 587.00 757.00" xmlns="http://www.w3.org/2000/svg" xmlns:xlink="http://www.w3.org/1999/xlink">
<g id="graph0" class="graph" transform="scale(1 1) rotate(0) translate(4 753)">
<title>dependencies</title>
<polygon fill="#f8f9fa" stroke="none" points="-4,4 -4,-753 583,-753 583,4 -4,4"/>
<g id="clust1" class="cluster">
<title>cluster_djls_app</title>
<path fill="#e4cdcd" stroke="#971a1a" stroke-width="2" d="M250,-572C250,-572 296,-572 296,-572 302,-572 308,-578 308,-584 308,-584 308,-729 308,-729 308,-735 302,-741 296,-741 296,-741 250,-741 250,-741 244,-741 238,-735 238,-729 238,-729 238,-584 238,-584 238,-578 244,-572 250,-572"/>
<text xml:space="preserve" text-anchor="middle" x="273" y="-723.7" font-family="Helvetica Bold" font-size="14.00">djls&#45;app</text>
</g>
<g id="clust2" class="cluster">
<title>cluster_djls_bench</title>
<path fill="#e4d7cd" stroke="#97501a" stroke-width="2" d="M381,-572C381,-572 445,-572 445,-572 451,-572 457,-578 457,-584 457,-584 457,-635 457,-635 457,-641 451,-647 445,-647 445,-647 381,-647 381,-647 375,-647 369,-641 369,-635 369,-635 369,-584 369,-584 369,-578 375,-572 381,-572"/>
<text xml:space="preserve" text-anchor="middle" x="413" y="-629.7" font-family="Helvetica Bold" font-size="14.00">djls&#45;bench</text>
</g>
<g id="clust3" class="cluster">
<title>cluster_djls_conf</title>
<path fill="#e4e0cd" stroke="#97851a" stroke-width="2" d="M175,-196C175,-196 229,-196 229,-196 235,-196 241,-202 241,-208 241,-208 241,-259 241,-259 241,-265 235,-271 229,-271 229,-271 175,-271 175,-271 169,-271 163,-265 163,-259 163,-259 163,-208 163,-208 163,-202 169,-196 175,-196"/>
<text xml:space="preserve" text-anchor="middle" x="202" y="-253.7" font-family="Helvetica Bold" font-size="14.00">djls&#45;conf</text>
</g>
<g id="clust4" class="cluster">
<title>cluster_djls_corpus</title>
<path fill="#dde4cd" stroke="#74971a" stroke-width="2" d="M384,-384C384,-384 452,-384 452,-384 458,-384 464,-390 464,-396 464,-396 464,-541 464,-541 464,-547 458,-553 452,-553 452,-553 384,-553 384,-553 378,-553 372,-547 372,-541 372,-541 372,-396 372,-396 372,-390 378,-384 384,-384"/>
<text xml:space="preserve" text-anchor="middle" x="418" y="-535.7" font-family="Helvetica Bold" font-size="14.00">djls&#45;corpus</text>
</g>
<g id="clust5" class="cluster">
<title>cluster_djls_db</title>
<path fill="#d3e4cd" stroke="#3e971a" stroke-width="2" d="M118,-478C118,-478 164,-478 164,-478 170,-478 176,-484 176,-490 176,-490 176,-541 176,-541 176,-547 170,-553 164,-553 164,-553 118,-553 118,-553 112,-553 106,-547 106,-541 106,-541 106,-490 106,-490 106,-484 112,-478 118,-478"/>
<text xml:space="preserve" text-anchor="middle" x="141" y="-535.7" font-family="Helvetica Bold" font-size="14.00">djls&#45;db</text>
</g>
<g id="clust6" class="cluster">
<title>cluster_djls_dev</title>
<path fill="#cde4d0" stroke="#1a972c" stroke-width="2" d="M509,-572C509,-572 559,-572 559,-572 565,-572 571,-578 571,-584 571,-584 571,-729 571,-729 571,-735 565,-741 559,-741 559,-741 509,-741 509,-741 503,-741 497,-735 497,-729 497,-729 497,-584 497,-584 497,-578 503,-572 509,-572"/>
<text xml:space="preserve" text-anchor="middle" x="534" y="-723.7" font-family="Helvetica Bold" font-size="14.00">djls&#45;dev</text>
</g>
<g id="clust7" class="cluster">
<title>cluster_djls_ide</title>
<path fill="#cde4da" stroke="#1a9762" stroke-width="2" d="M242,-384C242,-384 340,-384 340,-384 346,-384 352,-390 352,-396 352,-396 352,-541 352,-541 352,-547 346,-553 340,-553 340,-553 242,-553 242,-553 236,-553 230,-547 230,-541 230,-541 230,-396 230,-396 230,-390 236,-384 242,-384"/>
<text xml:space="preserve" text-anchor="middle" x="291" y="-535.7" font-family="Helvetica Bold" font-size="14.00">djls&#45;ide</text>
</g>
<g id="clust8" class="cluster">
<title>cluster_djls_project</title>
<path fill="#cde4e4" stroke="#1a9797" stroke-width="2" d="M174,-290C174,-290 242,-290 242,-290 248,-290 254,-296 254,-302 254,-302 254,-353 254,-353 254,-359 248,-365 242,-365 242,-365 174,-365 174,-365 168,-365 162,-359 162,-353 162,-353 162,-302 162,-302 162,-296 168,-290 174,-290"/>
<text xml:space="preserve" text-anchor="middle" x="208" y="-347.7" font-family="Helvetica Bold" font-size="14.00">djls&#45;project</text>
</g>
<g id="clust9" class="cluster">
<title>cluster_djls_python</title>
<path fill="#cddae4" stroke="#1a6297" stroke-width="2" d="M295,-196C295,-196 363,-196 363,-196 369,-196 375,-202 375,-208 375,-208 375,-259 375,-259 375,-265 369,-271 363,-271 363,-271 295,-271 295,-271 289,-271 283,-265 283,-259 283,-259 283,-208 283,-208 283,-202 289,-196 295,-196"/>
<text xml:space="preserve" text-anchor="middle" x="329" y="-253.7" font-family="Helvetica Bold" font-size="14.00">djls&#45;python</text>
</g>
<g id="clust10" class="cluster">
<title>cluster_djls_semantic</title>
<path fill="#cdd0e4" stroke="#1a2c97" stroke-width="2" d="M96,-384C96,-384 176,-384 176,-384 182,-384 188,-390 188,-396 188,-396 188,-447 188,-447 188,-453 182,-459 176,-459 176,-459 96,-459 96,-459 90,-459 84,-453 84,-447 84,-447 84,-396 84,-396 84,-390 90,-384 96,-384"/>
<text xml:space="preserve" text-anchor="middle" x="136" y="-441.7" font-family="Helvetica Bold" font-size="14.00">djls&#45;semantic</text>
</g>
<g id="clust11" class="cluster">
<title>cluster_djls_server</title>
<path fill="#d3cde4" stroke="#3e1a97" stroke-width="2" d="M118,-572C118,-572 184,-572 184,-572 190,-572 196,-578 196,-584 196,-584 196,-635 196,-635 196,-641 190,-647 184,-647 184,-647 118,-647 118,-647 112,-647 106,-641 106,-635 106,-635 106,-584 106,-584 106,-578 112,-572 118,-572"/>
<text xml:space="preserve" text-anchor="middle" x="151" y="-629.7" font-family="Helvetica Bold" font-size="14.00">djls&#45;server</text>
</g>
<g id="clust12" class="cluster">
<title>cluster_djls_source</title>
<path fill="#ddcde4" stroke="#741a97" stroke-width="2" d="M224,-8C224,-8 292,-8 292,-8 298,-8 304,-14 304,-20 304,-20 304,-165 304,-165 304,-171 298,-177 292,-177 292,-177 224,-177 224,-177 218,-177 212,-171 212,-165 212,-165 212,-20 212,-20 212,-14 218,-8 224,-8"/>
<text xml:space="preserve" text-anchor="middle" x="258" y="-159.7" font-family="Helvetica Bold" font-size="14.00">djls&#45;source</text>
</g>
<g id="clust13" class="cluster">
<title>cluster_djls_templates</title>
<path fill="#e4cde0" stroke="#971a85" stroke-width="2" d="M22,-290C22,-290 108,-290 108,-290 114,-290 120,-296 120,-302 120,-302 120,-353 120,-353 120,-359 114,-365 108,-365 108,-365 22,-365 22,-365 16,-365 10,-359 10,-353 10,-353 10,-302 10,-302 10,-296 16,-290 22,-290"/>
<text xml:space="preserve" text-anchor="middle" x="65" y="-347.7" font-family="Helvetica Bold" font-size="14.00">djls&#45;templates</text>
</g>
<g id="clust14" class="cluster">
<title>cluster_djls_workspace</title>
<path fill="#e4cdd7" stroke="#971a50" stroke-width="2" d="M20,-102C20,-102 111,-102 111,-102 117,-102 123,-108 123,-114 123,-114 123,-259 123,-259 123,-265 117,-271 111,-271 111,-271 20,-271 20,-271 14,-271 8,-265 8,-259 8,-259 8,-114 8,-114 8,-108 14,-102 20,-102"/>
<text xml:space="preserve" text-anchor="middle" x="65.5" y="-253.7" font-family="Helvetica Bold" font-size="14.00">djls&#45;workspace</text>
</g>
<!-- djls -->
<g id="node1" class="node">
<title>djls</title>
<polygon fill="#e4cdcd" stroke="#971a1a" stroke-width="2" points="300,-710 246,-710 246,-674 300,-674 300,-710"/>
<text xml:space="preserve" text-anchor="middle" x="273" y="-688.3" font-family="Helvetica,sans-Serif" font-size="11.00">djls</text>
</g>
<!-- djls_app_clap -->
<g id="node2" class="node">
<title>djls_app_clap</title>
<polygon fill="#d0d0d0" stroke="#606060" stroke-width="2" points="300,-616 246,-616 246,-580 300,-580 300,-616"/>
<text xml:space="preserve" text-anchor="middle" x="273" y="-594.3" font-family="Helvetica,sans-Serif" font-size="11.00">clap</text>
</g>
<!-- djls&#45;&gt;djls_app_clap -->
<g id="edge1" class="edge">
<title>djls&#45;&gt;djls_app_clap</title>
<path fill="none" stroke="#444444" d="M273,-673.43C273,-673.43 273,-625.37 273,-625.37"/>
<polygon fill="#444444" stroke="#444444" points="275.45,-625.37 273,-618.37 270.55,-625.37 275.45,-625.37"/>
</g>
<!-- djls_server -->
<g id="node15" class="node">
<title>djls_server</title>
<polygon fill="#d3cde4" stroke="#3e1a97" stroke-width="2" points="187.88,-616 114.12,-616 114.12,-580 187.88,-580 187.88,-616"/>
<text xml:space="preserve" text-anchor="middle" x="151" y="-594.3" font-family="Helvetica,sans-Serif" font-size="11.00">djls&#45;server</text>
</g>
<!-- djls&#45;&gt;djls_server -->
<g id="edge2" class="edge">
<title>djls&#45;&gt;djls_server</title>
<path fill="none" stroke="#971a1a" stroke-width="1.5" stroke-dasharray="5,2" d="M245.01,-692C208.99,-692 151,-692 151,-692 151,-692 151,-625.84 151,-625.84"/>
<polygon fill="#971a1a" stroke="#971a1a" stroke-width="1.5" points="153.45,-625.84 151,-618.84 148.55,-625.84 153.45,-625.84"/>
</g>
<!-- djls_bench -->
<g id="node3" class="node">
<title>djls_bench</title>
<polygon fill="#e4d7cd" stroke="#97501a" stroke-width="2" points="448.75,-616 377.25,-616 377.25,-580 448.75,-580 448.75,-616"/>
<text xml:space="preserve" text-anchor="middle" x="413" y="-594.3" font-family="Helvetica,sans-Serif" font-size="11.00">djls&#45;bench</text>
</g>
<!-- djls_corpus -->
<g id="node5" class="node">
<title>djls_corpus</title>
<polygon fill="#dde4cd" stroke="#74971a" stroke-width="2" points="455.62,-522 380.38,-522 380.38,-486 455.62,-486 455.62,-522"/>
<text xml:space="preserve" text-anchor="middle" x="418" y="-500.3" font-family="Helvetica,sans-Serif" font-size="11.00">djls&#45;corpus</text>
</g>
<!-- djls_bench&#45;&gt;djls_corpus -->
<g id="edge3" class="edge">
<title>djls_bench&#45;&gt;djls_corpus</title>
<path fill="none" stroke="#97501a" stroke-width="1.5" stroke-dasharray="5,2" d="M414.56,-579.43C414.56,-579.43 414.56,-532.12 414.56,-532.12"/>
<polygon fill="#97501a" stroke="#97501a" stroke-width="1.5" points="417.01,-532.12 414.56,-525.12 412.11,-532.12 417.01,-532.12"/>
</g>
<!-- djls_ide -->
<g id="node10" class="node">
<title>djls_ide</title>
<polygon fill="#cde4da" stroke="#1a9762" stroke-width="2" points="293.5,-522 238.5,-522 238.5,-486 293.5,-486 293.5,-522"/>
<text xml:space="preserve" text-anchor="middle" x="266" y="-500.3" font-family="Helvetica,sans-Serif" font-size="11.00">djls&#45;ide</text>
</g>
<!-- djls_bench&#45;&gt;djls_ide -->
<g id="edge4" class="edge">
<title>djls_bench&#45;&gt;djls_ide</title>
<path fill="none" stroke="#97501a" stroke-width="1.5" stroke-dasharray="5,2" d="M376.36,-598C373.86,-598 372.31,-598 372.31,-598 372.31,-598 372.31,-504 372.31,-504 372.31,-504 303.76,-504 303.76,-504"/>
<polygon fill="#97501a" stroke="#97501a" stroke-width="1.5" points="303.76,-501.55 296.76,-504 303.76,-506.45 303.76,-501.55"/>
</g>
<!-- djls_conf -->
<g id="node4" class="node">
<title>djls_conf</title>
<polygon fill="#e4e0cd" stroke="#97851a" stroke-width="2" points="232.88,-240 171.12,-240 171.12,-204 232.88,-204 232.88,-240"/>
<text xml:space="preserve" text-anchor="middle" x="202" y="-218.3" font-family="Helvetica,sans-Serif" font-size="11.00">djls&#45;conf</text>
</g>
<!-- djls_corpus_clap -->
<g id="node6" class="node">
<title>djls_corpus_clap</title>
<polygon fill="#d0d0d0" stroke="#606060" stroke-width="2" points="456,-428 402,-428 402,-392 456,-392 456,-428"/>
<text xml:space="preserve" text-anchor="middle" x="429" y="-406.3" font-family="Helvetica,sans-Serif" font-size="11.00">clap</text>
</g>
<!-- djls_corpus&#45;&gt;djls_corpus_clap -->
<g id="edge5" class="edge">
<title>djls_corpus&#45;&gt;djls_corpus_clap</title>
<path fill="none" stroke="#444444" d="M428.81,-485.43C428.81,-485.43 428.81,-437.37 428.81,-437.37"/>
<polygon fill="#444444" stroke="#444444" points="431.26,-437.37 428.81,-430.37 426.36,-437.37 431.26,-437.37"/>
</g>
<!-- djls_db -->
<g id="node7" class="node">
<title>djls_db</title>
<polygon fill="#d3e4cd" stroke="#3e971a" stroke-width="2" points="168,-522 114,-522 114,-486 168,-486 168,-522"/>
<text xml:space="preserve" text-anchor="middle" x="141" y="-500.3" font-family="Helvetica,sans-Serif" font-size="11.00">djls&#45;db</text>
</g>
<!-- djls_semantic -->
<g id="node14" class="node">
<title>djls_semantic</title>
<polygon fill="#cdd0e4" stroke="#1a2c97" stroke-width="2" points="180.38,-428 91.62,-428 91.62,-392 180.38,-392 180.38,-428"/>
<text xml:space="preserve" text-anchor="middle" x="136" y="-406.3" font-family="Helvetica,sans-Serif" font-size="11.00">djls&#45;semantic</text>
</g>
<!-- djls_db&#45;&gt;djls_semantic -->
<g id="edge6" class="edge">
<title>djls_db&#45;&gt;djls_semantic</title>
<path fill="none" stroke="#3e971a" stroke-width="1.5" stroke-dasharray="5,2" d="M141,-485.43C141,-485.43 141,-438.12 141,-438.12"/>
<polygon fill="#3e971a" stroke="#3e971a" stroke-width="1.5" points="143.45,-438.12 141,-431.12 138.55,-438.12 143.45,-438.12"/>
</g>
<!-- djls_dev -->
<g id="node8" class="node">
<title>djls_dev</title>
<polygon fill="#cde4d0" stroke="#1a972c" stroke-width="2" points="563.38,-710 504.62,-710 504.62,-674 563.38,-674 563.38,-710"/>
<text xml:space="preserve" text-anchor="middle" x="534" y="-688.3" font-family="Helvetica,sans-Serif" font-size="11.00">djls&#45;dev</text>
</g>
<!-- djls_dev_clap -->
<g id="node9" class="node">
<title>djls_dev_clap</title>
<polygon fill="#d0d0d0" stroke="#606060" stroke-width="2" points="561,-616 507,-616 507,-580 561,-580 561,-616"/>
<text xml:space="preserve" text-anchor="middle" x="534" y="-594.3" font-family="Helvetica,sans-Serif" font-size="11.00">clap</text>
</g>
<!-- djls_dev&#45;&gt;djls_dev_clap -->
<g id="edge7" class="edge">
<title>djls_dev&#45;&gt;djls_dev_clap</title>
<path fill="none" stroke="#444444" d="M534,-673.43C534,-673.43 534,-625.37 534,-625.37"/>
<polygon fill="#444444" stroke="#444444" points="536.45,-625.37 534,-618.37 531.55,-625.37 536.45,-625.37"/>
</g>
<!-- djls_ide_tower_lsp_server -->
<g id="node11" class="node">
<title>djls_ide_tower_lsp_server</title>
<polygon fill="#d0d0d0" stroke="#606060" stroke-width="2" points="343.62,-428 238.38,-428 238.38,-392 343.62,-392 343.62,-428"/>
<text xml:space="preserve" text-anchor="middle" x="291" y="-406.3" font-family="Helvetica,sans-Serif" font-size="11.00">tower&#45;lsp&#45;server</text>
</g>
<!-- djls_ide&#45;&gt;djls_ide_tower_lsp_server -->
<g id="edge9" class="edge">
<title>djls_ide&#45;&gt;djls_ide_tower_lsp_server</title>
<path fill="none" stroke="#444444" d="M266,-485.43C266,-485.43 266,-437.37 266,-437.37"/>
<polygon fill="#444444" stroke="#444444" points="268.45,-437.37 266,-430.37 263.55,-437.37 268.45,-437.37"/>
</g>
<!-- djls_ide&#45;&gt;djls_semantic -->
<g id="edge8" class="edge">
<title>djls_ide&#45;&gt;djls_semantic</title>
<path fill="none" stroke="#1a9762" stroke-width="1.5" stroke-dasharray="5,2" d="M237.7,-504C210.73,-504 174.19,-504 174.19,-504 174.19,-504 174.19,-437.84 174.19,-437.84"/>
<polygon fill="#1a9762" stroke="#1a9762" stroke-width="1.5" points="176.64,-437.84 174.19,-430.84 171.74,-437.84 176.64,-437.84"/>
</g>
<!-- djls_project -->
<g id="node12" class="node">
<title>djls_project</title>
<polygon fill="#cde4e4" stroke="#1a9797" stroke-width="2" points="246.38,-334 169.62,-334 169.62,-298 246.38,-298 246.38,-334"/>
<text xml:space="preserve" text-anchor="middle" x="208" y="-312.3" font-family="Helvetica,sans-Serif" font-size="11.00">djls&#45;project</text>
</g>
<!-- djls_project&#45;&gt;djls_conf -->
<g id="edge10" class="edge">
<title>djls_project&#45;&gt;djls_conf</title>
<path fill="none" stroke="#1a9797" stroke-width="1.5" stroke-dasharray="5,2" d="M202,-297.43C202,-297.43 202,-250.12 202,-250.12"/>
<polygon fill="#1a9797" stroke="#1a9797" stroke-width="1.5" points="204.45,-250.12 202,-243.12 199.55,-250.12 204.45,-250.12"/>
</g>
<!-- djls_python -->
<g id="node13" class="node">
<title>djls_python</title>
<polygon fill="#cddae4" stroke="#1a6297" stroke-width="2" points="367.38,-240 290.62,-240 290.62,-204 367.38,-204 367.38,-240"/>
<text xml:space="preserve" text-anchor="middle" x="329" y="-218.3" font-family="Helvetica,sans-Serif" font-size="11.00">djls&#45;python</text>
</g>
<!-- djls_project&#45;&gt;djls_python -->
<g id="edge11" class="edge">
<title>djls_project&#45;&gt;djls_python</title>
<path fill="none" stroke="#1a9797" stroke-width="1.5" stroke-dasharray="5,2" d="M239.62,-297.34C239.62,-271.51 239.62,-228 239.62,-228 239.62,-228 280.53,-228 280.53,-228"/>
<polygon fill="#1a9797" stroke="#1a9797" stroke-width="1.5" points="280.53,-230.45 287.53,-228 280.53,-225.55 280.53,-230.45"/>
</g>
<!-- djls_workspace -->
<g id="node19" class="node">
<title>djls_workspace</title>
<polygon fill="#e4cdd7" stroke="#971a50" stroke-width="2" points="113.5,-240 16.5,-240 16.5,-204 113.5,-204 113.5,-240"/>
<text xml:space="preserve" text-anchor="middle" x="65" y="-218.3" font-family="Helvetica,sans-Serif" font-size="11.00">djls&#45;workspace</text>
</g>
<!-- djls_project&#45;&gt;djls_workspace -->
<g id="edge12" class="edge">
<title>djls_project&#45;&gt;djls_workspace</title>
<path fill="none" stroke="#1a9797" stroke-width="1.5" stroke-dasharray="5,2" d="M168.77,-322C150.28,-322 132.21,-322 132.21,-322 132.21,-322 132.21,-228 132.21,-228 132.21,-228 123.47,-228 123.47,-228"/>
<polygon fill="#1a9797" stroke="#1a9797" stroke-width="1.5" points="123.47,-225.55 116.47,-228 123.47,-230.45 123.47,-225.55"/>
</g>
<!-- djls_source -->
<g id="node16" class="node">
<title>djls_source</title>
<polygon fill="#ddcde4" stroke="#741a97" stroke-width="2" points="295.62,-146 220.38,-146 220.38,-110 295.62,-110 295.62,-146"/>
<text xml:space="preserve" text-anchor="middle" x="258" y="-124.3" font-family="Helvetica,sans-Serif" font-size="11.00">djls&#45;source</text>
</g>
<!-- djls_python&#45;&gt;djls_source -->
<g id="edge13" class="edge">
<title>djls_python&#45;&gt;djls_source</title>
<path fill="none" stroke="#1a6297" stroke-width="1.5" stroke-dasharray="5,2" d="M289.66,-216C278.1,-216 268.5,-216 268.5,-216 268.5,-216 268.5,-155.93 268.5,-155.93"/>
<polygon fill="#1a6297" stroke="#1a6297" stroke-width="1.5" points="270.95,-155.93 268.5,-148.93 266.05,-155.93 270.95,-155.93"/>
</g>
<!-- djls_semantic&#45;&gt;djls_project -->
<g id="edge14" class="edge">
<title>djls_semantic&#45;&gt;djls_project</title>
<path fill="none" stroke="#1a2c97" stroke-width="1.5" stroke-dasharray="5,2" d="M175,-391.43C175,-391.43 175,-344.12 175,-344.12"/>
<polygon fill="#1a2c97" stroke="#1a2c97" stroke-width="1.5" points="177.45,-344.12 175,-337.12 172.55,-344.12 177.45,-344.12"/>
</g>
<!-- djls_templates -->
<g id="node18" class="node">
<title>djls_templates</title>
<polygon fill="#e4cde0" stroke="#971a85" stroke-width="2" points="112,-334 18,-334 18,-298 112,-298 112,-334"/>
<text xml:space="preserve" text-anchor="middle" x="65" y="-312.3" font-family="Helvetica,sans-Serif" font-size="11.00">djls&#45;templates</text>
</g>
<!-- djls_semantic&#45;&gt;djls_templates -->
<g id="edge15" class="edge">
<title>djls_semantic&#45;&gt;djls_templates</title>
<path fill="none" stroke="#1a2c97" stroke-width="1.5" stroke-dasharray="5,2" d="M101.81,-391.43C101.81,-391.43 101.81,-344.12 101.81,-344.12"/>
<polygon fill="#1a2c97" stroke="#1a2c97" stroke-width="1.5" points="104.26,-344.12 101.81,-337.12 99.36,-344.12 104.26,-344.12"/>
</g>
<!-- djls_server&#45;&gt;djls_db -->
<g id="edge16" class="edge">
<title>djls_server&#45;&gt;djls_db</title>
<path fill="none" stroke="#3e1a97" stroke-width="1.5" stroke-dasharray="5,2" d="M141.06,-579.43C141.06,-579.43 141.06,-532.12 141.06,-532.12"/>
<polygon fill="#3e1a97" stroke="#3e1a97" stroke-width="1.5" points="143.51,-532.12 141.06,-525.12 138.61,-532.12 143.51,-532.12"/>
</g>
<!-- djls_server&#45;&gt;djls_ide -->
<g id="edge17" class="edge">
<title>djls_server&#45;&gt;djls_ide</title>
<path fill="none" stroke="#3e1a97" stroke-width="1.5" stroke-dasharray="5,2" d="M188.64,-598C213.78,-598 242.25,-598 242.25,-598 242.25,-598 242.25,-531.84 242.25,-531.84"/>
<polygon fill="#3e1a97" stroke="#3e1a97" stroke-width="1.5" points="244.7,-531.84 242.25,-524.84 239.8,-531.84 244.7,-531.84"/>
</g>
<!-- djls_source_salsa -->
<g id="node17" class="node">
<title>djls_source_salsa</title>
<polygon fill="#d0d0d0" stroke="#606060" stroke-width="2" points="285,-52 231,-52 231,-16 285,-16 285,-52"/>
<text xml:space="preserve" text-anchor="middle" x="258" y="-30.3" font-family="Helvetica,sans-Serif" font-size="11.00">salsa</text>
</g>
<!-- djls_source&#45;&gt;djls_source_salsa -->
<g id="edge18" class="edge">
<title>djls_source&#45;&gt;djls_source_salsa</title>
<path fill="none" stroke="#444444" d="M258,-109.43C258,-109.43 258,-61.37 258,-61.37"/>
<polygon fill="#444444" stroke="#444444" points="260.45,-61.37 258,-54.37 255.55,-61.37 260.45,-61.37"/>
</g>
<!-- djls_templates&#45;&gt;djls_conf -->
<g id="edge19" class="edge">
<title>djls_templates&#45;&gt;djls_conf</title>
<path fill="none" stroke="#971a85" stroke-width="1.5" stroke-dasharray="5,2" d="M112.98,-310C132.66,-310 150.92,-310 150.92,-310 150.92,-310 150.92,-216 150.92,-216 150.92,-216 160.96,-216 160.96,-216"/>
<polygon fill="#971a85" stroke="#971a85" stroke-width="1.5" points="160.96,-218.45 167.96,-216 160.96,-213.55 160.96,-218.45"/>
</g>
<!-- djls_templates&#45;&gt;djls_workspace -->
<g id="edge20" class="edge">
<title>djls_templates&#45;&gt;djls_workspace</title>
<path fill="none" stroke="#971a85" stroke-width="1.5" stroke-dasharray="5,2" d="M65,-297.43C65,-297.43 65,-250.12 65,-250.12"/>
<polygon fill="#971a85" stroke="#971a85" stroke-width="1.5" points="67.45,-250.12 65,-243.12 62.55,-250.12 67.45,-250.12"/>
</g>
<!-- djls_workspace&#45;&gt;djls_source -->
<g id="edge21" class="edge">
<title>djls_workspace&#45;&gt;djls_source</title>
<path fill="none" stroke="#971a50" stroke-width="1.5" stroke-dasharray="5,2" d="M102.75,-203.43C102.75,-176.03 102.75,-128 102.75,-128 102.75,-128 210.35,-128 210.35,-128"/>
<polygon fill="#971a50" stroke="#971a50" stroke-width="1.5" points="210.35,-130.45 217.35,-128 210.35,-125.55 210.35,-130.45"/>
</g>
<!-- djls_workspace_tokio -->
<g id="node20" class="node">
<title>djls_workspace_tokio</title>
<polygon fill="#d0d0d0" stroke="#606060" stroke-width="2" points="92,-146 38,-146 38,-110 92,-110 92,-146"/>
<text xml:space="preserve" text-anchor="middle" x="65" y="-124.3" font-family="Helvetica,sans-Serif" font-size="11.00">tokio</text>
</g>
<!-- djls_workspace&#45;&gt;djls_workspace_tokio -->
<g id="edge22" class="edge">
<title>djls_workspace&#45;&gt;djls_workspace_tokio</title>
<path fill="none" stroke="#444444" d="M65,-203.43C65,-203.43 65,-155.37 65,-155.37"/>
<polygon fill="#444444" stroke="#444444" points="67.45,-155.37 65,-148.37 62.55,-155.37 67.45,-155.37"/>
</g>

<polygon fill="#971a1a" stroke="#971a1a" points="195.50,-692.00 200.50,-688.50 200.50,-695.50"/>
<polygon fill="#97501a" stroke="#97501a" points="372.31,-548.50 375.81,-553.50 368.81,-553.50"/>
<polygon fill="#1a9797" stroke="#1a9797" points="132.21,-272.50 135.71,-277.50 128.71,-277.50"/>
<polygon fill="#971a85" stroke="#971a85" points="150.92,-260.50 154.42,-265.50 147.42,-265.50"/>
<polygon fill="#971a50" stroke="#971a50" points="159.05,-128.00 154.05,-131.50 154.05,-124.50"/>
</g>
</svg>
