<?xml version="1.0" encoding="UTF-8" standalone="no"?>
<!DOCTYPE svg PUBLIC "-//W3C//DTD SVG 1.1//EN"
 "http://www.w3.org/Graphics/SVG/1.1/DTD/svg11.dtd">
<!-- Generated by graphviz version 14.1.1 (0)
 -->
<!-- Title: dependencies Pages: 1 -->
<svg width="652pt" height="663pt"
 viewBox="0.00 0.00 652.00 663.00" xmlns="http://www.w3.org/2000/svg" xmlns:xlink="http://www.w3.org/1999/xlink">
<g id="graph0" class="graph" transform="scale(1 1) rotate(0) translate(4 659)">
<title>dependencies</title>
<polygon fill="#f8f9fa" stroke="none" points="-4,4 -4,-659 648,-659 648,4 -4,4"/>
<g id="clust1" class="cluster">
<title>cluster_djls_app</title>
<path fill="#e4cdcd" stroke="#971a1a" stroke-width="2" d="M296,-478C296,-478 342,-478 342,-478 348,-478 354,-484 354,-490 354,-490 354,-635 354,-635 354,-641 348,-647 342,-647 342,-647 296,-647 296,-647 290,-647 284,-641 284,-635 284,-635 284,-490 284,-490 284,-484 290,-478 296,-478"/>
<text xml:space="preserve" text-anchor="middle" x="319" y="-629.7" font-family="Helvetica Bold" font-size="14.00">djls&#45;app</text>
</g>
<g id="clust2" class="cluster">
<title>cluster_djls_bench</title>
<path fill="#e4d7cd" stroke="#97501a" stroke-width="2" d="M412,-478C412,-478 476,-478 476,-478 482,-478 488,-484 488,-490 488,-490 488,-541 488,-541 488,-547 482,-553 476,-553 476,-553 412,-553 412,-553 406,-553 400,-547 400,-541 400,-541 400,-490 400,-490 400,-484 406,-478 412,-478"/>
<text xml:space="preserve" text-anchor="middle" x="444" y="-535.7" font-family="Helvetica Bold" font-size="14.00">djls&#45;bench</text>
</g>
<g id="clust3" class="cluster">
<title>cluster_djls_conf</title>
<path fill="#e4e0cd" stroke="#97851a" stroke-width="2" d="M347,-102C347,-102 401,-102 401,-102 407,-102 413,-108 413,-114 413,-114 413,-165 413,-165 413,-171 407,-177 401,-177 401,-177 347,-177 347,-177 341,-177 335,-171 335,-165 335,-165 335,-114 335,-114 335,-108 341,-102 347,-102"/>
<text xml:space="preserve" text-anchor="middle" x="374" y="-159.7" font-family="Helvetica Bold" font-size="14.00">djls&#45;conf</text>
</g>
<g id="clust4" class="cluster">
<title>cluster_djls_corpus</title>
<path fill="#dde4cd" stroke="#74971a" stroke-width="2" d="M556,-290C556,-290 624,-290 624,-290 630,-290 636,-296 636,-302 636,-302 636,-447 636,-447 636,-453 630,-459 624,-459 624,-459 556,-459 556,-459 550,-459 544,-453 544,-447 544,-447 544,-302 544,-302 544,-296 550,-290 556,-290"/>
<text xml:space="preserve" text-anchor="middle" x="590" y="-441.7" font-family="Helvetica Bold" font-size="14.00">djls&#45;corpus</text>
</g>
<g id="clust5" class="cluster">
<title>cluster_djls_db</title>
<path fill="#d3e4cd" stroke="#3e971a" stroke-width="2" d="M296,-384C296,-384 342,-384 342,-384 348,-384 354,-390 354,-396 354,-396 354,-447 354,-447 354,-453 348,-459 342,-459 342,-459 296,-459 296,-459 290,-459 284,-453 284,-447 284,-447 284,-396 284,-396 284,-390 290,-384 296,-384"/>
<text xml:space="preserve" text-anchor="middle" x="319" y="-441.7" font-family="Helvetica Bold" font-size="14.00">djls&#45;db</text>
</g>
<g id="clust6" class="cluster">
<title>cluster_djls_dev</title>
<path fill="#cde4d0" stroke="#1a972c" stroke-width="2" d="M560,-478C560,-478 610,-478 610,-478 616,-478 622,-484 622,-490 622,-490 622,-635 622,-635 622,-641 616,-647 610,-647 610,-647 560,-647 560,-647 554,-647 548,-641 548,-635 548,-635 548,-490 548,-490 548,-484 554,-478 560,-478"/>
<text xml:space="preserve" text-anchor="middle" x="585" y="-629.7" font-family="Helvetica Bold" font-size="14.00">djls&#45;dev</text>
</g>
<g id="clust7" class="cluster">
<title>cluster_djls_ide</title>
<path fill="#cde4da" stroke="#1a9762" stroke-width="2" d="M414,-290C414,-290 512,-290 512,-290 518,-290 524,-296 524,-302 524,-302 524,-447 524,-447 524,-453 518,-459 512,-459 512,-459 414,-459 414,-459 408,-459 402,-453 402,-447 402,-447 402,-302 402,-302 402,-296 408,-290 414,-290"/>
<text xml:space="preserve" text-anchor="middle" x="463" y="-441.7" font-family="Helvetica Bold" font-size="14.00">djls&#45;ide</text>
</g>
<g id="clust8" class="cluster">
<title>cluster_djls_project</title>
<path fill="#cde4e4" stroke="#1a9797" stroke-width="2" d="M346,-196C346,-196 414,-196 414,-196 420,-196 426,-202 426,-208 426,-208 426,-259 426,-259 426,-265 420,-271 414,-271 414,-271 346,-271 346,-271 340,-271 334,-265 334,-259 334,-259 334,-208 334,-208 334,-202 340,-196 346,-196"/>
<text xml:space="preserve" text-anchor="middle" x="380" y="-253.7" font-family="Helvetica Bold" font-size="14.00">djls&#45;project</text>
</g>
<g id="clust9" class="cluster">
<title>cluster_djls_python</title>
<path fill="#cddae4" stroke="#1a6297" stroke-width="2" d="M467,-102C467,-102 535,-102 535,-102 541,-102 547,-108 547,-114 547,-114 547,-165 547,-165 547,-171 541,-177 535,-177 535,-177 467,-177 467,-177 461,-177 455,-171 455,-165 455,-165 455,-114 455,-114 455,-108 461,-102 467,-102"/>
<text xml:space="preserve" text-anchor="middle" x="501" y="-159.7" font-family="Helvetica Bold" font-size="14.00">djls&#45;python</text>
</g>
<g id="clust10" class="cluster">
<title>cluster_djls_semantic</title>
<path fill="#cdd0e4" stroke="#1a2c97" stroke-width="2" d="M268,-290C268,-290 348,-290 348,-290 354,-290 360,-296 360,-302 360,-302 360,-353 360,-353 360,-359 354,-365 348,-365 348,-365 268,-365 268,-365 262,-365 256,-359 256,-353 256,-353 256,-302 256,-302 256,-296 262,-290 268,-290"/>
<text xml:space="preserve" text-anchor="middle" x="308" y="-347.7" font-family="Helvetica Bold" font-size="14.00">djls&#45;semantic</text>
</g>
<g id="clust11" class="cluster">
<title>cluster_djls_server</title>
<path fill="#d3cde4" stroke="#3e1a97" stroke-width="2" d="M20,-384C20,-384 230,-384 230,-384 236,-384 242,-390 242,-396 242,-396 242,-541 242,-541 242,-547 236,-553 230,-553 230,-553 20,-553 20,-553 14,-553 8,-547 8,-541 8,-541 8,-396 8,-396 8,-390 14,-384 20,-384"/>
<text xml:space="preserve" text-anchor="middle" x="125" y="-535.7" font-family="Helvetica Bold" font-size="14.00">djls&#45;server</text>
</g>
<g id="clust12" class="cluster">
<title>cluster_djls_source</title>
<path fill="#ddcde4" stroke="#741a97" stroke-width="2" d="M396,-8C396,-8 464,-8 464,-8 470,-8 476,-14 476,-20 476,-20 476,-71 476,-71 476,-77 470,-83 464,-83 464,-83 396,-83 396,-83 390,-83 384,-77 384,-71 384,-71 384,-20 384,-20 384,-14 390,-8 396,-8"/>
<text xml:space="preserve" text-anchor="middle" x="430" y="-65.7" font-family="Helvetica Bold" font-size="14.00">djls&#45;source</text>
</g>
<g id="clust13" class="cluster">
<title>cluster_djls_templates</title>
<path fill="#e4cde0" stroke="#971a85" stroke-width="2" d="M194,-196C194,-196 280,-196 280,-196 286,-196 292,-202 292,-208 292,-208 292,-259 292,-259 292,-265 286,-271 280,-271 280,-271 194,-271 194,-271 188,-271 182,-265 182,-259 182,-259 182,-208 182,-208 182,-202 188,-196 194,-196"/>
<text xml:space="preserve" text-anchor="middle" x="237" y="-253.7" font-family="Helvetica Bold" font-size="14.00">djls&#45;templates</text>
</g>
<g id="clust14" class="cluster">
<title>cluster_djls_workspace</title>
<path fill="#e4cdd7" stroke="#971a50" stroke-width="2" d="M192,-8C192,-8 283,-8 283,-8 289,-8 295,-14 295,-20 295,-20 295,-165 295,-165 295,-171 289,-177 283,-177 283,-177 192,-177 192,-177 186,-177 180,-171 180,-165 180,-165 180,-20 180,-20 180,-14 186,-8 192,-8"/>
<text xml:space="preserve" text-anchor="middle" x="237.5" y="-159.7" font-family="Helvetica Bold" font-size="14.00">djls&#45;workspace</text>
</g>
<!-- djls -->
<g id="node1" class="node">
<title>djls</title>
<polygon fill="#e4cdcd" stroke="#971a1a" stroke-width="2" points="346,-616 292,-616 292,-580 346,-580 346,-616"/>
<text xml:space="preserve" text-anchor="middle" x="319" y="-594.3" font-family="Helvetica,sans-Serif" font-size="11.00">djls</text>
</g>
<!-- djls_app_clap -->
<g id="node2" class="node">
<title>djls_app_clap</title>
<polygon fill="#d0d0d0" stroke="#606060" stroke-width="2" points="346,-522 292,-522 292,-486 346,-486 346,-522"/>
<text xml:space="preserve" text-anchor="middle" x="319" y="-500.3" font-family="Helvetica,sans-Serif" font-size="11.00">clap</text>
</g>
<!-- djls&#45;&gt;djls_app_clap -->
<g id="edge1" class="edge">
<title>djls&#45;&gt;djls_app_clap</title>
<path fill="none" stroke="#444444" d="M319,-579.43C319,-579.43 319,-531.37 319,-531.37"/>
<polygon fill="#444444" stroke="#444444" points="321.45,-531.37 319,-524.37 316.55,-531.37 321.45,-531.37"/>
</g>
<!-- djls_server -->
<g id="node15" class="node">
<title>djls_server</title>
<polygon fill="#d3cde4" stroke="#3e1a97" stroke-width="2" points="233.88,-522 160.12,-522 160.12,-486 233.88,-486 233.88,-522"/>
<text xml:space="preserve" text-anchor="middle" x="197" y="-500.3" font-family="Helvetica,sans-Serif" font-size="11.00">djls&#45;server</text>
</g>
<!-- djls&#45;&gt;djls_server -->
<g id="edge2" class="edge">
<title>djls&#45;&gt;djls_server</title>
<path fill="none" stroke="#971a1a" stroke-width="1.5" stroke-dasharray="5,2" d="M291.01,-598C254.99,-598 197,-598 197,-598 197,-598 197,-531.84 197,-531.84"/>
<polygon fill="#971a1a" stroke="#971a1a" stroke-width="1.5" points="199.45,-531.84 197,-524.84 194.55,-531.84 199.45,-531.84"/>
</g>
<!-- djls_bench -->
<g id="node3" class="node">
<title>djls_bench</title>
<polygon fill="#e4d7cd" stroke="#97501a" stroke-width="2" points="479.75,-522 408.25,-522 408.25,-486 479.75,-486 479.75,-522"/>
<text xml:space="preserve" text-anchor="middle" x="444" y="-500.3" font-family="Helvetica,sans-Serif" font-size="11.00">djls&#45;bench</text>
</g>
<!-- djls_corpus -->
<g id="node5" class="node">
<title>djls_corpus</title>
<polygon fill="#dde4cd" stroke="#74971a" stroke-width="2" points="627.62,-428 552.38,-428 552.38,-392 627.62,-392 627.62,-428"/>
<text xml:space="preserve" text-anchor="middle" x="590" y="-406.3" font-family="Helvetica,sans-Serif" font-size="11.00">djls&#45;corpus</text>
</g>
<!-- djls_bench&#45;&gt;djls_corpus -->
<g id="edge3" class="edge">
<title>djls_bench&#45;&gt;djls_corpus</title>
<path fill="none" stroke="#97501a" stroke-width="1.5" stroke-dasharray="5,2" d="M472.62,-485.43C472.62,-458.03 472.62,-410 472.62,-410 472.62,-410 542.3,-410 542.3,-410"/>
<polygon fill="#97501a" stroke="#97501a" stroke-width="1.5" points="542.3,-412.45 549.3,-410 542.3,-407.55 542.3,-412.45"/>
</g>
<!-- djls_ide -->
<g id="node10" class="node">
<title>djls_ide</title>
<polygon fill="#cde4da" stroke="#1a9762" stroke-width="2" points="465.5,-428 410.5,-428 410.5,-392 465.5,-392 465.5,-428"/>
<text xml:space="preserve" text-anchor="middle" x="438" y="-406.3" font-family="Helvetica,sans-Serif" font-size="11.00">djls&#45;ide</text>
</g>
<!-- djls_bench&#45;&gt;djls_ide -->
<g id="edge4" class="edge">
<title>djls_bench&#45;&gt;djls_ide</title>
<path fill="none" stroke="#97501a" stroke-width="1.5" stroke-dasharray="5,2" d="M447.17,-485.43C447.17,-485.43 447.17,-438.12 447.17,-438.12"/>
<polygon fill="#97501a" stroke="#97501a" stroke-width="1.5" points="449.62,-438.12 447.17,-431.12 444.72,-438.12 449.62,-438.12"/>
</g>
<!-- djls_conf -->
<g id="node4" class="node">
<title>djls_conf</title>
<polygon fill="#e4e0cd" stroke="#97851a" stroke-width="2" points="404.88,-146 343.12,-146 343.12,-110 404.88,-110 404.88,-146"/>
<text xml:space="preserve" text-anchor="middle" x="374" y="-124.3" font-family="Helvetica,sans-Serif" font-size="11.00">djls&#45;conf</text>
</g>
<!-- djls_corpus_clap -->
<g id="node6" class="node">
<title>djls_corpus_clap</title>
<polygon fill="#d0d0d0" stroke="#606060" stroke-width="2" points="628,-334 574,-334 574,-298 628,-298 628,-334"/>
<text xml:space="preserve" text-anchor="middle" x="601" y="-312.3" font-family="Helvetica,sans-Serif" font-size="11.00">clap</text>
</g>
<!-- djls_corpus&#45;&gt;djls_corpus_clap -->
<g id="edge5" class="edge">
<title>djls_corpus&#45;&gt;djls_corpus_clap</title>
<path fill="none" stroke="#444444" d="M600.81,-391.43C600.81,-391.43 600.81,-343.37 600.81,-343.37"/>
<polygon fill="#444444" stroke="#444444" points="603.26,-343.37 600.81,-336.37 598.36,-343.37 603.26,-343.37"/>
</g>
<!-- djls_db -->
<g id="node7" class="node">
<title>djls_db</title>
<polygon fill="#d3e4cd" stroke="#3e971a" stroke-width="2" points="346,-428 292,-428 292,-392 346,-392 346,-428"/>
<text xml:space="preserve" text-anchor="middle" x="319" y="-406.3" font-family="Helvetica,sans-Serif" font-size="11.00">djls&#45;db</text>
</g>
<!-- djls_semantic -->
<g id="node14" class="node">
<title>djls_semantic</title>
<polygon fill="#cdd0e4" stroke="#1a2c97" stroke-width="2" points="352.38,-334 263.62,-334 263.62,-298 352.38,-298 352.38,-334"/>
<text xml:space="preserve" text-anchor="middle" x="308" y="-312.3" font-family="Helvetica,sans-Serif" font-size="11.00">djls&#45;semantic</text>
</g>
<!-- djls_db&#45;&gt;djls_semantic -->
<g id="edge6" class="edge">
<title>djls_db&#45;&gt;djls_semantic</title>
<path fill="none" stroke="#3e971a" stroke-width="1.5" stroke-dasharray="5,2" d="M319,-391.43C319,-391.43 319,-344.12 319,-344.12"/>
<polygon fill="#3e971a" stroke="#3e971a" stroke-width="1.5" points="321.45,-344.12 319,-337.12 316.55,-344.12 321.45,-344.12"/>
</g>
<!-- djls_dev -->
<g id="node8" class="node">
<title>djls_dev</title>
<polygon fill="#cde4d0" stroke="#1a972c" stroke-width="2" points="614.38,-616 555.62,-616 555.62,-580 614.38,-580 614.38,-616"/>
<text xml:space="preserve" text-anchor="middle" x="585" y="-594.3" font-family="Helvetica,sans-Serif" font-size="11.00">djls&#45;dev</text>
</g>
<!-- djls_dev_clap -->
<g id="node9" class="node">
<title>djls_dev_clap</title>
<polygon fill="#d0d0d0" stroke="#606060" stroke-width="2" points="612,-522 558,-522 558,-486 612,-486 612,-522"/>
<text xml:space="preserve" text-anchor="middle" x="585" y="-500.3" font-family="Helvetica,sans-Serif" font-size="11.00">clap</text>
</g>
<!-- djls_dev&#45;&gt;djls_dev_clap -->
<g id="edge7" class="edge">
<title>djls_dev&#45;&gt;djls_dev_clap</title>
<path fill="none" stroke="#444444" d="M585,-579.43C585,-579.43 585,-531.37 585,-531.37"/>
<polygon fill="#444444" stroke="#444444" points="587.45,-531.37 585,-524.37 582.55,-531.37 587.45,-531.37"/>
</g>
<!-- djls_ide_tower_lsp_server -->
<g id="node11" class="node">
<title>djls_ide_tower_lsp_server</title>
<polygon fill="#d0d0d0" stroke="#606060" stroke-width="2" points="515.62,-334 410.38,-334 410.38,-298 515.62,-298 515.62,-334"/>
<text xml:space="preserve" text-anchor="middle" x="463" y="-312.3" font-family="Helvetica,sans-Serif" font-size="11.00">tower&#45;lsp&#45;server</text>
</g>
<!-- djls_ide&#45;&gt;djls_ide_tower_lsp_server -->
<g id="edge9" class="edge">
<title>djls_ide&#45;&gt;djls_ide_tower_lsp_server</title>
<path fill="none" stroke="#444444" d="M438,-391.43C438,-391.43 438,-343.37 438,-343.37"/>
<polygon fill="#444444" stroke="#444444" points="440.45,-343.37 438,-336.37 435.55,-343.37 440.45,-343.37"/>
</g>
<!-- djls_ide&#45;&gt;djls_semantic -->
<g id="edge8" class="edge">
<title>djls_ide&#45;&gt;djls_semantic</title>
<path fill="none" stroke="#1a9762" stroke-width="1.5" stroke-dasharray="5,2" d="M409.83,-410C395.19,-410 380.31,-410 380.31,-410 380.31,-410 380.31,-316 380.31,-316 380.31,-316 362.24,-316 362.24,-316"/>
<polygon fill="#1a9762" stroke="#1a9762" stroke-width="1.5" points="362.24,-313.55 355.24,-316 362.24,-318.45 362.24,-313.55"/>
</g>
<!-- djls_project -->
<g id="node12" class="node">
<title>djls_project</title>
<polygon fill="#cde4e4" stroke="#1a9797" stroke-width="2" points="418.38,-240 341.62,-240 341.62,-204 418.38,-204 418.38,-240"/>
<text xml:space="preserve" text-anchor="middle" x="380" y="-218.3" font-family="Helvetica,sans-Serif" font-size="11.00">djls&#45;project</text>
</g>
<!-- djls_project&#45;&gt;djls_conf -->
<g id="edge10" class="edge">
<title>djls_project&#45;&gt;djls_conf</title>
<path fill="none" stroke="#1a9797" stroke-width="1.5" stroke-dasharray="5,2" d="M374,-203.43C374,-203.43 374,-156.12 374,-156.12"/>
<polygon fill="#1a9797" stroke="#1a9797" stroke-width="1.5" points="376.45,-156.12 374,-149.12 371.55,-156.12 376.45,-156.12"/>
</g>
<!-- djls_python -->
<g id="node13" class="node">
<title>djls_python</title>
<polygon fill="#cddae4" stroke="#1a6297" stroke-width="2" points="539.38,-146 462.62,-146 462.62,-110 539.38,-110 539.38,-146"/>
<text xml:space="preserve" text-anchor="middle" x="501" y="-124.3" font-family="Helvetica,sans-Serif" font-size="11.00">djls&#45;python</text>
</g>
<!-- djls_project&#45;&gt;djls_python -->
<g id="edge11" class="edge">
<title>djls_project&#45;&gt;djls_python</title>
<path fill="none" stroke="#1a9797" stroke-width="1.5" stroke-dasharray="5,2" d="M411.62,-203.34C411.62,-177.51 411.62,-134 411.62,-134 411.62,-134 452.53,-134 452.53,-134"/>
<polygon fill="#1a9797" stroke="#1a9797" stroke-width="1.5" points="452.53,-136.45 459.53,-134 452.53,-131.55 452.53,-136.45"/>
</g>
<!-- djls_workspace -->
<g id="node20" class="node">
<title>djls_workspace</title>
<polygon fill="#e4cdd7" stroke="#971a50" stroke-width="2" points="285.5,-146 188.5,-146 188.5,-110 285.5,-110 285.5,-146"/>
<text xml:space="preserve" text-anchor="middle" x="237" y="-124.3" font-family="Helvetica,sans-Serif" font-size="11.00">djls&#45;workspace</text>
</g>
<!-- djls_project&#45;&gt;djls_workspace -->
<g id="edge12" class="edge">
<title>djls_project&#45;&gt;djls_workspace</title>
<path fill="none" stroke="#1a9797" stroke-width="1.5" stroke-dasharray="5,2" d="M340.77,-228C322.28,-228 304.21,-228 304.21,-228 304.21,-228 304.21,-134 304.21,-134 304.21,-134 295.47,-134 295.47,-134"/>
<polygon fill="#1a9797" stroke="#1a9797" stroke-width="1.5" points="295.47,-131.55 288.47,-134 295.47,-136.45 295.47,-131.55"/>
</g>
<!-- djls_source -->
<g id="node18" class="node">
<title>djls_source</title>
<polygon fill="#ddcde4" stroke="#741a97" stroke-width="2" points="467.62,-52 392.38,-52 392.38,-16 467.62,-16 467.62,-52"/>
<text xml:space="preserve" text-anchor="middle" x="430" y="-30.3" font-family="Helvetica,sans-Serif" font-size="11.00">djls&#45;source</text>
</g>
<!-- djls_python&#45;&gt;djls_source -->
<g id="edge13" class="edge">
<title>djls_python&#45;&gt;djls_source</title>
<path fill="none" stroke="#1a6297" stroke-width="1.5" stroke-dasharray="5,2" d="M461.66,-122C450.1,-122 440.5,-122 440.5,-122 440.5,-122 440.5,-61.93 440.5,-61.93"/>
<polygon fill="#1a6297" stroke="#1a6297" stroke-width="1.5" points="442.95,-61.93 440.5,-54.93 438.05,-61.93 442.95,-61.93"/>
</g>
<!-- djls_semantic&#45;&gt;djls_project -->
<g id="edge14" class="edge">
<title>djls_semantic&#45;&gt;djls_project</title>
<path fill="none" stroke="#1a2c97" stroke-width="1.5" stroke-dasharray="5,2" d="M347,-297.43C347,-297.43 347,-250.12 347,-250.12"/>
<polygon fill="#1a2c97" stroke="#1a2c97" stroke-width="1.5" points="349.45,-250.12 347,-243.12 344.55,-250.12 349.45,-250.12"/>
</g>
<!-- djls_templates -->
<g id="node19" class="node">
<title>djls_templates</title>
<polygon fill="#e4cde0" stroke="#971a85" stroke-width="2" points="284,-240 190,-240 190,-204 284,-204 284,-240"/>
<text xml:space="preserve" text-anchor="middle" x="237" y="-218.3" font-family="Helvetica,sans-Serif" font-size="11.00">djls&#45;templates</text>
</g>
<!-- djls_semantic&#45;&gt;djls_templates -->
<g id="edge15" class="edge">
<title>djls_semantic&#45;&gt;djls_templates</title>
<path fill="none" stroke="#1a2c97" stroke-width="1.5" stroke-dasharray="5,2" d="M273.81,-297.43C273.81,-297.43 273.81,-250.12 273.81,-250.12"/>
<polygon fill="#1a2c97" stroke="#1a2c97" stroke-width="1.5" points="276.26,-250.12 273.81,-243.12 271.36,-250.12 276.26,-250.12"/>
</g>
<!-- djls_server&#45;&gt;djls_db -->
<g id="edge16" class="edge">
<title>djls_server&#45;&gt;djls_db</title>
<path fill="none" stroke="#3e1a97" stroke-width="1.5" stroke-dasharray="5,2" d="M234.61,-504C242.64,-504 248.75,-504 248.75,-504 248.75,-504 248.75,-410 248.75,-410 248.75,-410 281.97,-410 281.97,-410"/>
<polygon fill="#3e1a97" stroke="#3e1a97" stroke-width="1.5" points="281.97,-412.45 288.97,-410 281.96,-407.55 281.97,-412.45"/>
</g>
<!-- djls_server&#45;&gt;djls_ide -->
<g id="edge17" class="edge">
<title>djls_server&#45;&gt;djls_ide</title>
<path fill="none" stroke="#3e1a97" stroke-width="1.5" stroke-dasharray="5,2" d="M209.12,-485.15C209.12,-472.08 209.12,-457 209.12,-457 209.12,-457 428.83,-457 428.83,-457 428.83,-457 428.83,-438.12 428.83,-438.12"/>
<polygon fill="#3e1a97" stroke="#3e1a97" stroke-width="1.5" points="431.28,-438.12 428.83,-431.12 426.38,-438.12 431.28,-438.12"/>
</g>
<!-- djls_server_tokio -->
<g id="node16" class="node">
<title>djls_server_tokio</title>
<polygon fill="#d0d0d0" stroke="#606060" stroke-width="2" points="70,-428 16,-428 16,-392 70,-392 70,-428"/>
<text xml:space="preserve" text-anchor="middle" x="43" y="-406.3" font-family="Helvetica,sans-Serif" font-size="11.00">tokio</text>
</g>
<!-- djls_server&#45;&gt;djls_server_tokio -->
<g id="edge18" class="edge">
<title>djls_server&#45;&gt;djls_server_tokio</title>
<path fill="none" stroke="#444444" d="M159.33,-504C113.74,-504 43,-504 43,-504 43,-504 43,-437.08 43,-437.08"/>
<polygon fill="#444444" stroke="#444444" points="45.45,-437.08 43,-430.08 40.55,-437.08 45.45,-437.08"/>
</g>
<!-- djls_server_tower_lsp_server -->
<g id="node17" class="node">
<title>djls_server_tower_lsp_server</title>
<polygon fill="#d0d0d0" stroke="#606060" stroke-width="2" points="233.62,-428 128.38,-428 128.38,-392 233.62,-392 233.62,-428"/>
<text xml:space="preserve" text-anchor="middle" x="181" y="-406.3" font-family="Helvetica,sans-Serif" font-size="11.00">tower&#45;lsp&#45;server</text>
</g>
<!-- djls_server&#45;&gt;djls_server_tower_lsp_server -->
<g id="edge19" class="edge">
<title>djls_server&#45;&gt;djls_server_tower_lsp_server</title>
<path fill="none" stroke="#444444" d="M184.62,-485.43C184.62,-485.43 184.62,-437.37 184.62,-437.37"/>
<polygon fill="#444444" stroke="#444444" points="187.08,-437.37 184.63,-430.37 182.18,-437.37 187.08,-437.37"/>
</g>
<!-- djls_templates&#45;&gt;djls_conf -->
<g id="edge20" class="edge">
<title>djls_templates&#45;&gt;djls_conf</title>
<path fill="none" stroke="#971a85" stroke-width="1.5" stroke-dasharray="5,2" d="M284.98,-216C304.66,-216 322.92,-216 322.92,-216 322.92,-216 322.92,-122 322.92,-122 322.92,-122 332.96,-122 332.96,-122"/>
<polygon fill="#971a85" stroke="#971a85" stroke-width="1.5" points="332.96,-124.45 339.96,-122 332.96,-119.55 332.96,-124.45"/>
</g>
<!-- djls_templates&#45;&gt;djls_workspace -->
<g id="edge21" class="edge">
<title>djls_templates&#45;&gt;djls_workspace</title>
<path fill="none" stroke="#971a85" stroke-width="1.5" stroke-dasharray="5,2" d="M237,-203.43C237,-203.43 237,-156.12 237,-156.12"/>
<polygon fill="#971a85" stroke="#971a85" stroke-width="1.5" points="239.45,-156.12 237,-149.12 234.55,-156.12 239.45,-156.12"/>
</g>
<!-- djls_workspace&#45;&gt;djls_source -->
<g id="edge22" class="edge">
<title>djls_workspace&#45;&gt;djls_source</title>
<path fill="none" stroke="#971a50" stroke-width="1.5" stroke-dasharray="5,2" d="M274.75,-109.43C274.75,-82.03 274.75,-34 274.75,-34 274.75,-34 382.35,-34 382.35,-34"/>
<polygon fill="#971a50" stroke="#971a50" stroke-width="1.5" points="382.35,-36.45 389.35,-34 382.35,-31.55 382.35,-36.45"/>
</g>
<!-- djls_workspace_tokio -->
<g id="node21" class="node">
<title>djls_workspace_tokio</title>
<polygon fill="#d0d0d0" stroke="#606060" stroke-width="2" points="264,-52 210,-52 210,-16 264,-16 264,-52"/>
<text xml:space="preserve" text-anchor="middle" x="237" y="-30.3" font-family="Helvetica,sans-Serif" font-size="11.00">tokio</text>
</g>
<!-- djls_workspace&#45;&gt;djls_workspace_tokio -->
<g id="edge23" class="edge">
<title>djls_workspace&#45;&gt;djls_workspace_tokio</title>
<path fill="none" stroke="#444444" d="M237,-109.43C237,-109.43 237,-61.37 237,-61.37"/>
<polygon fill="#444444" stroke="#444444" points="239.45,-61.37 237,-54.37 234.55,-61.37 239.45,-61.37"/>
</g>

<polygon fill="#971a1a" stroke="#971a1a" points="241.50,-598.00 246.50,-594.50 246.50,-601.50"/>
<polygon fill="#1a9762" stroke="#1a9762" points="380.31,-360.50 383.81,-365.50 376.81,-365.50"/>
<polygon fill="#1a9797" stroke="#1a9797" points="304.21,-178.50 307.71,-183.50 300.71,-183.50"/>
<polygon fill="#3e1a97" stroke="#3e1a97" points="248.75,-454.50 252.25,-459.50 245.25,-459.50"/>
<polygon fill="#3e1a97" stroke="#3e1a97" points="255.56,-457.00 250.56,-460.50 250.56,-453.50"/>
<polygon fill="#3e1a97" stroke="#3e1a97" points="321.48,-457.00 316.48,-460.50 316.48,-453.50"/>
<polygon fill="#971a85" stroke="#971a85" points="322.92,-166.50 326.42,-171.50 319.42,-171.50"/>
<polygon fill="#971a50" stroke="#971a50" points="331.05,-34.00 326.05,-37.50 326.05,-30.50"/>
</g>
</svg>
