<?xml version="1.0" encoding="UTF-8" standalone="no"?>
<!DOCTYPE svg PUBLIC "-//W3C//DTD SVG 1.1//EN"
 "http://www.w3.org/Graphics/SVG/1.1/DTD/svg11.dtd">
<!-- Generated by graphviz version 14.1.1 (0)
 -->
<!-- Title: dependencies Pages: 1 -->
<svg width="1320pt" height="1369pt"
 viewBox="0.00 0.00 1320.00 1369.00" xmlns="http://www.w3.org/2000/svg" xmlns:xlink="http://www.w3.org/1999/xlink">
<g id="graph0" class="graph" transform="scale(1 1) rotate(0) translate(4 1364.5)">
<title>dependencies</title>
<polygon fill="#f8f9fa" stroke="none" points="-4,4 -4,-1364.5 1316,-1364.5 1316,4 -4,4"/>
<g id="clust1" class="cluster">
<title>cluster_djls_app</title>
<path fill="#e4cdcd" stroke="#971a1a" stroke-width="2" d="M505,-1277.5C505,-1277.5 551,-1277.5 551,-1277.5 557,-1277.5 563,-1283.5 563,-1289.5 563,-1289.5 563,-1340.5 563,-1340.5 563,-1346.5 557,-1352.5 551,-1352.5 551,-1352.5 505,-1352.5 505,-1352.5 499,-1352.5 493,-1346.5 493,-1340.5 493,-1340.5 493,-1289.5 493,-1289.5 493,-1283.5 499,-1277.5 505,-1277.5"/>
<text xml:space="preserve" text-anchor="middle" x="528" y="-1335.2" font-family="Helvetica Bold" font-size="14.00">djls&#45;app</text>
</g>
<g id="clust2" class="cluster">
<title>cluster_djls_bench</title>
<path fill="#e4d7cd" stroke="#97501a" stroke-width="2" d="M264,-1183.5C264,-1183.5 328,-1183.5 328,-1183.5 334,-1183.5 340,-1189.5 340,-1195.5 340,-1195.5 340,-1246.5 340,-1246.5 340,-1252.5 334,-1258.5 328,-1258.5 328,-1258.5 264,-1258.5 264,-1258.5 258,-1258.5 252,-1252.5 252,-1246.5 252,-1246.5 252,-1195.5 252,-1195.5 252,-1189.5 258,-1183.5 264,-1183.5"/>
<text xml:space="preserve" text-anchor="middle" x="296" y="-1241.2" font-family="Helvetica Bold" font-size="14.00">djls&#45;bench</text>
</g>
<g id="clust3" class="cluster">
<title>cluster_djls_conf</title>
<path fill="#e4e0cd" stroke="#97851a" stroke-width="2" d="M859,-302.38C859,-302.38 913,-302.38 913,-302.38 919,-302.38 925,-308.38 925,-314.38 925,-314.38 925,-365.38 925,-365.38 925,-371.38 919,-377.38 913,-377.38 913,-377.38 859,-377.38 859,-377.38 853,-377.38 847,-371.38 847,-365.38 847,-365.38 847,-314.38 847,-314.38 847,-308.38 853,-302.38 859,-302.38"/>
<text xml:space="preserve" text-anchor="middle" x="886" y="-360.07" font-family="Helvetica Bold" font-size="14.00">djls&#45;conf</text>
</g>
<g id="clust4" class="cluster">
<title>cluster_djls_corpus</title>
<path fill="#dde4cd" stroke="#74971a" stroke-width="2" d="M136,-1052.25C136,-1052.25 204,-1052.25 204,-1052.25 210,-1052.25 216,-1058.25 216,-1064.25 216,-1064.25 216,-1115.25 216,-1115.25 216,-1121.25 210,-1127.25 204,-1127.25 204,-1127.25 136,-1127.25 136,-1127.25 130,-1127.25 124,-1121.25 124,-1115.25 124,-1115.25 124,-1064.25 124,-1064.25 124,-1058.25 130,-1052.25 136,-1052.25"/>
<text xml:space="preserve" text-anchor="middle" x="170" y="-1109.95" font-family="Helvetica Bold" font-size="14.00">djls&#45;corpus</text>
</g>
<g id="clust5" class="cluster">
<title>cluster_djls_db</title>
<path fill="#d3e4cd" stroke="#3e971a" stroke-width="2" d="M738,-1015C738,-1015 920,-1015 920,-1015 926,-1015 932,-1021 932,-1027 932,-1027 932,-1152.5 932,-1152.5 932,-1158.5 926,-1164.5 920,-1164.5 920,-1164.5 738,-1164.5 738,-1164.5 732,-1164.5 726,-1158.5 726,-1152.5 726,-1152.5 726,-1027 726,-1027 726,-1021 732,-1015 738,-1015"/>
<text xml:space="preserve" text-anchor="middle" x="829" y="-1147.2" font-family="Helvetica Bold" font-size="14.00">djls&#45;db</text>
</g>
<g id="clust6" class="cluster">
<title>cluster_djls_dev</title>
<path fill="#cde4d0" stroke="#1a972c" stroke-width="2" d="M20,-1052.25C20,-1052.25 70,-1052.25 70,-1052.25 76,-1052.25 82,-1058.25 82,-1064.25 82,-1064.25 82,-1115.25 82,-1115.25 82,-1121.25 76,-1127.25 70,-1127.25 70,-1127.25 20,-1127.25 20,-1127.25 14,-1127.25 8,-1121.25 8,-1115.25 8,-1115.25 8,-1064.25 8,-1064.25 8,-1058.25 14,-1052.25 20,-1052.25"/>
<text xml:space="preserve" text-anchor="middle" x="45" y="-1109.95" font-family="Helvetica Bold" font-size="14.00">djls&#45;dev</text>
</g>
<g id="clust7" class="cluster">
<title>cluster_djls_ide</title>
<path fill="#cde4da" stroke="#1a9762" stroke-width="2" d="M388,-1052.25C388,-1052.25 436,-1052.25 436,-1052.25 442,-1052.25 448,-1058.25 448,-1064.25 448,-1064.25 448,-1115.25 448,-1115.25 448,-1121.25 442,-1127.25 436,-1127.25 436,-1127.25 388,-1127.25 388,-1127.25 382,-1127.25 376,-1121.25 376,-1115.25 376,-1115.25 376,-1064.25 376,-1064.25 376,-1058.25 382,-1052.25 388,-1052.25"/>
<text xml:space="preserve" text-anchor="middle" x="412" y="-1109.95" font-family="Helvetica Bold" font-size="14.00">djls&#45;ide</text>
</g>
<g id="clust8" class="cluster">
<title>cluster_djls_project</title>
<path fill="#cde4e4" stroke="#1a9797" stroke-width="2" d="M729,-444.25C729,-444.25 865,-444.25 865,-444.25 871,-444.25 877,-450.25 877,-456.25 877,-456.25 877,-581.75 877,-581.75 877,-587.75 871,-593.75 865,-593.75 865,-593.75 729,-593.75 729,-593.75 723,-593.75 717,-587.75 717,-581.75 717,-581.75 717,-456.25 717,-456.25 717,-450.25 723,-444.25 729,-444.25"/>
<text xml:space="preserve" text-anchor="middle" x="797" y="-576.45" font-family="Helvetica Bold" font-size="14.00">djls&#45;project</text>
</g>
<g id="clust9" class="cluster">
<title>cluster_djls_python</title>
<path fill="#cddae4" stroke="#1a6297" stroke-width="2" d="M633,-254.5C633,-254.5 793,-254.5 793,-254.5 799,-254.5 805,-260.5 805,-266.5 805,-266.5 805,-413.25 805,-413.25 805,-419.25 799,-425.25 793,-425.25 793,-425.25 633,-425.25 633,-425.25 627,-425.25 621,-419.25 621,-413.25 621,-413.25 621,-266.5 621,-266.5 621,-260.5 627,-254.5 633,-254.5"/>
<text xml:space="preserve" text-anchor="middle" x="713" y="-407.95" font-family="Helvetica Bold" font-size="14.00">djls&#45;python</text>
</g>
<g id="clust10" class="cluster">
<title>cluster_djls_semantic</title>
<path fill="#cdd0e4" stroke="#1a2c97" stroke-width="2" d="M699,-612.75C699,-612.75 895,-612.75 895,-612.75 901,-612.75 907,-618.75 907,-624.75 907,-624.75 907,-984 907,-984 907,-990 901,-996 895,-996 895,-996 699,-996 699,-996 693,-996 687,-990 687,-984 687,-984 687,-624.75 687,-624.75 687,-618.75 693,-612.75 699,-612.75"/>
<text xml:space="preserve" text-anchor="middle" x="797" y="-978.7" font-family="Helvetica Bold" font-size="14.00">djls&#45;semantic</text>
</g>
<g id="clust11" class="cluster">
<title>cluster_djls_server</title>
<path fill="#d3cde4" stroke="#3e1a97" stroke-width="2" d="M495,-1183.5C495,-1183.5 561,-1183.5 561,-1183.5 567,-1183.5 573,-1189.5 573,-1195.5 573,-1195.5 573,-1246.5 573,-1246.5 573,-1252.5 567,-1258.5 561,-1258.5 561,-1258.5 495,-1258.5 495,-1258.5 489,-1258.5 483,-1252.5 483,-1246.5 483,-1246.5 483,-1195.5 483,-1195.5 483,-1189.5 489,-1183.5 495,-1183.5"/>
<text xml:space="preserve" text-anchor="middle" x="528" y="-1241.2" font-family="Helvetica Bold" font-size="14.00">djls&#45;server</text>
</g>
<g id="clust12" class="cluster">
<title>cluster_djls_source</title>
<path fill="#ddcde4" stroke="#741a97" stroke-width="2" d="M778,-86C778,-86 884,-86 884,-86 890,-86 896,-92 896,-98 896,-98 896,-223.5 896,-223.5 896,-229.5 890,-235.5 884,-235.5 884,-235.5 778,-235.5 778,-235.5 772,-235.5 766,-229.5 766,-223.5 766,-223.5 766,-98 766,-98 766,-92 772,-86 778,-86"/>
<text xml:space="preserve" text-anchor="middle" x="831" y="-218.2" font-family="Helvetica Bold" font-size="14.00">djls&#45;source</text>
</g>
<g id="clust13" class="cluster">
<title>cluster_djls_templates</title>
<path fill="#e4cde0" stroke="#971a85" stroke-width="2" d="M931,-444.25C931,-444.25 1123,-444.25 1123,-444.25 1129,-444.25 1135,-450.25 1135,-456.25 1135,-456.25 1135,-581.75 1135,-581.75 1135,-587.75 1129,-593.75 1123,-593.75 1123,-593.75 931,-593.75 931,-593.75 925,-593.75 919,-587.75 919,-581.75 919,-581.75 919,-456.25 919,-456.25 919,-450.25 925,-444.25 931,-444.25"/>
<text xml:space="preserve" text-anchor="middle" x="1027" y="-576.45" font-family="Helvetica Bold" font-size="14.00">djls&#45;templates</text>
</g>
<g id="clust14" class="cluster">
<title>cluster_djls_workspace</title>
<path fill="#e4cdd7" stroke="#971a50" stroke-width="2" d="M978,-297C978,-297 1076,-297 1076,-297 1082,-297 1088,-303 1088,-309 1088,-309 1088,-370.75 1088,-370.75 1088,-376.75 1082,-382.75 1076,-382.75 1076,-382.75 978,-382.75 978,-382.75 972,-382.75 966,-376.75 966,-370.75 966,-370.75 966,-309 966,-309 966,-303 972,-297 978,-297"/>
<text xml:space="preserve" text-anchor="middle" x="1027" y="-365.45" font-family="Helvetica Bold" font-size="14.00">djls&#45;workspace</text>
</g>
<!-- djls -->
<g id="node1" class="node">
<title>djls</title>
<polygon fill="#e4cdcd" stroke="#971a1a" stroke-width="2" points="555,-1321.5 501,-1321.5 501,-1285.5 555,-1285.5 555,-1321.5"/>
<text xml:space="preserve" text-anchor="middle" x="528" y="-1299.8" font-family="Helvetica,sans-Serif" font-size="11.00">djls</text>
</g>
<!-- djls_server -->
<g id="node11" class="node">
<title>djls_server</title>
<polygon fill="#d3cde4" stroke="#3e1a97" stroke-width="2" points="564.88,-1227.5 491.12,-1227.5 491.12,-1191.5 564.88,-1191.5 564.88,-1227.5"/>
<text xml:space="preserve" text-anchor="middle" x="528" y="-1205.8" font-family="Helvetica,sans-Serif" font-size="11.00">djls&#45;server</text>
</g>
<!-- djls&#45;&gt;djls_server -->
<g id="edge2" class="edge">
<title>djls&#45;&gt;djls_server</title>
<path fill="none" stroke="#971a1a" stroke-width="1.5" stroke-dasharray="5,2" d="M528,-1284.93C528,-1284.93 528,-1237.62 528,-1237.62"/>
<polygon fill="#971a1a" stroke="#971a1a" stroke-width="1.5" points="530.45,-1237.62 528,-1230.62 525.55,-1237.62 530.45,-1237.62"/>
</g>
<!-- ext_clap -->
<g id="node15" class="node">
<title>ext_clap</title>
<polygon fill="#d0d0d0" stroke="#606060" stroke-width="2" points="72,-810.88 18,-810.88 18,-774.88 72,-774.88 72,-810.88"/>
<text xml:space="preserve" text-anchor="middle" x="45" y="-789.17" font-family="Helvetica,sans-Serif" font-size="11.00">clap</text>
</g>
<!-- djls&#45;&gt;ext_clap -->
<g id="edge1" class="edge">
<title>djls&#45;&gt;ext_clap</title>
<path fill="none" stroke="#444444" d="M500.33,-1304C452.19,-1304 358.12,-1304 358.12,-1304 358.12,-1304 358.12,-787 358.12,-787 358.12,-787 81.3,-787 81.3,-787"/>
<polygon fill="#444444" stroke="#444444" points="81.3,-784.55 74.3,-787 81.3,-789.45 81.3,-784.55"/>
</g>
<!-- djls_bench -->
<g id="node2" class="node">
<title>djls_bench</title>
<polygon fill="#e4d7cd" stroke="#97501a" stroke-width="2" points="331.75,-1227.5 260.25,-1227.5 260.25,-1191.5 331.75,-1191.5 331.75,-1227.5"/>
<text xml:space="preserve" text-anchor="middle" x="296" y="-1205.8" font-family="Helvetica,sans-Serif" font-size="11.00">djls&#45;bench</text>
</g>
<!-- djls_corpus -->
<g id="node4" class="node">
<title>djls_corpus</title>
<polygon fill="#dde4cd" stroke="#74971a" stroke-width="2" points="207.62,-1096.25 132.38,-1096.25 132.38,-1060.25 207.62,-1060.25 207.62,-1096.25"/>
<text xml:space="preserve" text-anchor="middle" x="170" y="-1074.55" font-family="Helvetica,sans-Serif" font-size="11.00">djls&#45;corpus</text>
</g>
<!-- djls_bench&#45;&gt;djls_corpus -->
<g id="edge3" class="edge">
<title>djls_bench&#45;&gt;djls_corpus</title>
<path fill="none" stroke="#97501a" stroke-width="1.5" stroke-dasharray="5,2" d="M284.08,-1190.66C284.08,-1154.3 284.08,-1078 284.08,-1078 284.08,-1078 217.89,-1078 217.89,-1078"/>
<polygon fill="#97501a" stroke="#97501a" stroke-width="1.5" points="217.89,-1075.55 210.89,-1078 217.89,-1080.45 217.89,-1075.55"/>
</g>
<!-- djls_ide -->
<g id="node7" class="node">
<title>djls_ide</title>
<polygon fill="#cde4da" stroke="#1a9762" stroke-width="2" points="439.5,-1096.25 384.5,-1096.25 384.5,-1060.25 439.5,-1060.25 439.5,-1096.25"/>
<text xml:space="preserve" text-anchor="middle" x="412" y="-1074.55" font-family="Helvetica,sans-Serif" font-size="11.00">djls&#45;ide</text>
</g>
<!-- djls_bench&#45;&gt;djls_ide -->
<g id="edge4" class="edge">
<title>djls_bench&#45;&gt;djls_ide</title>
<path fill="none" stroke="#97501a" stroke-width="1.5" stroke-dasharray="5,2" d="M332.7,-1210C366.69,-1210 412,-1210 412,-1210 412,-1210 412,-1106.4 412,-1106.4"/>
<polygon fill="#97501a" stroke="#97501a" stroke-width="1.5" points="414.45,-1106.4 412,-1099.4 409.55,-1106.4 414.45,-1106.4"/>
</g>
<!-- ext_salsa -->
<g id="node16" class="node">
<title>ext_salsa</title>
<polygon fill="#d0d0d0" stroke="#606060" stroke-width="2" points="713,-36 659,-36 659,0 713,0 713,-36"/>
<text xml:space="preserve" text-anchor="middle" x="686" y="-14.3" font-family="Helvetica,sans-Serif" font-size="11.00">salsa</text>
</g>
<!-- djls_bench&#45;&gt;ext_salsa -->
<g id="edge5" class="edge">
<title>djls_bench&#45;&gt;ext_salsa</title>
<path fill="none" stroke="#444444" d="M307.92,-1190.64C307.92,-1037.91 307.92,-9 307.92,-9 307.92,-9 649.69,-9 649.69,-9"/>
<polygon fill="#444444" stroke="#444444" points="649.69,-11.45 656.69,-9 649.69,-6.55 649.69,-11.45"/>
</g>
<!-- djls_conf -->
<g id="node3" class="node">
<title>djls_conf</title>
<polygon fill="#e4e0cd" stroke="#97851a" stroke-width="2" points="916.88,-346.38 855.12,-346.38 855.12,-310.38 916.88,-310.38 916.88,-346.38"/>
<text xml:space="preserve" text-anchor="middle" x="886" y="-324.68" font-family="Helvetica,sans-Serif" font-size="11.00">djls&#45;conf</text>
</g>
<!-- djls_corpus&#45;&gt;ext_clap -->
<g id="edge6" class="edge">
<title>djls_corpus&#45;&gt;ext_clap</title>
<path fill="none" stroke="#444444" d="M170,-1059.49C170,-996.88 170,-799 170,-799 170,-799 81.26,-799 81.26,-799"/>
<polygon fill="#444444" stroke="#444444" points="81.26,-796.55 74.26,-799 81.26,-801.45 81.26,-796.55"/>
</g>
<!-- djls_db -->
<g id="node5" class="node">
<title>djls_db</title>
<polygon fill="#d3e4cd" stroke="none" stroke-width="2" points="923.88,-1133.5 734.12,-1133.5 734.12,-1023 923.88,-1023 923.88,-1133.5"/>
<polygon fill="#d3e4cd" stroke="none" points="736.12,-1110 736.12,-1131.5 921.88,-1131.5 921.88,-1110 736.12,-1110"/>
<text xml:space="preserve" text-anchor="start" x="808.38" y="-1118.05" font-family="Helvetica,sans-Serif" font-weight="bold" font-size="11.00">djls&#45;db</text>
<text xml:space="preserve" text-anchor="start" x="740.12" y="-1096.45" font-family="Helvetica,sans-Serif" font-size="9.00">compute_filter_arity_specs </text>
<text xml:space="preserve" text-anchor="start" x="863.88" y="-1096.45" font-family="Helvetica,sans-Serif" font-style="italic" font-size="9.00">(tracked fn)</text>
<text xml:space="preserve" text-anchor="start" x="740.12" y="-1075.2" font-family="Helvetica,sans-Serif" font-size="9.00">compute_model_graph </text>
<text xml:space="preserve" text-anchor="start" x="847.38" y="-1075.2" font-family="Helvetica,sans-Serif" font-style="italic" font-size="9.00">(tracked fn)</text>
<text xml:space="preserve" text-anchor="start" x="740.12" y="-1053.95" font-family="Helvetica,sans-Serif" font-size="9.00">compute_tag_index </text>
<text xml:space="preserve" text-anchor="start" x="832.38" y="-1053.95" font-family="Helvetica,sans-Serif" font-style="italic" font-size="9.00">(tracked fn)</text>
<text xml:space="preserve" text-anchor="start" x="740.12" y="-1032.7" font-family="Helvetica,sans-Serif" font-size="9.00">compute_tag_specs </text>
<text xml:space="preserve" text-anchor="start" x="833.12" y="-1032.7" font-family="Helvetica,sans-Serif" font-style="italic" font-size="9.00">(tracked fn)</text>
</g>
<!-- djls_semantic -->
<g id="node10" class="node">
<title>djls_semantic</title>
<polygon fill="#cdd0e4" stroke="none" stroke-width="2" points="898.62,-965 695.38,-965 695.38,-620.75 898.62,-620.75 898.62,-965"/>
<polygon fill="#cdd0e4" stroke="none" points="697.38,-941.5 697.38,-963 896.62,-963 896.62,-941.5 697.38,-941.5"/>
<text xml:space="preserve" text-anchor="start" x="755.75" y="-949.55" font-family="Helvetica,sans-Serif" font-weight="bold" font-size="11.00">djls&#45;semantic</text>
<text xml:space="preserve" text-anchor="start" x="701.38" y="-927.95" font-family="Helvetica,sans-Serif" font-size="9.00">BlockTree </text>
<text xml:space="preserve" text-anchor="start" x="747.12" y="-927.95" font-family="Helvetica,sans-Serif" font-style="italic" font-size="9.00">(tracked)</text>
<text xml:space="preserve" text-anchor="start" x="701.38" y="-906.7" font-family="Helvetica,sans-Serif" font-size="9.00">Db </text>
<text xml:space="preserve" text-anchor="start" x="717.12" y="-906.7" font-family="Helvetica,sans-Serif" font-style="italic" font-size="9.00">(db trait)</text>
<text xml:space="preserve" text-anchor="start" x="701.38" y="-885.45" font-family="Helvetica,sans-Serif" font-size="9.00">SemanticForest </text>
<text xml:space="preserve" text-anchor="start" x="774.12" y="-885.45" font-family="Helvetica,sans-Serif" font-style="italic" font-size="9.00">(tracked)</text>
<text xml:space="preserve" text-anchor="start" x="701.38" y="-864.2" font-family="Helvetica,sans-Serif" font-size="9.00">Tag </text>
<text xml:space="preserve" text-anchor="start" x="719.38" y="-864.2" font-family="Helvetica,sans-Serif" font-style="italic" font-size="9.00">(tracked)</text>
<text xml:space="preserve" text-anchor="start" x="701.38" y="-842.95" font-family="Helvetica,sans-Serif" font-size="9.00">TagIndex </text>
<text xml:space="preserve" text-anchor="start" x="744.88" y="-842.95" font-family="Helvetica,sans-Serif" font-style="italic" font-size="9.00">(tracked)</text>
<text xml:space="preserve" text-anchor="start" x="701.38" y="-821.7" font-family="Helvetica,sans-Serif" font-size="9.00">Template </text>
<text xml:space="preserve" text-anchor="start" x="744.88" y="-821.7" font-family="Helvetica,sans-Serif" font-style="italic" font-size="9.00">(tracked)</text>
<text xml:space="preserve" text-anchor="start" x="701.38" y="-800.45" font-family="Helvetica,sans-Serif" font-size="9.00">TemplateName </text>
<text xml:space="preserve" text-anchor="start" x="771.12" y="-800.45" font-family="Helvetica,sans-Serif" font-style="italic" font-size="9.00">(interned)</text>
<text xml:space="preserve" text-anchor="start" x="701.38" y="-779.2" font-family="Helvetica,sans-Serif" font-size="9.00">TemplateReference </text>
<text xml:space="preserve" text-anchor="start" x="789.88" y="-779.2" font-family="Helvetica,sans-Serif" font-style="italic" font-size="9.00">(tracked)</text>
<text xml:space="preserve" text-anchor="start" x="701.38" y="-757.95" font-family="Helvetica,sans-Serif" font-size="9.00">ValidationErrorAccumulator </text>
<text xml:space="preserve" text-anchor="start" x="828.12" y="-757.95" font-family="Helvetica,sans-Serif" font-style="italic" font-size="9.00">(accumulator)</text>
<text xml:space="preserve" text-anchor="start" x="701.38" y="-736.7" font-family="Helvetica,sans-Serif" font-size="9.00">build_block_tree </text>
<text xml:space="preserve" text-anchor="start" x="777.88" y="-736.7" font-family="Helvetica,sans-Serif" font-style="italic" font-size="9.00">(tracked fn)</text>
<text xml:space="preserve" text-anchor="start" x="701.38" y="-715.45" font-family="Helvetica,sans-Serif" font-size="9.00">build_semantic_forest </text>
<text xml:space="preserve" text-anchor="start" x="802.62" y="-715.45" font-family="Helvetica,sans-Serif" font-style="italic" font-size="9.00">(tracked fn)</text>
<text xml:space="preserve" text-anchor="start" x="701.38" y="-694.2" font-family="Helvetica,sans-Serif" font-size="9.00">compute_loaded_libraries </text>
<text xml:space="preserve" text-anchor="start" x="819.12" y="-694.2" font-family="Helvetica,sans-Serif" font-style="italic" font-size="9.00">(tracked fn)</text>
<text xml:space="preserve" text-anchor="start" x="701.38" y="-672.95" font-family="Helvetica,sans-Serif" font-size="9.00">discover_templates </text>
<text xml:space="preserve" text-anchor="start" x="791.38" y="-672.95" font-family="Helvetica,sans-Serif" font-style="italic" font-size="9.00">(tracked fn)</text>
<text xml:space="preserve" text-anchor="start" x="701.38" y="-651.7" font-family="Helvetica,sans-Serif" font-size="9.00">find_template </text>
<text xml:space="preserve" text-anchor="start" x="767.38" y="-651.7" font-family="Helvetica,sans-Serif" font-style="italic" font-size="9.00">(tracked fn)</text>
<text xml:space="preserve" text-anchor="start" x="701.38" y="-630.45" font-family="Helvetica,sans-Serif" font-size="9.00">validate_nodelist </text>
<text xml:space="preserve" text-anchor="start" x="779.38" y="-630.45" font-family="Helvetica,sans-Serif" font-style="italic" font-size="9.00">(tracked fn)</text>
</g>
<!-- djls_db&#45;&gt;djls_semantic -->
<g id="edge7" class="edge">
<title>djls_db&#45;&gt;djls_semantic</title>
<path fill="none" stroke="#3e971a" stroke-width="1.5" stroke-dasharray="5,2" d="M816.38,-1023.23C816.38,-1023.23 816.38,-973.99 816.38,-973.99"/>
<polygon fill="#3e971a" stroke="#3e971a" stroke-width="1.5" points="818.83,-973.99 816.38,-966.99 813.93,-973.99 818.83,-973.99"/>
</g>
<!-- djls_db&#45;&gt;ext_salsa -->
<g id="edge8" class="edge">
<title>djls_db&#45;&gt;ext_salsa</title>
<path fill="none" stroke="#444444" d="M920.38,-1023.32C920.38,-806.51 920.38,-22 920.38,-22 920.38,-22 722.32,-22 722.32,-22"/>
<polygon fill="#444444" stroke="#444444" points="722.32,-19.55 715.32,-22 722.32,-24.45 722.32,-19.55"/>
</g>
<!-- djls_dev -->
<g id="node6" class="node">
<title>djls_dev</title>
<polygon fill="#cde4d0" stroke="#1a972c" stroke-width="2" points="74.38,-1096.25 15.62,-1096.25 15.62,-1060.25 74.38,-1060.25 74.38,-1096.25"/>
<text xml:space="preserve" text-anchor="middle" x="45" y="-1074.55" font-family="Helvetica,sans-Serif" font-size="11.00">djls&#45;dev</text>
</g>
<!-- djls_dev&#45;&gt;ext_clap -->
<g id="edge9" class="edge">
<title>djls_dev&#45;&gt;ext_clap</title>
<path fill="none" stroke="#444444" d="M45,-1059.53C45,-1059.53 45,-820.18 45,-820.18"/>
<polygon fill="#444444" stroke="#444444" points="47.45,-820.18 45,-813.18 42.55,-820.18 47.45,-820.18"/>
</g>
<!-- djls_ide&#45;&gt;djls_semantic -->
<g id="edge10" class="edge">
<title>djls_ide&#45;&gt;djls_semantic</title>
<path fill="none" stroke="#1a9762" stroke-width="1.5" stroke-dasharray="5,2" d="M440.48,-1072C515.85,-1072 714.75,-1072 714.75,-1072 714.75,-1072 714.75,-974.15 714.75,-974.15"/>
<polygon fill="#1a9762" stroke="#1a9762" stroke-width="1.5" points="717.2,-974.15 714.75,-967.15 712.3,-974.15 717.2,-974.15"/>
</g>
<!-- djls_ide&#45;&gt;ext_salsa -->
<g id="edge11" class="edge">
<title>djls_ide&#45;&gt;ext_salsa</title>
<path fill="none" stroke="#444444" d="M402.94,-1059.4C402.94,-917.15 402.94,-18 402.94,-18 402.94,-18 649.57,-18 649.57,-18"/>
<polygon fill="#444444" stroke="#444444" points="649.57,-20.45 656.57,-18 649.57,-15.55 649.57,-20.45"/>
</g>
<!-- ext_tower_lsp_server -->
<g id="node18" class="node">
<title>ext_tower_lsp_server</title>
<polygon fill="#d0d0d0" stroke="#606060" stroke-width="2" points="526.62,-810.88 421.38,-810.88 421.38,-774.88 526.62,-774.88 526.62,-810.88"/>
<text xml:space="preserve" text-anchor="middle" x="474" y="-789.17" font-family="Helvetica,sans-Serif" font-size="11.00">tower&#45;lsp&#45;server</text>
</g>
<!-- djls_ide&#45;&gt;ext_tower_lsp_server -->
<g id="edge12" class="edge">
<title>djls_ide&#45;&gt;ext_tower_lsp_server</title>
<path fill="none" stroke="#444444" d="M430.44,-1059.53C430.44,-1059.53 430.44,-820.18 430.44,-820.18"/>
<polygon fill="#444444" stroke="#444444" points="432.89,-820.18 430.44,-813.18 427.99,-820.18 432.89,-820.18"/>
</g>
<!-- djls_project -->
<g id="node8" class="node">
<title>djls_project</title>
<polygon fill="#cde4e4" stroke="none" stroke-width="2" points="868.62,-562.75 725.38,-562.75 725.38,-452.25 868.62,-452.25 868.62,-562.75"/>
<polygon fill="#cde4e4" stroke="none" points="727.38,-539.25 727.38,-560.75 866.62,-560.75 866.62,-539.25 727.38,-539.25"/>
<text xml:space="preserve" text-anchor="start" x="762.12" y="-547.3" font-family="Helvetica,sans-Serif" font-weight="bold" font-size="11.00">djls&#45;project</text>
<text xml:space="preserve" text-anchor="start" x="731.38" y="-525.7" font-family="Helvetica,sans-Serif" font-size="9.00">Db </text>
<text xml:space="preserve" text-anchor="start" x="747.12" y="-525.7" font-family="Helvetica,sans-Serif" font-style="italic" font-size="9.00">(db trait)</text>
<text xml:space="preserve" text-anchor="start" x="731.38" y="-504.45" font-family="Helvetica,sans-Serif" font-size="9.00">Project </text>
<text xml:space="preserve" text-anchor="start" x="765.12" y="-504.45" font-family="Helvetica,sans-Serif" font-style="italic" font-size="9.00">(input)</text>
<text xml:space="preserve" text-anchor="start" x="731.38" y="-483.2" font-family="Helvetica,sans-Serif" font-size="9.00">django_available </text>
<text xml:space="preserve" text-anchor="start" x="808.62" y="-483.2" font-family="Helvetica,sans-Serif" font-style="italic" font-size="9.00">(tracked fn)</text>
<text xml:space="preserve" text-anchor="start" x="731.38" y="-461.95" font-family="Helvetica,sans-Serif" font-size="9.00">template_dirs </text>
<text xml:space="preserve" text-anchor="start" x="795.88" y="-461.95" font-family="Helvetica,sans-Serif" font-style="italic" font-size="9.00">(tracked fn)</text>
</g>
<!-- djls_project&#45;&gt;djls_conf -->
<g id="edge13" class="edge">
<title>djls_project&#45;&gt;djls_conf</title>
<path fill="none" stroke="#1a9797" stroke-width="1.5" stroke-dasharray="5,2" d="M864.12,-452.29C864.12,-452.29 864.12,-356.63 864.12,-356.63"/>
<polygon fill="#1a9797" stroke="#1a9797" stroke-width="1.5" points="866.58,-356.63 864.13,-349.63 861.68,-356.63 866.58,-356.63"/>
</g>
<!-- djls_python -->
<g id="node9" class="node">
<title>djls_python</title>
<polygon fill="#cddae4" stroke="none" stroke-width="2" points="797.38,-394.25 628.62,-394.25 628.62,-262.5 797.38,-262.5 797.38,-394.25"/>
<polygon fill="#cddae4" stroke="none" points="630.62,-370.75 630.62,-392.25 795.38,-392.25 795.38,-370.75 630.62,-370.75"/>
<text xml:space="preserve" text-anchor="start" x="678.5" y="-378.8" font-family="Helvetica,sans-Serif" font-weight="bold" font-size="11.00">djls&#45;python</text>
<text xml:space="preserve" text-anchor="start" x="634.62" y="-357.2" font-family="Helvetica,sans-Serif" font-size="9.00">HelperCall </text>
<text xml:space="preserve" text-anchor="start" x="682.62" y="-357.2" font-family="Helvetica,sans-Serif" font-style="italic" font-size="9.00">(interned)</text>
<text xml:space="preserve" text-anchor="start" x="634.62" y="-335.95" font-family="Helvetica,sans-Serif" font-size="9.00">ParsedPythonModule </text>
<text xml:space="preserve" text-anchor="start" x="731.38" y="-335.95" font-family="Helvetica,sans-Serif" font-style="italic" font-size="9.00">(tracked)</text>
<text xml:space="preserve" text-anchor="start" x="634.62" y="-314.7" font-family="Helvetica,sans-Serif" font-size="9.00">analyze_helper </text>
<text xml:space="preserve" text-anchor="start" x="704.38" y="-314.7" font-family="Helvetica,sans-Serif" font-style="italic" font-size="9.00">(tracked fn)</text>
<text xml:space="preserve" text-anchor="start" x="634.62" y="-293.45" font-family="Helvetica,sans-Serif" font-size="9.00">extract_module </text>
<text xml:space="preserve" text-anchor="start" x="708.12" y="-293.45" font-family="Helvetica,sans-Serif" font-style="italic" font-size="9.00">(tracked fn)</text>
<text xml:space="preserve" text-anchor="start" x="634.62" y="-272.2" font-family="Helvetica,sans-Serif" font-size="9.00">parse_python_module </text>
<text xml:space="preserve" text-anchor="start" x="737.38" y="-272.2" font-family="Helvetica,sans-Serif" font-style="italic" font-size="9.00">(tracked fn)</text>
</g>
<!-- djls_project&#45;&gt;djls_python -->
<g id="edge14" class="edge">
<title>djls_project&#45;&gt;djls_python</title>
<path fill="none" stroke="#1a9797" stroke-width="1.5" stroke-dasharray="5,2" d="M761.38,-452.29C761.38,-452.29 761.38,-403.37 761.38,-403.37"/>
<polygon fill="#1a9797" stroke="#1a9797" stroke-width="1.5" points="763.83,-403.37 761.38,-396.37 758.93,-403.37 763.83,-403.37"/>
</g>
<!-- djls_workspace -->
<g id="node14" class="node">
<title>djls_workspace</title>
<polygon fill="#e4cdd7" stroke="none" stroke-width="2" points="1079.5,-351.75 974.5,-351.75 974.5,-305 1079.5,-305 1079.5,-351.75"/>
<polygon fill="#e4cdd7" stroke="none" points="976.5,-328.25 976.5,-349.75 1077.5,-349.75 1077.5,-328.25 976.5,-328.25"/>
<text xml:space="preserve" text-anchor="start" x="980.5" y="-336.3" font-family="Helvetica,sans-Serif" font-weight="bold" font-size="11.00">djls&#45;workspace</text>
<text xml:space="preserve" text-anchor="start" x="980.5" y="-314.7" font-family="Helvetica,sans-Serif" font-size="9.00">Db </text>
<text xml:space="preserve" text-anchor="start" x="996.25" y="-314.7" font-family="Helvetica,sans-Serif" font-style="italic" font-size="9.00">(db trait)</text>
</g>
<!-- djls_project&#45;&gt;djls_workspace -->
<g id="edge15" class="edge">
<title>djls_project&#45;&gt;djls_workspace</title>
<path fill="none" stroke="#1a9797" stroke-width="1.5" stroke-dasharray="5,2" d="M859.62,-452.55C859.62,-436.41 859.62,-423 859.62,-423 859.62,-423 1009.5,-423 1009.5,-423 1009.5,-423 1009.5,-360.55 1009.5,-360.55"/>
<polygon fill="#1a9797" stroke="#1a9797" stroke-width="1.5" points="1011.95,-360.55 1009.5,-353.55 1007.05,-360.55 1011.95,-360.55"/>
</g>
<!-- djls_project&#45;&gt;ext_salsa -->
<g id="edge16" class="edge">
<title>djls_project&#45;&gt;ext_salsa</title>
<path fill="none" stroke="#444444" d="M826.25,-452.48C826.25,-372.62 826.25,-234 826.25,-234 826.25,-234 695,-234 695,-234 695,-234 695,-45.3 695,-45.3"/>
<polygon fill="#444444" stroke="#444444" points="697.45,-45.3 695,-38.3 692.55,-45.3 697.45,-45.3"/>
</g>
<!-- djls_source -->
<g id="node12" class="node">
<title>djls_source</title>
<polygon fill="#ddcde4" stroke="none" stroke-width="2" points="888,-204.5 774,-204.5 774,-94 888,-94 888,-204.5"/>
<polygon fill="#ddcde4" stroke="none" points="776,-181 776,-202.5 886,-202.5 886,-181 776,-181"/>
<text xml:space="preserve" text-anchor="start" x="797.25" y="-189.05" font-family="Helvetica,sans-Serif" font-weight="bold" font-size="11.00">djls&#45;source</text>
<text xml:space="preserve" text-anchor="start" x="780" y="-167.45" font-family="Helvetica,sans-Serif" font-size="9.00">Db </text>
<text xml:space="preserve" text-anchor="start" x="795.75" y="-167.45" font-family="Helvetica,sans-Serif" font-style="italic" font-size="9.00">(db trait)</text>
<text xml:space="preserve" text-anchor="start" x="780" y="-146.2" font-family="Helvetica,sans-Serif" font-size="9.00">File </text>
<text xml:space="preserve" text-anchor="start" x="797.25" y="-146.2" font-family="Helvetica,sans-Serif" font-style="italic" font-size="9.00">(input)</text>
<text xml:space="preserve" text-anchor="start" x="780" y="-124.95" font-family="Helvetica,sans-Serif" font-size="9.00">line_index </text>
<text xml:space="preserve" text-anchor="start" x="828" y="-124.95" font-family="Helvetica,sans-Serif" font-style="italic" font-size="9.00">(tracked fn)</text>
<text xml:space="preserve" text-anchor="start" x="780" y="-103.7" font-family="Helvetica,sans-Serif" font-size="9.00">source </text>
<text xml:space="preserve" text-anchor="start" x="813" y="-103.7" font-family="Helvetica,sans-Serif" font-style="italic" font-size="9.00">(tracked fn)</text>
</g>
<!-- djls_python&#45;&gt;djls_source -->
<g id="edge17" class="edge">
<title>djls_python&#45;&gt;djls_source</title>
<path fill="none" stroke="#1a6297" stroke-width="1.5" stroke-dasharray="5,2" d="M785.69,-262.69C785.69,-262.69 785.69,-213.6 785.69,-213.6"/>
<polygon fill="#1a6297" stroke="#1a6297" stroke-width="1.5" points="788.14,-213.6 785.69,-206.6 783.24,-213.6 788.14,-213.6"/>
</g>
<!-- djls_python&#45;&gt;ext_salsa -->
<g id="edge18" class="edge">
<title>djls_python&#45;&gt;ext_salsa</title>
<path fill="none" stroke="#444444" d="M677,-262.55C677,-262.55 677,-45.29 677,-45.29"/>
<polygon fill="#444444" stroke="#444444" points="679.45,-45.29 677,-38.29 674.55,-45.3 679.45,-45.29"/>
</g>
<!-- djls_semantic&#45;&gt;djls_project -->
<g id="edge19" class="edge">
<title>djls_semantic&#45;&gt;djls_project</title>
<path fill="none" stroke="#1a2c97" stroke-width="1.5" stroke-dasharray="5,2" d="M797,-621.11C797,-621.11 797,-571.91 797,-571.91"/>
<polygon fill="#1a2c97" stroke="#1a2c97" stroke-width="1.5" points="799.45,-571.91 797,-564.91 794.55,-571.91 799.45,-571.91"/>
</g>
<!-- djls_templates -->
<g id="node13" class="node">
<title>djls_templates</title>
<polygon fill="#e4cde0" stroke="none" stroke-width="2" points="1127.12,-562.75 926.88,-562.75 926.88,-452.25 1127.12,-452.25 1127.12,-562.75"/>
<polygon fill="#e4cde0" stroke="none" points="928.88,-539.25 928.88,-560.75 1125.12,-560.75 1125.12,-539.25 928.88,-539.25"/>
<text xml:space="preserve" text-anchor="start" x="982.75" y="-547.3" font-family="Helvetica,sans-Serif" font-weight="bold" font-size="11.00">djls&#45;templates</text>
<text xml:space="preserve" text-anchor="start" x="932.88" y="-525.7" font-family="Helvetica,sans-Serif" font-size="9.00">Db </text>
<text xml:space="preserve" text-anchor="start" x="948.62" y="-525.7" font-family="Helvetica,sans-Serif" font-style="italic" font-size="9.00">(db trait)</text>
<text xml:space="preserve" text-anchor="start" x="932.88" y="-504.45" font-family="Helvetica,sans-Serif" font-size="9.00">NodeList </text>
<text xml:space="preserve" text-anchor="start" x="974.88" y="-504.45" font-family="Helvetica,sans-Serif" font-style="italic" font-size="9.00">(tracked)</text>
<text xml:space="preserve" text-anchor="start" x="932.88" y="-483.2" font-family="Helvetica,sans-Serif" font-size="9.00">TemplateErrorAccumulator </text>
<text xml:space="preserve" text-anchor="start" x="1056.62" y="-483.2" font-family="Helvetica,sans-Serif" font-style="italic" font-size="9.00">(accumulator)</text>
<text xml:space="preserve" text-anchor="start" x="932.88" y="-461.95" font-family="Helvetica,sans-Serif" font-size="9.00">parse_template </text>
<text xml:space="preserve" text-anchor="start" x="1005.62" y="-461.95" font-family="Helvetica,sans-Serif" font-style="italic" font-size="9.00">(tracked fn)</text>
</g>
<!-- djls_semantic&#45;&gt;djls_templates -->
<g id="edge20" class="edge">
<title>djls_semantic&#45;&gt;djls_templates</title>
<path fill="none" stroke="#1a2c97" stroke-width="1.5" stroke-dasharray="5,2" d="M883.62,-621C883.62,-560.84 883.62,-508 883.62,-508 883.62,-508 917.76,-508 917.76,-508"/>
<polygon fill="#1a2c97" stroke="#1a2c97" stroke-width="1.5" points="917.76,-510.45 924.76,-508 917.76,-505.55 917.76,-510.45"/>
</g>
<!-- djls_semantic&#45;&gt;ext_salsa -->
<g id="edge21" class="edge">
<title>djls_semantic&#45;&gt;ext_salsa</title>
<path fill="none" stroke="#444444" d="M695.41,-698C645.84,-698 596.75,-698 596.75,-698 596.75,-698 596.75,-27 596.75,-27 596.75,-27 649.74,-27 649.74,-27"/>
<polygon fill="#444444" stroke="#444444" points="649.74,-29.45 656.74,-27 649.74,-24.55 649.74,-29.45"/>
</g>
<!-- djls_server&#45;&gt;djls_db -->
<g id="edge22" class="edge">
<title>djls_server&#45;&gt;djls_db</title>
<path fill="none" stroke="#3e1a97" stroke-width="1.5" stroke-dasharray="5,2" d="M545.75,-1190.83C545.75,-1163.29 545.75,-1115 545.75,-1115 545.75,-1115 725.02,-1115 725.02,-1115"/>
<polygon fill="#3e1a97" stroke="#3e1a97" stroke-width="1.5" points="725.02,-1117.45 732.02,-1115 725.02,-1112.55 725.02,-1117.45"/>
</g>
<!-- djls_server&#45;&gt;djls_ide -->
<g id="edge23" class="edge">
<title>djls_server&#45;&gt;djls_ide</title>
<path fill="none" stroke="#3e1a97" stroke-width="1.5" stroke-dasharray="5,2" d="M502.96,-1190.71C502.96,-1155.7 502.96,-1084 502.96,-1084 502.96,-1084 449.55,-1084 449.55,-1084"/>
<polygon fill="#3e1a97" stroke="#3e1a97" stroke-width="1.5" points="449.55,-1081.55 442.55,-1084 449.55,-1086.45 449.55,-1081.55"/>
</g>
<!-- ext_tokio -->
<g id="node17" class="node">
<title>ext_tokio</title>
<polygon fill="#d0d0d0" stroke="#606060" stroke-width="2" points="1312,-167.25 1258,-167.25 1258,-131.25 1312,-131.25 1312,-167.25"/>
<text xml:space="preserve" text-anchor="middle" x="1285" y="-145.55" font-family="Helvetica,sans-Serif" font-size="11.00">tokio</text>
</g>
<!-- djls_server&#45;&gt;ext_tokio -->
<g id="edge24" class="edge">
<title>djls_server&#45;&gt;ext_tokio</title>
<path fill="none" stroke="#444444" d="M565.72,-1210C719.9,-1210 1294,-1210 1294,-1210 1294,-1210 1294,-176.63 1294,-176.63"/>
<polygon fill="#444444" stroke="#444444" points="1296.45,-176.63 1294,-169.63 1291.55,-176.63 1296.45,-176.63"/>
</g>
<!-- djls_server&#45;&gt;ext_tower_lsp_server -->
<g id="edge25" class="edge">
<title>djls_server&#45;&gt;ext_tower_lsp_server</title>
<path fill="none" stroke="#444444" d="M514.79,-1190.52C514.79,-1190.52 514.79,-820.01 514.79,-820.01"/>
<polygon fill="#444444" stroke="#444444" points="517.24,-820.01 514.79,-813.01 512.34,-820.01 517.24,-820.01"/>
</g>
<!-- djls_source&#45;&gt;ext_salsa -->
<g id="edge26" class="edge">
<title>djls_source&#45;&gt;ext_salsa</title>
<path fill="none" stroke="#444444" d="M831,-94.05C831,-62.44 831,-29 831,-29 831,-29 722.47,-29 722.47,-29"/>
<polygon fill="#444444" stroke="#444444" points="722.47,-26.55 715.47,-29 722.47,-31.45 722.47,-26.55"/>
</g>
<!-- djls_templates&#45;&gt;djls_conf -->
<g id="edge27" class="edge">
<title>djls_templates&#45;&gt;djls_conf</title>
<path fill="none" stroke="#971a85" stroke-width="1.5" stroke-dasharray="5,2" d="M942.75,-452.67C942.75,-399.88 942.75,-328 942.75,-328 942.75,-328 926.96,-328 926.96,-328"/>
<polygon fill="#971a85" stroke="#971a85" stroke-width="1.5" points="926.96,-325.55 919.96,-328 926.96,-330.45 926.96,-325.55"/>
</g>
<!-- djls_templates&#45;&gt;djls_workspace -->
<g id="edge28" class="edge">
<title>djls_templates&#45;&gt;djls_workspace</title>
<path fill="none" stroke="#971a85" stroke-width="1.5" stroke-dasharray="5,2" d="M1044.5,-452.29C1044.5,-452.29 1044.5,-360.63 1044.5,-360.63"/>
<polygon fill="#971a85" stroke="#971a85" stroke-width="1.5" points="1046.95,-360.63 1044.5,-353.63 1042.05,-360.63 1046.95,-360.63"/>
</g>
<!-- djls_templates&#45;&gt;ext_salsa -->
<g id="edge29" class="edge">
<title>djls_templates&#45;&gt;ext_salsa</title>
<path fill="none" stroke="#444444" d="M958.62,-452.33C958.62,-323.55 958.62,-14 958.62,-14 958.62,-14 722.41,-14 722.41,-14"/>
<polygon fill="#444444" stroke="#444444" points="722.41,-11.55 715.41,-14 722.41,-16.45 722.41,-11.55"/>
</g>
<!-- djls_workspace&#45;&gt;djls_source -->
<g id="edge30" class="edge">
<title>djls_workspace&#45;&gt;djls_source</title>
<path fill="none" stroke="#971a50" stroke-width="1.5" stroke-dasharray="5,2" d="M1009.5,-305.18C1009.5,-264.84 1009.5,-186 1009.5,-186 1009.5,-186 897.24,-186 897.24,-186"/>
<polygon fill="#971a50" stroke="#971a50" stroke-width="1.5" points="897.24,-183.55 890.24,-186 897.24,-188.45 897.24,-183.55"/>
</g>
<!-- djls_workspace&#45;&gt;ext_salsa -->
<g id="edge31" class="edge">
<title>djls_workspace&#45;&gt;ext_salsa</title>
<path fill="none" stroke="#444444" d="M1044.5,-305C1044.5,-231.05 1044.5,-7 1044.5,-7 1044.5,-7 722.35,-7 722.35,-7"/>
<polygon fill="#444444" stroke="#444444" points="722.35,-4.55 715.35,-7 722.35,-9.45 722.35,-4.55"/>
</g>
<!-- djls_workspace&#45;&gt;ext_tokio -->
<g id="edge32" class="edge">
<title>djls_workspace&#45;&gt;ext_tokio</title>
<path fill="none" stroke="#444444" d="M1079.2,-328C1152.21,-328 1276,-328 1276,-328 1276,-328 1276,-176.56 1276,-176.56"/>
<polygon fill="#444444" stroke="#444444" points="1278.45,-176.56 1276,-169.56 1273.55,-176.56 1278.45,-176.56"/>
</g>

<polygon fill="#97501a" stroke="#97501a" points="284.08,-1131.83 287.58,-1136.83 280.58,-1136.83"/>
<polygon fill="#97501a" stroke="#97501a" points="412.00,-1155.70 415.50,-1160.70 408.50,-1160.70"/>
<polygon fill="#1a9762" stroke="#1a9762" points="497.83,-1072.00 492.83,-1075.50 492.83,-1068.50"/>
<polygon fill="#1a9762" stroke="#1a9762" points="580.12,-1072.00 575.12,-1075.50 575.12,-1068.50"/>
<polygon fill="#1a9762" stroke="#1a9762" points="714.75,-1020.58 718.25,-1025.58 711.25,-1025.58"/>
<polygon fill="#1a9797" stroke="#1a9797" points="864.12,-401.96 867.62,-406.96 860.62,-406.96"/>
<polygon fill="#1a9797" stroke="#1a9797" points="937.06,-423.00 932.06,-426.50 932.06,-419.50"/>
<polygon fill="#1a2c97" stroke="#1a2c97" points="883.62,-562.00 887.12,-567.00 880.12,-567.00"/>
<polygon fill="#3e1a97" stroke="#3e1a97" points="637.88,-1115.00 632.88,-1118.50 632.88,-1111.50"/>
<polygon fill="#3e1a97" stroke="#3e1a97" points="502.96,-1134.86 506.46,-1139.86 499.46,-1139.86"/>
<polygon fill="#971a85" stroke="#971a85" points="942.75,-387.84 946.25,-392.84 939.25,-392.84"/>
<polygon fill="#971a85" stroke="#971a85" points="1044.50,-403.96 1048.00,-408.96 1041.00,-408.96"/>
<polygon fill="#971a50" stroke="#971a50" points="1009.50,-243.09 1013.00,-248.09 1006.00,-248.09"/>
<polygon fill="#971a50" stroke="#971a50" points="950.87,-186.00 955.87,-182.50 955.87,-189.50"/>
</g>
</svg>
