<?xml version="1.0" encoding="UTF-8" standalone="no"?>
<!DOCTYPE svg PUBLIC "-//W3C//DTD SVG 1.1//EN"
 "http://www.w3.org/Graphics/SVG/1.1/DTD/svg11.dtd">
<!-- Generated by graphviz version 14.1.1 (0)
 -->
<!-- Title: dependencies Pages: 1 -->
<svg width="1024pt" height="757pt"
 viewBox="0.00 0.00 1024.00 757.00" xmlns="http://www.w3.org/2000/svg" xmlns:xlink="http://www.w3.org/1999/xlink">
<g id="graph0" class="graph" transform="scale(1 1) rotate(0) translate(4 753)">
<title>dependencies</title>
<polygon fill="#f8f9fa" stroke="none" points="-4,4 -4,-753 1020,-753 1020,4 -4,4"/>
<g id="clust1" class="cluster">
<title>cluster_djls_app</title>
<path fill="#e4cdcd" stroke="#971a1a" stroke-width="2" d="M20,-384C20,-384 342,-384 342,-384 348,-384 354,-390 354,-396 354,-396 354,-729 354,-729 354,-735 348,-741 342,-741 342,-741 20,-741 20,-741 14,-741 8,-735 8,-729 8,-729 8,-396 8,-396 8,-390 14,-384 20,-384"/>
<text xml:space="preserve" text-anchor="middle" x="181" y="-723.7" font-family="Helvetica Bold" font-size="14.00">djls&#45;app</text>
</g>
<g id="clust2" class="cluster">
<title>cluster_djls_domain</title>
<path fill="#dfe4cd" stroke="#7e971a" stroke-width="2" d="M650,-102C650,-102 874,-102 874,-102 880,-102 886,-108 886,-114 886,-114 886,-353 886,-353 886,-359 880,-365 874,-365 874,-365 650,-365 650,-365 644,-365 638,-359 638,-353 638,-353 638,-114 638,-114 638,-108 644,-102 650,-102"/>
<text xml:space="preserve" text-anchor="middle" x="762" y="-347.7" font-family="Helvetica Bold" font-size="14.00">djls&#45;domain</text>
</g>
<g id="clust3" class="cluster">
<title>cluster_djls_foundation</title>
<path fill="#cde4d6" stroke="#1a974c" stroke-width="2" d="M906,-8C906,-8 996,-8 996,-8 1002,-8 1008,-14 1008,-20 1008,-20 1008,-259 1008,-259 1008,-265 1002,-271 996,-271 996,-271 906,-271 906,-271 900,-271 894,-265 894,-259 894,-259 894,-20 894,-20 894,-14 900,-8 906,-8"/>
<text xml:space="preserve" text-anchor="middle" x="951" y="-253.7" font-family="Helvetica Bold" font-size="14.00">djls&#45;foundation</text>
</g>
<g id="clust4" class="cluster">
<title>cluster_djls_intelligence</title>
<path fill="#cdd6e4" stroke="#1a4c97" stroke-width="2" d="M374,-290C374,-290 618,-290 618,-290 624,-290 630,-296 630,-302 630,-302 630,-541 630,-541 630,-547 624,-553 618,-553 618,-553 374,-553 374,-553 368,-553 362,-547 362,-541 362,-541 362,-302 362,-302 362,-296 368,-290 374,-290"/>
<text xml:space="preserve" text-anchor="middle" x="496" y="-535.7" font-family="Helvetica Bold" font-size="14.00">djls&#45;intelligence</text>
</g>
<g id="clust5" class="cluster">
<title>cluster_djls_tools</title>
<path fill="#dfcde4" stroke="#7e1a97" stroke-width="2" d="M650,-478C650,-478 830,-478 830,-478 836,-478 842,-484 842,-490 842,-490 842,-729 842,-729 842,-735 836,-741 830,-741 830,-741 650,-741 650,-741 644,-741 638,-735 638,-729 638,-729 638,-490 638,-490 638,-484 644,-478 650,-478"/>
<text xml:space="preserve" text-anchor="middle" x="740" y="-723.7" font-family="Helvetica Bold" font-size="14.00">djls&#45;tools</text>
</g>
<!-- djls -->
<g id="node1" class="node">
<title>djls</title>
<polygon fill="#e4cdcd" stroke="#971a1a" stroke-width="2" points="336,-710 282,-710 282,-674 336,-674 336,-710"/>
<text xml:space="preserve" text-anchor="middle" x="309" y="-688.3" font-family="Helvetica,sans-Serif" font-size="11.00">djls</text>
</g>
<!-- djls_server -->
<g id="node3" class="node">
<title>djls_server</title>
<polygon fill="#e4cdcd" stroke="#971a1a" stroke-width="2" points="345.88,-616 272.12,-616 272.12,-580 345.88,-580 345.88,-616"/>
<text xml:space="preserve" text-anchor="middle" x="309" y="-594.3" font-family="Helvetica,sans-Serif" font-size="11.00">djls&#45;server</text>
</g>
<!-- djls&#45;&gt;djls_server -->
<g id="edge1" class="edge">
<title>djls&#45;&gt;djls_server</title>
<path fill="none" stroke="#444444" d="M309,-673.43C309,-673.43 309,-625.37 309,-625.37"/>
<polygon fill="#444444" stroke="#444444" points="311.45,-625.37 309,-618.37 306.55,-625.37 311.45,-625.37"/>
</g>
<!-- djls_db -->
<g id="node2" class="node">
<title>djls_db</title>
<polygon fill="#e4cdcd" stroke="#971a1a" stroke-width="2" points="70,-522 16,-522 16,-486 70,-486 70,-522"/>
<text xml:space="preserve" text-anchor="middle" x="43" y="-500.3" font-family="Helvetica,sans-Serif" font-size="11.00">djls&#45;db</text>
</g>
<!-- djls_app_salsa -->
<g id="node4" class="node">
<title>djls_app_salsa</title>
<polygon fill="#d0d0d0" stroke="#606060" stroke-width="2" points="70,-428 16,-428 16,-392 70,-392 70,-428"/>
<text xml:space="preserve" text-anchor="middle" x="43" y="-406.3" font-family="Helvetica,sans-Serif" font-size="11.00">salsa</text>
</g>
<!-- djls_db&#45;&gt;djls_app_salsa -->
<g id="edge6" class="edge">
<title>djls_db&#45;&gt;djls_app_salsa</title>
<path fill="none" stroke="#444444" d="M43,-485.43C43,-485.43 43,-437.37 43,-437.37"/>
<polygon fill="#444444" stroke="#444444" points="45.45,-437.37 43,-430.37 40.55,-437.37 45.45,-437.37"/>
</g>
<!-- djls_semantic -->
<g id="node16" class="node">
<title>djls_semantic</title>
<polygon fill="#cdd6e4" stroke="#1a4c97" stroke-width="2" points="458.38,-428 369.62,-428 369.62,-392 458.38,-392 458.38,-428"/>
<text xml:space="preserve" text-anchor="middle" x="414" y="-406.3" font-family="Helvetica,sans-Serif" font-size="11.00">djls&#45;semantic</text>
</g>
<!-- djls_db&#45;&gt;djls_semantic -->
<g id="edge5" class="edge">
<title>djls_db&#45;&gt;djls_semantic</title>
<path fill="none" stroke="#971a1a" stroke-width="1.5" stroke-dasharray="5,2" d="M71,-504C85,-504 99,-504 99,-504 99,-504 99,-410 99,-410 99,-410 359.6,-410 359.6,-410"/>
<polygon fill="#971a1a" stroke="#971a1a" stroke-width="1.5" points="359.6,-412.45 366.6,-410 359.6,-407.55 359.6,-412.45"/>
</g>
<!-- djls_server&#45;&gt;djls_db -->
<g id="edge16" class="edge">
<title>djls_server&#45;&gt;djls_db</title>
<path fill="none" stroke="#444444" d="M271.17,-604C197.73,-604 43,-604 43,-604 43,-604 43,-531.32 43,-531.32"/>
<polygon fill="#444444" stroke="#444444" points="45.45,-531.32 43,-524.32 40.55,-531.32 45.45,-531.32"/>
</g>
<!-- djls_app_tokio -->
<g id="node5" class="node">
<title>djls_app_tokio</title>
<polygon fill="#d0d0d0" stroke="#606060" stroke-width="2" points="182,-522 128,-522 128,-486 182,-486 182,-522"/>
<text xml:space="preserve" text-anchor="middle" x="155" y="-500.3" font-family="Helvetica,sans-Serif" font-size="11.00">tokio</text>
</g>
<!-- djls_server&#45;&gt;djls_app_tokio -->
<g id="edge18" class="edge">
<title>djls_server&#45;&gt;djls_app_tokio</title>
<path fill="none" stroke="#444444" d="M271.33,-592C225.74,-592 155,-592 155,-592 155,-592 155,-531.18 155,-531.18"/>
<polygon fill="#444444" stroke="#444444" points="157.45,-531.18 155,-524.18 152.55,-531.18 157.45,-531.18"/>
</g>
<!-- djls_app_tower_lsp_server -->
<g id="node6" class="node">
<title>djls_app_tower_lsp_server</title>
<polygon fill="#d0d0d0" stroke="#606060" stroke-width="2" points="345.62,-522 240.38,-522 240.38,-486 345.62,-486 345.62,-522"/>
<text xml:space="preserve" text-anchor="middle" x="293" y="-500.3" font-family="Helvetica,sans-Serif" font-size="11.00">tower&#45;lsp&#45;server</text>
</g>
<!-- djls_server&#45;&gt;djls_app_tower_lsp_server -->
<g id="edge19" class="edge">
<title>djls_server&#45;&gt;djls_app_tower_lsp_server</title>
<path fill="none" stroke="#444444" d="M308.88,-579.43C308.88,-579.43 308.88,-531.37 308.88,-531.37"/>
<polygon fill="#444444" stroke="#444444" points="311.33,-531.37 308.88,-524.37 306.43,-531.37 311.33,-531.37"/>
</g>
<!-- djls_ide -->
<g id="node15" class="node">
<title>djls_ide</title>
<polygon fill="#cdd6e4" stroke="#1a4c97" stroke-width="2" points="523.5,-522 468.5,-522 468.5,-486 523.5,-486 523.5,-522"/>
<text xml:space="preserve" text-anchor="middle" x="496" y="-500.3" font-family="Helvetica,sans-Serif" font-size="11.00">djls&#45;ide</text>
</g>
<!-- djls_server&#45;&gt;djls_ide -->
<g id="edge17" class="edge">
<title>djls_server&#45;&gt;djls_ide</title>
<path fill="none" stroke="#971a1a" stroke-width="1.5" stroke-dasharray="5,2" d="M346.71,-604C398.92,-604 486.83,-604 486.83,-604 486.83,-604 486.83,-532.08 486.83,-532.08"/>
<polygon fill="#971a1a" stroke="#971a1a" stroke-width="1.5" points="489.28,-532.08 486.83,-525.08 484.38,-532.08 489.28,-532.08"/>
</g>
<!-- djls_project -->
<g id="node7" class="node">
<title>djls_project</title>
<polygon fill="#dfe4cd" stroke="#7e971a" stroke-width="2" points="877.38,-334 800.62,-334 800.62,-298 877.38,-298 877.38,-334"/>
<text xml:space="preserve" text-anchor="middle" x="839" y="-312.3" font-family="Helvetica,sans-Serif" font-size="11.00">djls&#45;project</text>
</g>
<!-- djls_python -->
<g id="node8" class="node">
<title>djls_python</title>
<polygon fill="#dfe4cd" stroke="#7e971a" stroke-width="2" points="878.38,-240 801.62,-240 801.62,-204 878.38,-204 878.38,-240"/>
<text xml:space="preserve" text-anchor="middle" x="840" y="-218.3" font-family="Helvetica,sans-Serif" font-size="11.00">djls&#45;python</text>
</g>
<!-- djls_project&#45;&gt;djls_python -->
<g id="edge10" class="edge">
<title>djls_project&#45;&gt;djls_python</title>
<path fill="none" stroke="#444444" d="M839.5,-297.43C839.5,-297.43 839.5,-249.37 839.5,-249.37"/>
<polygon fill="#444444" stroke="#444444" points="841.95,-249.37 839.5,-242.37 837.05,-249.37 841.95,-249.37"/>
</g>
<!-- djls_workspace -->
<g id="node10" class="node">
<title>djls_workspace</title>
<polygon fill="#dfe4cd" stroke="#7e971a" stroke-width="2" points="743.5,-240 646.5,-240 646.5,-204 743.5,-204 743.5,-240"/>
<text xml:space="preserve" text-anchor="middle" x="695" y="-218.3" font-family="Helvetica,sans-Serif" font-size="11.00">djls&#45;workspace</text>
</g>
<!-- djls_project&#45;&gt;djls_workspace -->
<g id="edge11" class="edge">
<title>djls_project&#45;&gt;djls_workspace</title>
<path fill="none" stroke="#444444" d="M799.65,-316C778.39,-316 756.44,-316 756.44,-316 756.44,-316 756.44,-222 756.44,-222 756.44,-222 752.81,-222 752.81,-222"/>
<polygon fill="#444444" stroke="#444444" points="752.81,-219.55 745.81,-222 752.81,-224.45 752.81,-219.55"/>
</g>
<!-- djls_conf -->
<g id="node12" class="node">
<title>djls_conf</title>
<polygon fill="#cde4d6" stroke="#1a974c" stroke-width="2" points="997.88,-240 936.12,-240 936.12,-204 997.88,-204 997.88,-240"/>
<text xml:space="preserve" text-anchor="middle" x="967" y="-218.3" font-family="Helvetica,sans-Serif" font-size="11.00">djls&#45;conf</text>
</g>
<!-- djls_project&#45;&gt;djls_conf -->
<g id="edge9" class="edge">
<title>djls_project&#45;&gt;djls_conf</title>
<path fill="none" stroke="#7e971a" stroke-width="1.5" stroke-dasharray="5,2" d="M878.26,-316C919.14,-316 977.29,-316 977.29,-316 977.29,-316 977.29,-249.84 977.29,-249.84"/>
<polygon fill="#7e971a" stroke="#7e971a" stroke-width="1.5" points="979.74,-249.84 977.29,-242.84 974.84,-249.84 979.74,-249.84"/>
</g>
<!-- djls_source -->
<g id="node13" class="node">
<title>djls_source</title>
<polygon fill="#cde4d6" stroke="#1a974c" stroke-width="2" points="977.62,-146 902.38,-146 902.38,-110 977.62,-110 977.62,-146"/>
<text xml:space="preserve" text-anchor="middle" x="940" y="-124.3" font-family="Helvetica,sans-Serif" font-size="11.00">djls&#45;source</text>
</g>
<!-- djls_python&#45;&gt;djls_source -->
<g id="edge12" class="edge">
<title>djls_python&#45;&gt;djls_source</title>
<path fill="none" stroke="#7e971a" stroke-width="1.5" stroke-dasharray="5,2" d="M879.16,-222C899.13,-222 919.25,-222 919.25,-222 919.25,-222 919.25,-155.84 919.25,-155.84"/>
<polygon fill="#7e971a" stroke="#7e971a" stroke-width="1.5" points="921.7,-155.84 919.25,-148.84 916.8,-155.84 921.7,-155.84"/>
</g>
<!-- djls_templates -->
<g id="node9" class="node">
<title>djls_templates</title>
<polygon fill="#dfe4cd" stroke="#7e971a" stroke-width="2" points="742,-334 648,-334 648,-298 742,-298 742,-334"/>
<text xml:space="preserve" text-anchor="middle" x="695" y="-312.3" font-family="Helvetica,sans-Serif" font-size="11.00">djls&#45;templates</text>
</g>
<!-- djls_templates&#45;&gt;djls_workspace -->
<g id="edge22" class="edge">
<title>djls_templates&#45;&gt;djls_workspace</title>
<path fill="none" stroke="#444444" d="M679.33,-297.43C679.33,-297.43 679.33,-249.37 679.33,-249.37"/>
<polygon fill="#444444" stroke="#444444" points="681.78,-249.37 679.33,-242.37 676.88,-249.37 681.78,-249.37"/>
</g>
<!-- djls_templates&#45;&gt;djls_conf -->
<g id="edge21" class="edge">
<title>djls_templates&#45;&gt;djls_conf</title>
<path fill="none" stroke="#7e971a" stroke-width="1.5" stroke-dasharray="5,2" d="M710.67,-297.15C710.67,-284.08 710.67,-269 710.67,-269 710.67,-269 956.71,-269 956.71,-269 956.71,-269 956.71,-250.12 956.71,-250.12"/>
<polygon fill="#7e971a" stroke="#7e971a" stroke-width="1.5" points="959.16,-250.12 956.71,-243.12 954.26,-250.12 959.16,-250.12"/>
</g>
<!-- djls_domain_tokio -->
<g id="node11" class="node">
<title>djls_domain_tokio</title>
<polygon fill="#d0d0d0" stroke="#606060" stroke-width="2" points="722,-146 668,-146 668,-110 722,-110 722,-146"/>
<text xml:space="preserve" text-anchor="middle" x="695" y="-124.3" font-family="Helvetica,sans-Serif" font-size="11.00">tokio</text>
</g>
<!-- djls_workspace&#45;&gt;djls_domain_tokio -->
<g id="edge24" class="edge">
<title>djls_workspace&#45;&gt;djls_domain_tokio</title>
<path fill="none" stroke="#444444" d="M695,-203.43C695,-203.43 695,-155.37 695,-155.37"/>
<polygon fill="#444444" stroke="#444444" points="697.45,-155.37 695,-148.37 692.55,-155.37 697.45,-155.37"/>
</g>
<!-- djls_workspace&#45;&gt;djls_source -->
<g id="edge23" class="edge">
<title>djls_workspace&#45;&gt;djls_source</title>
<path fill="none" stroke="#7e971a" stroke-width="1.5" stroke-dasharray="5,2" d="M732.75,-203.43C732.75,-176.03 732.75,-128 732.75,-128 732.75,-128 892.23,-128 892.23,-128"/>
<polygon fill="#7e971a" stroke="#7e971a" stroke-width="1.5" points="892.23,-130.45 899.23,-128 892.23,-125.55 892.23,-130.45"/>
</g>
<!-- djls_foundation_salsa -->
<g id="node14" class="node">
<title>djls_foundation_salsa</title>
<polygon fill="#d0d0d0" stroke="#606060" stroke-width="2" points="967,-52 913,-52 913,-16 967,-16 967,-52"/>
<text xml:space="preserve" text-anchor="middle" x="940" y="-30.3" font-family="Helvetica,sans-Serif" font-size="11.00">salsa</text>
</g>
<!-- djls_source&#45;&gt;djls_foundation_salsa -->
<g id="edge20" class="edge">
<title>djls_source&#45;&gt;djls_foundation_salsa</title>
<path fill="none" stroke="#444444" d="M940,-109.43C940,-109.43 940,-61.37 940,-61.37"/>
<polygon fill="#444444" stroke="#444444" points="942.45,-61.37 940,-54.37 937.55,-61.37 942.45,-61.37"/>
</g>
<!-- djls_ide&#45;&gt;djls_semantic -->
<g id="edge7" class="edge">
<title>djls_ide&#45;&gt;djls_semantic</title>
<path fill="none" stroke="#444444" d="M492.44,-485.43C492.44,-458.03 492.44,-410 492.44,-410 492.44,-410 467.69,-410 467.69,-410"/>
<polygon fill="#444444" stroke="#444444" points="467.69,-407.55 460.69,-410 467.69,-412.45 467.69,-407.55"/>
</g>
<!-- djls_intelligence_tower_lsp_server -->
<g id="node18" class="node">
<title>djls_intelligence_tower_lsp_server</title>
<polygon fill="#d0d0d0" stroke="#606060" stroke-width="2" points="621.62,-428 516.38,-428 516.38,-392 621.62,-392 621.62,-428"/>
<text xml:space="preserve" text-anchor="middle" x="569" y="-406.3" font-family="Helvetica,sans-Serif" font-size="11.00">tower&#45;lsp&#45;server</text>
</g>
<!-- djls_ide&#45;&gt;djls_intelligence_tower_lsp_server -->
<g id="edge8" class="edge">
<title>djls_ide&#45;&gt;djls_intelligence_tower_lsp_server</title>
<path fill="none" stroke="#444444" d="M519.94,-485.43C519.94,-485.43 519.94,-437.37 519.94,-437.37"/>
<polygon fill="#444444" stroke="#444444" points="522.39,-437.37 519.94,-430.37 517.49,-437.37 522.39,-437.37"/>
</g>
<!-- djls_semantic&#45;&gt;djls_project -->
<g id="edge13" class="edge">
<title>djls_semantic&#45;&gt;djls_project</title>
<path fill="none" stroke="#1a4c97" stroke-width="1.5" stroke-dasharray="5,2" d="M446.79,-391.15C446.79,-378.08 446.79,-363 446.79,-363 446.79,-363 817.31,-363 817.31,-363 817.31,-363 817.31,-344.12 817.31,-344.12"/>
<polygon fill="#1a4c97" stroke="#1a4c97" stroke-width="1.5" points="819.76,-344.12 817.31,-337.12 814.86,-344.12 819.76,-344.12"/>
</g>
<!-- djls_semantic&#45;&gt;djls_templates -->
<g id="edge14" class="edge">
<title>djls_semantic&#45;&gt;djls_templates</title>
<path fill="none" stroke="#1a4c97" stroke-width="1.5" stroke-dasharray="5,2" d="M452.58,-391.43C452.58,-364.03 452.58,-316 452.58,-316 452.58,-316 637.84,-316 637.84,-316"/>
<polygon fill="#1a4c97" stroke="#1a4c97" stroke-width="1.5" points="637.84,-318.45 644.84,-316 637.84,-313.55 637.84,-318.45"/>
</g>
<!-- djls_intelligence_salsa -->
<g id="node17" class="node">
<title>djls_intelligence_salsa</title>
<polygon fill="#d0d0d0" stroke="#606060" stroke-width="2" points="441,-334 387,-334 387,-298 441,-298 441,-334"/>
<text xml:space="preserve" text-anchor="middle" x="414" y="-312.3" font-family="Helvetica,sans-Serif" font-size="11.00">salsa</text>
</g>
<!-- djls_semantic&#45;&gt;djls_intelligence_salsa -->
<g id="edge15" class="edge">
<title>djls_semantic&#45;&gt;djls_intelligence_salsa</title>
<path fill="none" stroke="#444444" d="M414,-391.43C414,-391.43 414,-343.37 414,-343.37"/>
<polygon fill="#444444" stroke="#444444" points="416.45,-343.37 414,-336.37 411.55,-343.37 416.45,-343.37"/>
</g>
<!-- djls_bench -->
<g id="node19" class="node">
<title>djls_bench</title>
<polygon fill="#dfcde4" stroke="#7e1a97" stroke-width="2" points="717.75,-616 646.25,-616 646.25,-580 717.75,-580 717.75,-616"/>
<text xml:space="preserve" text-anchor="middle" x="682" y="-594.3" font-family="Helvetica,sans-Serif" font-size="11.00">djls&#45;bench</text>
</g>
<!-- djls_bench&#45;&gt;djls_ide -->
<g id="edge3" class="edge">
<title>djls_bench&#45;&gt;djls_ide</title>
<path fill="none" stroke="#7e1a97" stroke-width="1.5" stroke-dasharray="5,2" d="M645.36,-592C593.56,-592 505.17,-592 505.17,-592 505.17,-592 505.17,-531.93 505.17,-531.93"/>
<polygon fill="#7e1a97" stroke="#7e1a97" stroke-width="1.5" points="507.62,-531.93 505.17,-524.93 502.72,-531.93 507.62,-531.93"/>
</g>
<!-- djls_corpus -->
<g id="node20" class="node">
<title>djls_corpus</title>
<polygon fill="#dfcde4" stroke="#7e1a97" stroke-width="2" points="721.62,-522 646.38,-522 646.38,-486 721.62,-486 721.62,-522"/>
<text xml:space="preserve" text-anchor="middle" x="684" y="-500.3" font-family="Helvetica,sans-Serif" font-size="11.00">djls&#45;corpus</text>
</g>
<!-- djls_bench&#45;&gt;djls_corpus -->
<g id="edge2" class="edge">
<title>djls_bench&#45;&gt;djls_corpus</title>
<path fill="none" stroke="#444444" d="M682.06,-579.43C682.06,-579.43 682.06,-531.37 682.06,-531.37"/>
<polygon fill="#444444" stroke="#444444" points="684.51,-531.37 682.06,-524.37 679.61,-531.37 684.51,-531.37"/>
</g>
<!-- djls_tools_salsa -->
<g id="node22" class="node">
<title>djls_tools_salsa</title>
<polygon fill="#d0d0d0" stroke="#606060" stroke-width="2" points="834,-522 780,-522 780,-486 834,-486 834,-522"/>
<text xml:space="preserve" text-anchor="middle" x="807" y="-500.3" font-family="Helvetica,sans-Serif" font-size="11.00">salsa</text>
</g>
<!-- djls_bench&#45;&gt;djls_tools_salsa -->
<g id="edge4" class="edge">
<title>djls_bench&#45;&gt;djls_tools_salsa</title>
<path fill="none" stroke="#444444" d="M718.49,-598C755.39,-598 807,-598 807,-598 807,-598 807,-531.08 807,-531.08"/>
<polygon fill="#444444" stroke="#444444" points="809.45,-531.08 807,-524.08 804.55,-531.08 809.45,-531.08"/>
</g>
<!-- djls_dev -->
<g id="node21" class="node">
<title>djls_dev</title>
<polygon fill="#dfcde4" stroke="#7e1a97" stroke-width="2" points="769.38,-710 710.62,-710 710.62,-674 769.38,-674 769.38,-710"/>
<text xml:space="preserve" text-anchor="middle" x="740" y="-688.3" font-family="Helvetica,sans-Serif" font-size="11.00">djls&#45;dev</text>
</g>

<polygon fill="#971a1a" stroke="#971a1a" points="99.00,-454.50 102.50,-459.50 95.50,-459.50"/>
<polygon fill="#971a1a" stroke="#971a1a" points="153.62,-410.00 148.62,-413.50 148.62,-406.50"/>
<polygon fill="#971a1a" stroke="#971a1a" points="231.80,-410.00 226.80,-413.50 226.80,-406.50"/>
<polygon fill="#971a1a" stroke="#971a1a" points="419.27,-604.00 414.27,-607.50 414.27,-600.50"/>
<polygon fill="#7e971a" stroke="#7e971a" points="930.27,-316.00 925.27,-319.50 925.27,-312.50"/>
<polygon fill="#7e971a" stroke="#7e971a" points="762.38,-269.00 757.38,-272.50 757.38,-265.50"/>
<polygon fill="#7e971a" stroke="#7e971a" points="836.19,-269.00 831.19,-272.50 831.19,-265.50"/>
<polygon fill="#7e971a" stroke="#7e971a" points="814.99,-128.00 809.99,-131.50 809.99,-124.50"/>
<polygon fill="#1a4c97" stroke="#1a4c97" points="523.39,-363.00 518.39,-366.50 518.39,-359.50"/>
<polygon fill="#1a4c97" stroke="#1a4c97" points="634.55,-363.00 629.55,-366.50 629.55,-359.50"/>
<polygon fill="#1a4c97" stroke="#1a4c97" points="547.71,-316.00 542.71,-319.50 542.71,-312.50"/>
<polygon fill="#7e1a97" stroke="#7e1a97" points="572.76,-592.00 577.76,-588.50 577.76,-595.50"/>
</g>
</svg>
