<?xml version="1.0" encoding="UTF-8" standalone="no"?>
<!DOCTYPE svg PUBLIC "-//W3C//DTD SVG 1.1//EN"
 "http://www.w3.org/Graphics/SVG/1.1/DTD/svg11.dtd">
<!-- Generated by graphviz version 14.1.1 (0)
 -->
<!-- Title: dependencies Pages: 1 -->
<svg width="391pt" height="757pt"
 viewBox="0.00 0.00 391.00 757.00" xmlns="http://www.w3.org/2000/svg" xmlns:xlink="http://www.w3.org/1999/xlink">
<g id="graph0" class="graph" transform="scale(1 1) rotate(0) translate(4 753)">
<title>dependencies</title>
<polygon fill="#f8f9fa" stroke="none" points="-4,4 -4,-753 387,-753 387,4 -4,4"/>
<g id="clust1" class="cluster">
<title>cluster_djls</title>
<path fill="#e4cdcd" stroke="#971a1a" stroke-width="2" d="M20,-8C20,-8 363,-8 363,-8 369,-8 375,-14 375,-20 375,-20 375,-729 375,-729 375,-735 369,-741 363,-741 363,-741 20,-741 20,-741 14,-741 8,-735 8,-729 8,-729 8,-20 8,-20 8,-14 14,-8 20,-8"/>
<text xml:space="preserve" text-anchor="middle" x="191.5" y="-723.7" font-family="Helvetica Bold" font-size="14.00">djls</text>
</g>
<!-- djls -->
<g id="node1" class="node">
<title>djls</title>
<polygon fill="#e4cdcd" stroke="#971a1a" stroke-width="2" points="146,-710 92,-710 92,-674 146,-674 146,-710"/>
<text xml:space="preserve" text-anchor="middle" x="119" y="-688.3" font-family="Helvetica,sans-Serif" font-size="11.00">djls</text>
</g>
<!-- djls_server -->
<g id="node11" class="node">
<title>djls_server</title>
<polygon fill="#e4cdcd" stroke="#971a1a" stroke-width="2" points="155.88,-616 82.12,-616 82.12,-580 155.88,-580 155.88,-616"/>
<text xml:space="preserve" text-anchor="middle" x="119" y="-594.3" font-family="Helvetica,sans-Serif" font-size="11.00">djls&#45;server</text>
</g>
<!-- djls&#45;&gt;djls_server -->
<g id="edge1" class="edge">
<title>djls&#45;&gt;djls_server</title>
<path fill="none" stroke="#444444" d="M119,-673.43C119,-673.43 119,-625.37 119,-625.37"/>
<polygon fill="#444444" stroke="#444444" points="121.45,-625.37 119,-618.37 116.55,-625.37 121.45,-625.37"/>
</g>
<!-- djls_bench -->
<g id="node2" class="node">
<title>djls_bench</title>
<polygon fill="#e4cdcd" stroke="#971a1a" stroke-width="2" points="337.75,-616 266.25,-616 266.25,-580 337.75,-580 337.75,-616"/>
<text xml:space="preserve" text-anchor="middle" x="302" y="-594.3" font-family="Helvetica,sans-Serif" font-size="11.00">djls&#45;bench</text>
</g>
<!-- djls_corpus -->
<g id="node4" class="node">
<title>djls_corpus</title>
<polygon fill="#e4cdcd" stroke="#971a1a" stroke-width="2" points="366.62,-522 291.38,-522 291.38,-486 366.62,-486 366.62,-522"/>
<text xml:space="preserve" text-anchor="middle" x="329" y="-500.3" font-family="Helvetica,sans-Serif" font-size="11.00">djls&#45;corpus</text>
</g>
<!-- djls_bench&#45;&gt;djls_corpus -->
<g id="edge2" class="edge">
<title>djls_bench&#45;&gt;djls_corpus</title>
<path fill="none" stroke="#444444" d="M314.56,-579.43C314.56,-579.43 314.56,-531.37 314.56,-531.37"/>
<polygon fill="#444444" stroke="#444444" points="317.01,-531.37 314.56,-524.37 312.11,-531.37 317.01,-531.37"/>
</g>
<!-- djls_ide -->
<g id="node7" class="node">
<title>djls_ide</title>
<polygon fill="#e4cdcd" stroke="#971a1a" stroke-width="2" points="233.5,-522 178.5,-522 178.5,-486 233.5,-486 233.5,-522"/>
<text xml:space="preserve" text-anchor="middle" x="206" y="-500.3" font-family="Helvetica,sans-Serif" font-size="11.00">djls&#45;ide</text>
</g>
<!-- djls_bench&#45;&gt;djls_ide -->
<g id="edge3" class="edge">
<title>djls_bench&#45;&gt;djls_ide</title>
<path fill="none" stroke="#444444" d="M278.81,-579.34C278.81,-553.51 278.81,-510 278.81,-510 278.81,-510 242.87,-510 242.87,-510"/>
<polygon fill="#444444" stroke="#444444" points="242.87,-507.55 235.87,-510 242.87,-512.45 242.87,-507.55"/>
</g>
<!-- djls_conf -->
<g id="node3" class="node">
<title>djls_conf</title>
<polygon fill="#e4cdcd" stroke="#971a1a" stroke-width="2" points="366.88,-240 305.12,-240 305.12,-204 366.88,-204 366.88,-240"/>
<text xml:space="preserve" text-anchor="middle" x="336" y="-218.3" font-family="Helvetica,sans-Serif" font-size="11.00">djls&#45;conf</text>
</g>
<!-- djls_db -->
<g id="node5" class="node">
<title>djls_db</title>
<polygon fill="#e4cdcd" stroke="#971a1a" stroke-width="2" points="120,-522 66,-522 66,-486 120,-486 120,-522"/>
<text xml:space="preserve" text-anchor="middle" x="93" y="-500.3" font-family="Helvetica,sans-Serif" font-size="11.00">djls&#45;db</text>
</g>
<!-- djls_semantic -->
<g id="node10" class="node">
<title>djls_semantic</title>
<polygon fill="#e4cdcd" stroke="#971a1a" stroke-width="2" points="170.38,-428 81.62,-428 81.62,-392 170.38,-392 170.38,-428"/>
<text xml:space="preserve" text-anchor="middle" x="126" y="-406.3" font-family="Helvetica,sans-Serif" font-size="11.00">djls&#45;semantic</text>
</g>
<!-- djls_db&#45;&gt;djls_semantic -->
<g id="edge4" class="edge">
<title>djls_db&#45;&gt;djls_semantic</title>
<path fill="none" stroke="#444444" d="M100.81,-485.43C100.81,-485.43 100.81,-437.37 100.81,-437.37"/>
<polygon fill="#444444" stroke="#444444" points="103.26,-437.37 100.81,-430.37 98.36,-437.37 103.26,-437.37"/>
</g>
<!-- djls_dev -->
<g id="node6" class="node">
<title>djls_dev</title>
<polygon fill="#e4cdcd" stroke="#971a1a" stroke-width="2" points="327.38,-710 268.62,-710 268.62,-674 327.38,-674 327.38,-710"/>
<text xml:space="preserve" text-anchor="middle" x="298" y="-688.3" font-family="Helvetica,sans-Serif" font-size="11.00">djls&#45;dev</text>
</g>
<!-- djls_ide&#45;&gt;djls_semantic -->
<g id="edge5" class="edge">
<title>djls_ide&#45;&gt;djls_semantic</title>
<path fill="none" stroke="#444444" d="M177.64,-498C169.67,-498 163.12,-498 163.12,-498 163.12,-498 163.12,-437.18 163.12,-437.18"/>
<polygon fill="#444444" stroke="#444444" points="165.58,-437.18 163.13,-430.18 160.68,-437.18 165.58,-437.18"/>
</g>
<!-- djls_tower_lsp_server -->
<g id="node17" class="node">
<title>djls_tower_lsp_server</title>
<polygon fill="#d0d0d0" stroke="#606060" stroke-width="2" points="333.62,-428 228.38,-428 228.38,-392 333.62,-392 333.62,-428"/>
<text xml:space="preserve" text-anchor="middle" x="281" y="-406.3" font-family="Helvetica,sans-Serif" font-size="11.00">tower&#45;lsp&#45;server</text>
</g>
<!-- djls_ide&#45;&gt;djls_tower_lsp_server -->
<g id="edge6" class="edge">
<title>djls_ide&#45;&gt;djls_tower_lsp_server</title>
<path fill="none" stroke="#444444" d="M234.04,-498C242.63,-498 249.88,-498 249.88,-498 249.88,-498 249.88,-437.18 249.88,-437.18"/>
<polygon fill="#444444" stroke="#444444" points="252.33,-437.18 249.88,-430.18 247.43,-437.18 252.33,-437.18"/>
</g>
<!-- djls_project -->
<g id="node8" class="node">
<title>djls_project</title>
<polygon fill="#e4cdcd" stroke="#971a1a" stroke-width="2" points="164.38,-334 87.62,-334 87.62,-298 164.38,-298 164.38,-334"/>
<text xml:space="preserve" text-anchor="middle" x="126" y="-312.3" font-family="Helvetica,sans-Serif" font-size="11.00">djls&#45;project</text>
</g>
<!-- djls_project&#45;&gt;djls_conf -->
<g id="edge7" class="edge">
<title>djls_project&#45;&gt;djls_conf</title>
<path fill="none" stroke="#444444" d="M159.75,-297.15C159.75,-284.08 159.75,-269 159.75,-269 159.75,-269 308.75,-269 308.75,-269 308.75,-269 308.75,-249.36 308.75,-249.36"/>
<polygon fill="#444444" stroke="#444444" points="311.2,-249.36 308.75,-242.36 306.3,-249.36 311.2,-249.36"/>
</g>
<!-- djls_python -->
<g id="node9" class="node">
<title>djls_python</title>
<polygon fill="#e4cdcd" stroke="#971a1a" stroke-width="2" points="92.38,-240 15.62,-240 15.62,-204 92.38,-204 92.38,-240"/>
<text xml:space="preserve" text-anchor="middle" x="54" y="-218.3" font-family="Helvetica,sans-Serif" font-size="11.00">djls&#45;python</text>
</g>
<!-- djls_project&#45;&gt;djls_python -->
<g id="edge8" class="edge">
<title>djls_project&#45;&gt;djls_python</title>
<path fill="none" stroke="#444444" d="M95.79,-297.34C95.79,-271.51 95.79,-228 95.79,-228 95.79,-228 95.52,-228 95.52,-228"/>
<polygon fill="#444444" stroke="#444444" points="101.56,-225.55 94.56,-228 101.56,-230.45 101.56,-225.55"/>
</g>
<!-- djls_workspace -->
<g id="node14" class="node">
<title>djls_workspace</title>
<polygon fill="#e4cdcd" stroke="#971a1a" stroke-width="2" points="247.5,-240 150.5,-240 150.5,-204 247.5,-204 247.5,-240"/>
<text xml:space="preserve" text-anchor="middle" x="199" y="-218.3" font-family="Helvetica,sans-Serif" font-size="11.00">djls&#45;workspace</text>
</g>
<!-- djls_project&#45;&gt;djls_workspace -->
<g id="edge9" class="edge">
<title>djls_project&#45;&gt;djls_workspace</title>
<path fill="none" stroke="#444444" d="M155.12,-297.43C155.12,-297.43 155.12,-249.37 155.12,-249.37"/>
<polygon fill="#444444" stroke="#444444" points="157.58,-249.37 155.13,-242.37 152.68,-249.37 157.58,-249.37"/>
</g>
<!-- djls_source -->
<g id="node12" class="node">
<title>djls_source</title>
<polygon fill="#e4cdcd" stroke="#971a1a" stroke-width="2" points="102.62,-146 27.38,-146 27.38,-110 102.62,-110 102.62,-146"/>
<text xml:space="preserve" text-anchor="middle" x="65" y="-124.3" font-family="Helvetica,sans-Serif" font-size="11.00">djls&#45;source</text>
</g>
<!-- djls_python&#45;&gt;djls_source -->
<g id="edge10" class="edge">
<title>djls_python&#45;&gt;djls_source</title>
<path fill="none" stroke="#444444" d="M59.88,-203.43C59.88,-203.43 59.88,-155.37 59.88,-155.37"/>
<polygon fill="#444444" stroke="#444444" points="62.33,-155.37 59.88,-148.37 57.43,-155.37 62.33,-155.37"/>
</g>
<!-- djls_semantic&#45;&gt;djls_project -->
<g id="edge11" class="edge">
<title>djls_semantic&#45;&gt;djls_project</title>
<path fill="none" stroke="#444444" d="M126,-391.43C126,-391.43 126,-343.37 126,-343.37"/>
<polygon fill="#444444" stroke="#444444" points="128.45,-343.37 126,-336.37 123.55,-343.37 128.45,-343.37"/>
</g>
<!-- djls_templates -->
<g id="node13" class="node">
<title>djls_templates</title>
<polygon fill="#e4cdcd" stroke="#971a1a" stroke-width="2" points="316,-334 222,-334 222,-298 316,-298 316,-334"/>
<text xml:space="preserve" text-anchor="middle" x="269" y="-312.3" font-family="Helvetica,sans-Serif" font-size="11.00">djls&#45;templates</text>
</g>
<!-- djls_semantic&#45;&gt;djls_templates -->
<g id="edge12" class="edge">
<title>djls_semantic&#45;&gt;djls_templates</title>
<path fill="none" stroke="#444444" d="M171.33,-410C186.79,-410 200.25,-410 200.25,-410 200.25,-410 200.25,-316 200.25,-316 200.25,-316 212.74,-316 212.74,-316"/>
<polygon fill="#444444" stroke="#444444" points="212.74,-318.45 219.74,-316 212.74,-313.55 212.74,-318.45"/>
</g>
<!-- djls_server&#45;&gt;djls_db -->
<g id="edge13" class="edge">
<title>djls_server&#45;&gt;djls_db</title>
<path fill="none" stroke="#444444" d="M101.06,-579.43C101.06,-579.43 101.06,-531.37 101.06,-531.37"/>
<polygon fill="#444444" stroke="#444444" points="103.51,-531.37 101.06,-524.37 98.61,-531.37 103.51,-531.37"/>
</g>
<!-- djls_server&#45;&gt;djls_ide -->
<g id="edge14" class="edge">
<title>djls_server&#45;&gt;djls_ide</title>
<path fill="none" stroke="#444444" d="M137.94,-579.34C137.94,-553.51 137.94,-510 137.94,-510 137.94,-510 169.02,-510 169.02,-510"/>
<polygon fill="#444444" stroke="#444444" points="169.02,-512.45 176.02,-510 169.02,-507.55 169.02,-512.45"/>
</g>
<!-- djls_salsa -->
<g id="node15" class="node">
<title>djls_salsa</title>
<polygon fill="#d0d0d0" stroke="#606060" stroke-width="2" points="92,-52 38,-52 38,-16 92,-16 92,-52"/>
<text xml:space="preserve" text-anchor="middle" x="65" y="-30.3" font-family="Helvetica,sans-Serif" font-size="11.00">salsa</text>
</g>
<!-- djls_source&#45;&gt;djls_salsa -->
<g id="edge15" class="edge">
<title>djls_source&#45;&gt;djls_salsa</title>
<path fill="none" stroke="#444444" d="M65,-109.43C65,-109.43 65,-61.37 65,-61.37"/>
<polygon fill="#444444" stroke="#444444" points="67.45,-61.37 65,-54.37 62.55,-61.37 67.45,-61.37"/>
</g>
<!-- djls_templates&#45;&gt;djls_conf -->
<g id="edge16" class="edge">
<title>djls_templates&#45;&gt;djls_conf</title>
<path fill="none" stroke="#444444" d="M312.38,-297.43C312.38,-297.43 312.38,-249.37 312.38,-249.37"/>
<polygon fill="#444444" stroke="#444444" points="314.83,-249.37 312.38,-242.37 309.93,-249.37 314.83,-249.37"/>
</g>
<!-- djls_templates&#45;&gt;djls_workspace -->
<g id="edge17" class="edge">
<title>djls_templates&#45;&gt;djls_workspace</title>
<path fill="none" stroke="#444444" d="M234.75,-297.43C234.75,-297.43 234.75,-249.37 234.75,-249.37"/>
<polygon fill="#444444" stroke="#444444" points="237.2,-249.37 234.75,-242.37 232.3,-249.37 237.2,-249.37"/>
</g>
<!-- djls_workspace&#45;&gt;djls_source -->
<g id="edge18" class="edge">
<title>djls_workspace&#45;&gt;djls_source</title>
<path fill="none" stroke="#444444" d="M149.69,-216C124.55,-216 99.21,-216 99.21,-216 99.21,-216 99.21,-155.18 99.21,-155.18"/>
<polygon fill="#444444" stroke="#444444" points="101.66,-155.18 99.21,-148.18 96.76,-155.18 101.66,-155.18"/>
</g>
<!-- djls_tokio -->
<g id="node16" class="node">
<title>djls_tokio</title>
<polygon fill="#d0d0d0" stroke="#606060" stroke-width="2" points="226,-146 172,-146 172,-110 226,-110 226,-146"/>
<text xml:space="preserve" text-anchor="middle" x="199" y="-124.3" font-family="Helvetica,sans-Serif" font-size="11.00">tokio</text>
</g>
<!-- djls_workspace&#45;&gt;djls_tokio -->
<g id="edge19" class="edge">
<title>djls_workspace&#45;&gt;djls_tokio</title>
<path fill="none" stroke="#444444" d="M199,-203.43C199,-203.43 199,-155.37 199,-155.37"/>
<polygon fill="#444444" stroke="#444444" points="201.45,-155.37 199,-148.37 196.55,-155.37 201.45,-155.37"/>
</g>
</g>
</svg>
