<?xml version="1.0" encoding="UTF-8" standalone="no"?>
<!DOCTYPE svg PUBLIC "-//W3C//DTD SVG 1.1//EN"
 "http://www.w3.org/Graphics/SVG/1.1/DTD/svg11.dtd">
<!-- Generated by graphviz version 14.1.1 (0)
 -->
<!-- Title: dependencies Pages: 1 -->
<svg width="950pt" height="757pt"
 viewBox="0.00 0.00 950.00 757.00" xmlns="http://www.w3.org/2000/svg" xmlns:xlink="http://www.w3.org/1999/xlink">
<g id="graph0" class="graph" transform="scale(1 1) rotate(0) translate(4 753)">
<title>dependencies</title>
<polygon fill="#f8f9fa" stroke="none" points="-4,4 -4,-753 946,-753 946,4 -4,4"/>
<g id="clust1" class="cluster">
<title>cluster_djls_app</title>
<path fill="#e4cdcd" stroke="#971a1a" stroke-width="2" d="M383,-572C383,-572 429,-572 429,-572 435,-572 441,-578 441,-584 441,-584 441,-729 441,-729 441,-735 435,-741 429,-741 429,-741 383,-741 383,-741 377,-741 371,-735 371,-729 371,-729 371,-584 371,-584 371,-578 377,-572 383,-572"/>
<text xml:space="preserve" text-anchor="middle" x="406" y="-723.7" font-family="Helvetica Bold" font-size="14.00">djls&#45;app</text>
</g>
<g id="clust2" class="cluster">
<title>cluster_djls_bench</title>
<path fill="#e4d7cd" stroke="#97501a" stroke-width="2" d="M744,-478C744,-478 808,-478 808,-478 814,-478 820,-484 820,-490 820,-490 820,-635 820,-635 820,-641 814,-647 808,-647 808,-647 744,-647 744,-647 738,-647 732,-641 732,-635 732,-635 732,-490 732,-490 732,-484 738,-478 744,-478"/>
<text xml:space="preserve" text-anchor="middle" x="776" y="-629.7" font-family="Helvetica Bold" font-size="14.00">djls&#45;bench</text>
</g>
<g id="clust3" class="cluster">
<title>cluster_djls_conf</title>
<path fill="#e4e0cd" stroke="#97851a" stroke-width="2" d="M582,-196C582,-196 636,-196 636,-196 642,-196 648,-202 648,-208 648,-208 648,-259 648,-259 648,-265 642,-271 636,-271 636,-271 582,-271 582,-271 576,-271 570,-265 570,-259 570,-259 570,-208 570,-208 570,-202 576,-196 582,-196"/>
<text xml:space="preserve" text-anchor="middle" x="609" y="-253.7" font-family="Helvetica Bold" font-size="14.00">djls&#45;conf</text>
</g>
<g id="clust4" class="cluster">
<title>cluster_djls_corpus</title>
<path fill="#dde4cd" stroke="#74971a" stroke-width="2" d="M628,-384C628,-384 696,-384 696,-384 702,-384 708,-390 708,-396 708,-396 708,-541 708,-541 708,-547 702,-553 696,-553 696,-553 628,-553 628,-553 622,-553 616,-547 616,-541 616,-541 616,-396 616,-396 616,-390 622,-384 628,-384"/>
<text xml:space="preserve" text-anchor="middle" x="662" y="-535.7" font-family="Helvetica Bold" font-size="14.00">djls&#45;corpus</text>
</g>
<g id="clust5" class="cluster">
<title>cluster_djls_db</title>
<path fill="#d3e4cd" stroke="#3e971a" stroke-width="2" d="M20,-384C20,-384 66,-384 66,-384 72,-384 78,-390 78,-396 78,-396 78,-541 78,-541 78,-547 72,-553 66,-553 66,-553 20,-553 20,-553 14,-553 8,-547 8,-541 8,-541 8,-396 8,-396 8,-390 14,-384 20,-384"/>
<text xml:space="preserve" text-anchor="middle" x="43" y="-535.7" font-family="Helvetica Bold" font-size="14.00">djls&#45;db</text>
</g>
<g id="clust6" class="cluster">
<title>cluster_djls_dev</title>
<path fill="#cde4d0" stroke="#1a972c" stroke-width="2" d="M872,-572C872,-572 922,-572 922,-572 928,-572 934,-578 934,-584 934,-584 934,-729 934,-729 934,-735 928,-741 922,-741 922,-741 872,-741 872,-741 866,-741 860,-735 860,-729 860,-729 860,-584 860,-584 860,-578 866,-572 872,-572"/>
<text xml:space="preserve" text-anchor="middle" x="897" y="-723.7" font-family="Helvetica Bold" font-size="14.00">djls&#45;dev</text>
</g>
<g id="clust7" class="cluster">
<title>cluster_djls_ide</title>
<path fill="#cde4da" stroke="#1a9762" stroke-width="2" d="M374,-384C374,-384 584,-384 584,-384 590,-384 596,-390 596,-396 596,-396 596,-541 596,-541 596,-547 590,-553 584,-553 584,-553 374,-553 374,-553 368,-553 362,-547 362,-541 362,-541 362,-396 362,-396 362,-390 368,-384 374,-384"/>
<text xml:space="preserve" text-anchor="middle" x="479" y="-535.7" font-family="Helvetica Bold" font-size="14.00">djls&#45;ide</text>
</g>
<g id="clust8" class="cluster">
<title>cluster_djls_project</title>
<path fill="#cde4e4" stroke="#1a9797" stroke-width="2" d="M292,-196C292,-196 360,-196 360,-196 366,-196 372,-202 372,-208 372,-208 372,-353 372,-353 372,-359 366,-365 360,-365 360,-365 292,-365 292,-365 286,-365 280,-359 280,-353 280,-353 280,-208 280,-208 280,-202 286,-196 292,-196"/>
<text xml:space="preserve" text-anchor="middle" x="326" y="-347.7" font-family="Helvetica Bold" font-size="14.00">djls&#45;project</text>
</g>
<g id="clust9" class="cluster">
<title>cluster_djls_python</title>
<path fill="#cddae4" stroke="#1a6297" stroke-width="2" d="M146,-102C146,-102 214,-102 214,-102 220,-102 226,-108 226,-114 226,-114 226,-259 226,-259 226,-265 220,-271 214,-271 214,-271 146,-271 146,-271 140,-271 134,-265 134,-259 134,-259 134,-114 134,-114 134,-108 140,-102 146,-102"/>
<text xml:space="preserve" text-anchor="middle" x="180" y="-253.7" font-family="Helvetica Bold" font-size="14.00">djls&#45;python</text>
</g>
<g id="clust10" class="cluster">
<title>cluster_djls_semantic</title>
<path fill="#cdd0e4" stroke="#1a2c97" stroke-width="2" d="M180,-290C180,-290 260,-290 260,-290 266,-290 272,-296 272,-302 272,-302 272,-447 272,-447 272,-453 266,-459 260,-459 260,-459 180,-459 180,-459 174,-459 168,-453 168,-447 168,-447 168,-302 168,-302 168,-296 174,-290 180,-290"/>
<text xml:space="preserve" text-anchor="middle" x="220" y="-441.7" font-family="Helvetica Bold" font-size="14.00">djls&#45;semantic</text>
</g>
<g id="clust11" class="cluster">
<title>cluster_djls_server</title>
<path fill="#d3cde4" stroke="#3e1a97" stroke-width="2" d="M132,-478C132,-478 342,-478 342,-478 348,-478 354,-484 354,-490 354,-490 354,-635 354,-635 354,-641 348,-647 342,-647 342,-647 132,-647 132,-647 126,-647 120,-641 120,-635 120,-635 120,-490 120,-490 120,-484 126,-478 132,-478"/>
<text xml:space="preserve" text-anchor="middle" x="237" y="-629.7" font-family="Helvetica Bold" font-size="14.00">djls&#45;server</text>
</g>
<g id="clust12" class="cluster">
<title>cluster_djls_source</title>
<path fill="#ddcde4" stroke="#741a97" stroke-width="2" d="M258,-8C258,-8 326,-8 326,-8 332,-8 338,-14 338,-20 338,-20 338,-165 338,-165 338,-171 332,-177 326,-177 326,-177 258,-177 258,-177 252,-177 246,-171 246,-165 246,-165 246,-20 246,-20 246,-14 252,-8 258,-8"/>
<text xml:space="preserve" text-anchor="middle" x="292" y="-159.7" font-family="Helvetica Bold" font-size="14.00">djls&#45;source</text>
</g>
<g id="clust13" class="cluster">
<title>cluster_djls_templates</title>
<path fill="#e4cde0" stroke="#971a85" stroke-width="2" d="M668,-196C668,-196 754,-196 754,-196 760,-196 766,-202 766,-208 766,-208 766,-353 766,-353 766,-359 760,-365 754,-365 754,-365 668,-365 668,-365 662,-365 656,-359 656,-353 656,-353 656,-208 656,-208 656,-202 662,-196 668,-196"/>
<text xml:space="preserve" text-anchor="middle" x="711" y="-347.7" font-family="Helvetica Bold" font-size="14.00">djls&#45;templates</text>
</g>
<g id="clust14" class="cluster">
<title>cluster_djls_workspace</title>
<path fill="#e4cdd7" stroke="#971a50" stroke-width="2" d="M392,-102C392,-102 550,-102 550,-102 556,-102 562,-108 562,-114 562,-114 562,-259 562,-259 562,-265 556,-271 550,-271 550,-271 392,-271 392,-271 386,-271 380,-265 380,-259 380,-259 380,-114 380,-114 380,-108 386,-102 392,-102"/>
<text xml:space="preserve" text-anchor="middle" x="471" y="-253.7" font-family="Helvetica Bold" font-size="14.00">djls&#45;workspace</text>
</g>
<!-- djls -->
<g id="node1" class="node">
<title>djls</title>
<polygon fill="#e4cdcd" stroke="#971a1a" stroke-width="2" points="433,-710 379,-710 379,-674 433,-674 433,-710"/>
<text xml:space="preserve" text-anchor="middle" x="406" y="-688.3" font-family="Helvetica,sans-Serif" font-size="11.00">djls</text>
</g>
<!-- djls_app_clap -->
<g id="node2" class="node">
<title>djls_app_clap</title>
<polygon fill="#d0d0d0" stroke="#606060" stroke-width="2" points="433,-616 379,-616 379,-580 433,-580 433,-616"/>
<text xml:space="preserve" text-anchor="middle" x="406" y="-594.3" font-family="Helvetica,sans-Serif" font-size="11.00">clap</text>
</g>
<!-- djls&#45;&gt;djls_app_clap -->
<g id="edge1" class="edge">
<title>djls&#45;&gt;djls_app_clap</title>
<path fill="none" stroke="#444444" d="M406,-673.43C406,-673.43 406,-625.37 406,-625.37"/>
<polygon fill="#444444" stroke="#444444" points="408.45,-625.37 406,-618.37 403.55,-625.37 408.45,-625.37"/>
</g>
<!-- djls_server -->
<g id="node21" class="node">
<title>djls_server</title>
<polygon fill="#d3cde4" stroke="#3e1a97" stroke-width="2" points="320.88,-616 247.12,-616 247.12,-580 320.88,-580 320.88,-616"/>
<text xml:space="preserve" text-anchor="middle" x="284" y="-594.3" font-family="Helvetica,sans-Serif" font-size="11.00">djls&#45;server</text>
</g>
<!-- djls&#45;&gt;djls_server -->
<g id="edge2" class="edge">
<title>djls&#45;&gt;djls_server</title>
<path fill="none" stroke="#971a1a" stroke-width="1.5" stroke-dasharray="5,2" d="M378.01,-692C341.99,-692 284,-692 284,-692 284,-692 284,-625.84 284,-625.84"/>
<polygon fill="#971a1a" stroke="#971a1a" stroke-width="1.5" points="286.45,-625.84 284,-618.84 281.55,-625.84 286.45,-625.84"/>
</g>
<!-- djls_bench -->
<g id="node3" class="node">
<title>djls_bench</title>
<polygon fill="#e4d7cd" stroke="#97501a" stroke-width="2" points="811.75,-616 740.25,-616 740.25,-580 811.75,-580 811.75,-616"/>
<text xml:space="preserve" text-anchor="middle" x="776" y="-594.3" font-family="Helvetica,sans-Serif" font-size="11.00">djls&#45;bench</text>
</g>
<!-- djls_bench_salsa -->
<g id="node4" class="node">
<title>djls_bench_salsa</title>
<polygon fill="#d0d0d0" stroke="#606060" stroke-width="2" points="812,-522 758,-522 758,-486 812,-486 812,-522"/>
<text xml:space="preserve" text-anchor="middle" x="785" y="-500.3" font-family="Helvetica,sans-Serif" font-size="11.00">salsa</text>
</g>
<!-- djls_bench&#45;&gt;djls_bench_salsa -->
<g id="edge5" class="edge">
<title>djls_bench&#45;&gt;djls_bench_salsa</title>
<path fill="none" stroke="#444444" d="M784.88,-579.43C784.88,-579.43 784.88,-531.37 784.88,-531.37"/>
<polygon fill="#444444" stroke="#444444" points="787.33,-531.37 784.88,-524.37 782.43,-531.37 787.33,-531.37"/>
</g>
<!-- djls_corpus -->
<g id="node6" class="node">
<title>djls_corpus</title>
<polygon fill="#dde4cd" stroke="#74971a" stroke-width="2" points="699.62,-522 624.38,-522 624.38,-486 699.62,-486 699.62,-522"/>
<text xml:space="preserve" text-anchor="middle" x="662" y="-500.3" font-family="Helvetica,sans-Serif" font-size="11.00">djls&#45;corpus</text>
</g>
<!-- djls_bench&#45;&gt;djls_corpus -->
<g id="edge3" class="edge">
<title>djls_bench&#45;&gt;djls_corpus</title>
<path fill="none" stroke="#97501a" stroke-width="1.5" stroke-dasharray="5,2" d="M749.12,-579.43C749.12,-552.03 749.12,-504 749.12,-504 749.12,-504 709.74,-504 709.74,-504"/>
<polygon fill="#97501a" stroke="#97501a" stroke-width="1.5" points="709.74,-501.55 702.74,-504 709.74,-506.45 709.74,-501.55"/>
</g>
<!-- djls_ide -->
<g id="node12" class="node">
<title>djls_ide</title>
<polygon fill="#cde4da" stroke="#1a9762" stroke-width="2" points="458.5,-522 403.5,-522 403.5,-486 458.5,-486 458.5,-522"/>
<text xml:space="preserve" text-anchor="middle" x="431" y="-500.3" font-family="Helvetica,sans-Serif" font-size="11.00">djls&#45;ide</text>
</g>
<!-- djls_bench&#45;&gt;djls_ide -->
<g id="edge4" class="edge">
<title>djls_bench&#45;&gt;djls_ide</title>
<path fill="none" stroke="#97501a" stroke-width="1.5" stroke-dasharray="5,2" d="M739.4,-598C653.41,-598 445.75,-598 445.75,-598 445.75,-598 445.75,-531.84 445.75,-531.84"/>
<polygon fill="#97501a" stroke="#97501a" stroke-width="1.5" points="448.2,-531.84 445.75,-524.84 443.3,-531.84 448.2,-531.84"/>
</g>
<!-- djls_conf -->
<g id="node5" class="node">
<title>djls_conf</title>
<polygon fill="#e4e0cd" stroke="#97851a" stroke-width="2" points="639.88,-240 578.12,-240 578.12,-204 639.88,-204 639.88,-240"/>
<text xml:space="preserve" text-anchor="middle" x="609" y="-218.3" font-family="Helvetica,sans-Serif" font-size="11.00">djls&#45;conf</text>
</g>
<!-- djls_corpus_clap -->
<g id="node7" class="node">
<title>djls_corpus_clap</title>
<polygon fill="#d0d0d0" stroke="#606060" stroke-width="2" points="700,-428 646,-428 646,-392 700,-392 700,-428"/>
<text xml:space="preserve" text-anchor="middle" x="673" y="-406.3" font-family="Helvetica,sans-Serif" font-size="11.00">clap</text>
</g>
<!-- djls_corpus&#45;&gt;djls_corpus_clap -->
<g id="edge6" class="edge">
<title>djls_corpus&#45;&gt;djls_corpus_clap</title>
<path fill="none" stroke="#444444" d="M672.81,-485.43C672.81,-485.43 672.81,-437.37 672.81,-437.37"/>
<polygon fill="#444444" stroke="#444444" points="675.26,-437.37 672.81,-430.37 670.36,-437.37 675.26,-437.37"/>
</g>
<!-- djls_db -->
<g id="node8" class="node">
<title>djls_db</title>
<polygon fill="#d3e4cd" stroke="#3e971a" stroke-width="2" points="70,-522 16,-522 16,-486 70,-486 70,-522"/>
<text xml:space="preserve" text-anchor="middle" x="43" y="-500.3" font-family="Helvetica,sans-Serif" font-size="11.00">djls&#45;db</text>
</g>
<!-- djls_db_salsa -->
<g id="node9" class="node">
<title>djls_db_salsa</title>
<polygon fill="#d0d0d0" stroke="#606060" stroke-width="2" points="70,-428 16,-428 16,-392 70,-392 70,-428"/>
<text xml:space="preserve" text-anchor="middle" x="43" y="-406.3" font-family="Helvetica,sans-Serif" font-size="11.00">salsa</text>
</g>
<!-- djls_db&#45;&gt;djls_db_salsa -->
<g id="edge8" class="edge">
<title>djls_db&#45;&gt;djls_db_salsa</title>
<path fill="none" stroke="#444444" d="M43,-485.43C43,-485.43 43,-437.37 43,-437.37"/>
<polygon fill="#444444" stroke="#444444" points="45.45,-437.37 43,-430.37 40.55,-437.37 45.45,-437.37"/>
</g>
<!-- djls_semantic -->
<g id="node19" class="node">
<title>djls_semantic</title>
<polygon fill="#cdd0e4" stroke="#1a2c97" stroke-width="2" points="264.38,-428 175.62,-428 175.62,-392 264.38,-392 264.38,-428"/>
<text xml:space="preserve" text-anchor="middle" x="220" y="-406.3" font-family="Helvetica,sans-Serif" font-size="11.00">djls&#45;semantic</text>
</g>
<!-- djls_db&#45;&gt;djls_semantic -->
<g id="edge7" class="edge">
<title>djls_db&#45;&gt;djls_semantic</title>
<path fill="none" stroke="#3e971a" stroke-width="1.5" stroke-dasharray="5,2" d="M71,-504C85,-504 99,-504 99,-504 99,-504 99,-410 99,-410 99,-410 165.67,-410 165.67,-410"/>
<polygon fill="#3e971a" stroke="#3e971a" stroke-width="1.5" points="165.67,-412.45 172.67,-410 165.67,-407.55 165.67,-412.45"/>
</g>
<!-- djls_dev -->
<g id="node10" class="node">
<title>djls_dev</title>
<polygon fill="#cde4d0" stroke="#1a972c" stroke-width="2" points="926.38,-710 867.62,-710 867.62,-674 926.38,-674 926.38,-710"/>
<text xml:space="preserve" text-anchor="middle" x="897" y="-688.3" font-family="Helvetica,sans-Serif" font-size="11.00">djls&#45;dev</text>
</g>
<!-- djls_dev_clap -->
<g id="node11" class="node">
<title>djls_dev_clap</title>
<polygon fill="#d0d0d0" stroke="#606060" stroke-width="2" points="924,-616 870,-616 870,-580 924,-580 924,-616"/>
<text xml:space="preserve" text-anchor="middle" x="897" y="-594.3" font-family="Helvetica,sans-Serif" font-size="11.00">clap</text>
</g>
<!-- djls_dev&#45;&gt;djls_dev_clap -->
<g id="edge9" class="edge">
<title>djls_dev&#45;&gt;djls_dev_clap</title>
<path fill="none" stroke="#444444" d="M897,-673.43C897,-673.43 897,-625.37 897,-625.37"/>
<polygon fill="#444444" stroke="#444444" points="899.45,-625.37 897,-618.37 894.55,-625.37 899.45,-625.37"/>
</g>
<!-- djls_ide_salsa -->
<g id="node13" class="node">
<title>djls_ide_salsa</title>
<polygon fill="#d0d0d0" stroke="#606060" stroke-width="2" points="424,-428 370,-428 370,-392 424,-392 424,-428"/>
<text xml:space="preserve" text-anchor="middle" x="397" y="-406.3" font-family="Helvetica,sans-Serif" font-size="11.00">salsa</text>
</g>
<!-- djls_ide&#45;&gt;djls_ide_salsa -->
<g id="edge11" class="edge">
<title>djls_ide&#45;&gt;djls_ide_salsa</title>
<path fill="none" stroke="#444444" d="M417.17,-485.43C417.17,-485.43 417.17,-437.37 417.17,-437.37"/>
<polygon fill="#444444" stroke="#444444" points="419.62,-437.37 417.17,-430.37 414.72,-437.37 419.62,-437.37"/>
</g>
<!-- djls_ide_tower_lsp_server -->
<g id="node14" class="node">
<title>djls_ide_tower_lsp_server</title>
<polygon fill="#d0d0d0" stroke="#606060" stroke-width="2" points="587.62,-428 482.38,-428 482.38,-392 587.62,-392 587.62,-428"/>
<text xml:space="preserve" text-anchor="middle" x="535" y="-406.3" font-family="Helvetica,sans-Serif" font-size="11.00">tower&#45;lsp&#45;server</text>
</g>
<!-- djls_ide&#45;&gt;djls_ide_tower_lsp_server -->
<g id="edge12" class="edge">
<title>djls_ide&#45;&gt;djls_ide_tower_lsp_server</title>
<path fill="none" stroke="#444444" d="M441.25,-485.43C441.25,-458.03 441.25,-410 441.25,-410 441.25,-410 473.04,-410 473.04,-410"/>
<polygon fill="#444444" stroke="#444444" points="473.04,-412.45 480.04,-410 473.04,-407.55 473.04,-412.45"/>
</g>
<!-- djls_ide&#45;&gt;djls_semantic -->
<g id="edge10" class="edge">
<title>djls_ide&#45;&gt;djls_semantic</title>
<path fill="none" stroke="#1a9762" stroke-width="1.5" stroke-dasharray="5,2" d="M410.33,-485.15C410.33,-472.08 410.33,-457 410.33,-457 410.33,-457 252.38,-457 252.38,-457 252.38,-457 252.38,-438.12 252.38,-438.12"/>
<polygon fill="#1a9762" stroke="#1a9762" stroke-width="1.5" points="254.83,-438.12 252.38,-431.12 249.93,-438.12 254.83,-438.12"/>
</g>
<!-- djls_project -->
<g id="node15" class="node">
<title>djls_project</title>
<polygon fill="#cde4e4" stroke="#1a9797" stroke-width="2" points="364.38,-334 287.62,-334 287.62,-298 364.38,-298 364.38,-334"/>
<text xml:space="preserve" text-anchor="middle" x="326" y="-312.3" font-family="Helvetica,sans-Serif" font-size="11.00">djls&#45;project</text>
</g>
<!-- djls_project&#45;&gt;djls_conf -->
<g id="edge13" class="edge">
<title>djls_project&#45;&gt;djls_conf</title>
<path fill="none" stroke="#1a9797" stroke-width="1.5" stroke-dasharray="5,2" d="M365.29,-325C437.25,-325 582.88,-325 582.88,-325 582.88,-325 582.88,-250.16 582.88,-250.16"/>
<polygon fill="#1a9797" stroke="#1a9797" stroke-width="1.5" points="585.33,-250.16 582.88,-243.16 580.43,-250.16 585.33,-250.16"/>
</g>
<!-- djls_project_salsa -->
<g id="node16" class="node">
<title>djls_project_salsa</title>
<polygon fill="#d0d0d0" stroke="#606060" stroke-width="2" points="342,-240 288,-240 288,-204 342,-204 342,-240"/>
<text xml:space="preserve" text-anchor="middle" x="315" y="-218.3" font-family="Helvetica,sans-Serif" font-size="11.00">salsa</text>
</g>
<!-- djls_project&#45;&gt;djls_project_salsa -->
<g id="edge16" class="edge">
<title>djls_project&#45;&gt;djls_project_salsa</title>
<path fill="none" stroke="#444444" d="M315,-297.43C315,-297.43 315,-249.37 315,-249.37"/>
<polygon fill="#444444" stroke="#444444" points="317.45,-249.37 315,-242.37 312.55,-249.37 317.45,-249.37"/>
</g>
<!-- djls_python -->
<g id="node17" class="node">
<title>djls_python</title>
<polygon fill="#cddae4" stroke="#1a6297" stroke-width="2" points="218.38,-240 141.62,-240 141.62,-204 218.38,-204 218.38,-240"/>
<text xml:space="preserve" text-anchor="middle" x="180" y="-218.3" font-family="Helvetica,sans-Serif" font-size="11.00">djls&#45;python</text>
</g>
<!-- djls_project&#45;&gt;djls_python -->
<g id="edge14" class="edge">
<title>djls_project&#45;&gt;djls_python</title>
<path fill="none" stroke="#1a9797" stroke-width="1.5" stroke-dasharray="5,2" d="M287.1,-322C280.64,-322 276,-322 276,-322 276,-322 276,-228 276,-228 276,-228 228.59,-228 228.59,-228"/>
<polygon fill="#1a9797" stroke="#1a9797" stroke-width="1.5" points="228.59,-225.55 221.59,-228 228.59,-230.45 228.59,-225.55"/>
</g>
<!-- djls_workspace -->
<g id="node28" class="node">
<title>djls_workspace</title>
<polygon fill="#e4cdd7" stroke="#971a50" stroke-width="2" points="497.5,-240 400.5,-240 400.5,-204 497.5,-204 497.5,-240"/>
<text xml:space="preserve" text-anchor="middle" x="449" y="-218.3" font-family="Helvetica,sans-Serif" font-size="11.00">djls&#45;workspace</text>
</g>
<!-- djls_project&#45;&gt;djls_workspace -->
<g id="edge15" class="edge">
<title>djls_project&#45;&gt;djls_workspace</title>
<path fill="none" stroke="#1a9797" stroke-width="1.5" stroke-dasharray="5,2" d="M353.19,-297.34C353.19,-271.51 353.19,-228 353.19,-228 353.19,-228 390.42,-228 390.42,-228"/>
<polygon fill="#1a9797" stroke="#1a9797" stroke-width="1.5" points="390.42,-230.45 397.42,-228 390.42,-225.55 390.42,-230.45"/>
</g>
<!-- djls_python_salsa -->
<g id="node18" class="node">
<title>djls_python_salsa</title>
<polygon fill="#d0d0d0" stroke="#606060" stroke-width="2" points="196,-146 142,-146 142,-110 196,-110 196,-146"/>
<text xml:space="preserve" text-anchor="middle" x="169" y="-124.3" font-family="Helvetica,sans-Serif" font-size="11.00">salsa</text>
</g>
<!-- djls_python&#45;&gt;djls_python_salsa -->
<g id="edge18" class="edge">
<title>djls_python&#45;&gt;djls_python_salsa</title>
<path fill="none" stroke="#444444" d="M169,-203.43C169,-203.43 169,-155.37 169,-155.37"/>
<polygon fill="#444444" stroke="#444444" points="171.45,-155.37 169,-148.37 166.55,-155.37 171.45,-155.37"/>
</g>
<!-- djls_source -->
<g id="node24" class="node">
<title>djls_source</title>
<polygon fill="#ddcde4" stroke="#741a97" stroke-width="2" points="329.62,-146 254.38,-146 254.38,-110 329.62,-110 329.62,-146"/>
<text xml:space="preserve" text-anchor="middle" x="292" y="-124.3" font-family="Helvetica,sans-Serif" font-size="11.00">djls&#45;source</text>
</g>
<!-- djls_python&#45;&gt;djls_source -->
<g id="edge17" class="edge">
<title>djls_python&#45;&gt;djls_source</title>
<path fill="none" stroke="#1a6297" stroke-width="1.5" stroke-dasharray="5,2" d="M219.22,-216C239.22,-216 259.38,-216 259.38,-216 259.38,-216 259.38,-155.93 259.38,-155.93"/>
<polygon fill="#1a6297" stroke="#1a6297" stroke-width="1.5" points="261.83,-155.93 259.38,-148.93 256.93,-155.93 261.83,-155.93"/>
</g>
<!-- djls_semantic&#45;&gt;djls_project -->
<g id="edge19" class="edge">
<title>djls_semantic&#45;&gt;djls_project</title>
<path fill="none" stroke="#1a2c97" stroke-width="1.5" stroke-dasharray="5,2" d="M261.88,-391.19C261.88,-362.22 261.88,-310 261.88,-310 261.88,-310 277.58,-310 277.58,-310"/>
<polygon fill="#1a2c97" stroke="#1a2c97" stroke-width="1.5" points="277.58,-312.45 284.58,-310 277.58,-307.55 277.58,-312.45"/>
</g>
<!-- djls_semantic_salsa -->
<g id="node20" class="node">
<title>djls_semantic_salsa</title>
<polygon fill="#d0d0d0" stroke="#606060" stroke-width="2" points="230,-334 176,-334 176,-298 230,-298 230,-334"/>
<text xml:space="preserve" text-anchor="middle" x="203" y="-312.3" font-family="Helvetica,sans-Serif" font-size="11.00">salsa</text>
</g>
<!-- djls_semantic&#45;&gt;djls_semantic_salsa -->
<g id="edge21" class="edge">
<title>djls_semantic&#45;&gt;djls_semantic_salsa</title>
<path fill="none" stroke="#444444" d="M203,-391.43C203,-391.43 203,-343.37 203,-343.37"/>
<polygon fill="#444444" stroke="#444444" points="205.45,-343.37 203,-336.37 200.55,-343.37 205.45,-343.37"/>
</g>
<!-- djls_templates -->
<g id="node26" class="node">
<title>djls_templates</title>
<polygon fill="#e4cde0" stroke="#971a85" stroke-width="2" points="758,-334 664,-334 664,-298 758,-298 758,-334"/>
<text xml:space="preserve" text-anchor="middle" x="711" y="-312.3" font-family="Helvetica,sans-Serif" font-size="11.00">djls&#45;templates</text>
</g>
<!-- djls_semantic&#45;&gt;djls_templates -->
<g id="edge20" class="edge">
<title>djls_semantic&#45;&gt;djls_templates</title>
<path fill="none" stroke="#1a2c97" stroke-width="1.5" stroke-dasharray="5,2" d="M256.88,-391.15C256.88,-378.08 256.88,-363 256.88,-363 256.88,-363 682,-363 682,-363 682,-363 682,-344.12 682,-344.12"/>
<polygon fill="#1a2c97" stroke="#1a2c97" stroke-width="1.5" points="684.45,-344.12 682,-337.12 679.55,-344.12 684.45,-344.12"/>
</g>
<!-- djls_server&#45;&gt;djls_db -->
<g id="edge22" class="edge">
<title>djls_server&#45;&gt;djls_db</title>
<path fill="none" stroke="#3e1a97" stroke-width="1.5" stroke-dasharray="5,2" d="M246.34,-604C178.56,-604 43,-604 43,-604 43,-604 43,-532.08 43,-532.08"/>
<polygon fill="#3e1a97" stroke="#3e1a97" stroke-width="1.5" points="45.45,-532.08 43,-525.08 40.55,-532.08 45.45,-532.08"/>
</g>
<!-- djls_server&#45;&gt;djls_ide -->
<g id="edge23" class="edge">
<title>djls_server&#45;&gt;djls_ide</title>
<path fill="none" stroke="#3e1a97" stroke-width="1.5" stroke-dasharray="5,2" d="M321.86,-598C346.66,-598 374.5,-598 374.5,-598 374.5,-598 374.5,-504 374.5,-504 374.5,-504 393.48,-504 393.48,-504"/>
<polygon fill="#3e1a97" stroke="#3e1a97" stroke-width="1.5" points="393.48,-506.45 400.48,-504 393.48,-501.55 393.48,-506.45"/>
</g>
<!-- djls_server_tokio -->
<g id="node22" class="node">
<title>djls_server_tokio</title>
<polygon fill="#d0d0d0" stroke="#606060" stroke-width="2" points="182,-522 128,-522 128,-486 182,-486 182,-522"/>
<text xml:space="preserve" text-anchor="middle" x="155" y="-500.3" font-family="Helvetica,sans-Serif" font-size="11.00">tokio</text>
</g>
<!-- djls_server&#45;&gt;djls_server_tokio -->
<g id="edge24" class="edge">
<title>djls_server&#45;&gt;djls_server_tokio</title>
<path fill="none" stroke="#444444" d="M246.34,-592C208.26,-592 155,-592 155,-592 155,-592 155,-531.18 155,-531.18"/>
<polygon fill="#444444" stroke="#444444" points="157.45,-531.18 155,-524.18 152.55,-531.18 157.45,-531.18"/>
</g>
<!-- djls_server_tower_lsp_server -->
<g id="node23" class="node">
<title>djls_server_tower_lsp_server</title>
<polygon fill="#d0d0d0" stroke="#606060" stroke-width="2" points="345.62,-522 240.38,-522 240.38,-486 345.62,-486 345.62,-522"/>
<text xml:space="preserve" text-anchor="middle" x="293" y="-500.3" font-family="Helvetica,sans-Serif" font-size="11.00">tower&#45;lsp&#45;server</text>
</g>
<!-- djls_server&#45;&gt;djls_server_tower_lsp_server -->
<g id="edge25" class="edge">
<title>djls_server&#45;&gt;djls_server_tower_lsp_server</title>
<path fill="none" stroke="#444444" d="M284,-579.43C284,-579.43 284,-531.37 284,-531.37"/>
<polygon fill="#444444" stroke="#444444" points="286.45,-531.37 284,-524.37 281.55,-531.37 286.45,-531.37"/>
</g>
<!-- djls_source_salsa -->
<g id="node25" class="node">
<title>djls_source_salsa</title>
<polygon fill="#d0d0d0" stroke="#606060" stroke-width="2" points="319,-52 265,-52 265,-16 319,-16 319,-52"/>
<text xml:space="preserve" text-anchor="middle" x="292" y="-30.3" font-family="Helvetica,sans-Serif" font-size="11.00">salsa</text>
</g>
<!-- djls_source&#45;&gt;djls_source_salsa -->
<g id="edge26" class="edge">
<title>djls_source&#45;&gt;djls_source_salsa</title>
<path fill="none" stroke="#444444" d="M292,-109.43C292,-109.43 292,-61.37 292,-61.37"/>
<polygon fill="#444444" stroke="#444444" points="294.45,-61.37 292,-54.37 289.55,-61.37 294.45,-61.37"/>
</g>
<!-- djls_templates&#45;&gt;djls_conf -->
<g id="edge27" class="edge">
<title>djls_templates&#45;&gt;djls_conf</title>
<path fill="none" stroke="#971a85" stroke-width="1.5" stroke-dasharray="5,2" d="M663.3,-307C646.69,-307 632.12,-307 632.12,-307 632.12,-307 632.12,-250.13 632.12,-250.13"/>
<polygon fill="#971a85" stroke="#971a85" stroke-width="1.5" points="634.58,-250.13 632.13,-243.13 629.68,-250.13 634.58,-250.13"/>
</g>
<!-- djls_templates_salsa -->
<g id="node27" class="node">
<title>djls_templates_salsa</title>
<polygon fill="#d0d0d0" stroke="#606060" stroke-width="2" points="752,-240 698,-240 698,-204 752,-204 752,-240"/>
<text xml:space="preserve" text-anchor="middle" x="725" y="-218.3" font-family="Helvetica,sans-Serif" font-size="11.00">salsa</text>
</g>
<!-- djls_templates&#45;&gt;djls_templates_salsa -->
<g id="edge29" class="edge">
<title>djls_templates&#45;&gt;djls_templates_salsa</title>
<path fill="none" stroke="#444444" d="M725,-297.43C725,-297.43 725,-249.37 725,-249.37"/>
<polygon fill="#444444" stroke="#444444" points="727.45,-249.37 725,-242.37 722.55,-249.37 727.45,-249.37"/>
</g>
<!-- djls_templates&#45;&gt;djls_workspace -->
<g id="edge28" class="edge">
<title>djls_templates&#45;&gt;djls_workspace</title>
<path fill="none" stroke="#971a85" stroke-width="1.5" stroke-dasharray="5,2" d="M663.03,-316C598.02,-316 489.94,-316 489.94,-316 489.94,-316 489.94,-249.84 489.94,-249.84"/>
<polygon fill="#971a85" stroke="#971a85" stroke-width="1.5" points="492.39,-249.84 489.94,-242.84 487.49,-249.84 492.39,-249.84"/>
</g>
<!-- djls_workspace&#45;&gt;djls_source -->
<g id="edge30" class="edge">
<title>djls_workspace&#45;&gt;djls_source</title>
<path fill="none" stroke="#971a50" stroke-width="1.5" stroke-dasharray="5,2" d="M399.62,-216C388.04,-216 379,-216 379,-216 379,-216 379,-128 379,-128 379,-128 339.68,-128 339.68,-128"/>
<polygon fill="#971a50" stroke="#971a50" stroke-width="1.5" points="339.68,-125.55 332.68,-128 339.68,-130.45 339.68,-125.55"/>
</g>
<!-- djls_workspace_salsa -->
<g id="node29" class="node">
<title>djls_workspace_salsa</title>
<polygon fill="#d0d0d0" stroke="#606060" stroke-width="2" points="442,-146 388,-146 388,-110 442,-110 442,-146"/>
<text xml:space="preserve" text-anchor="middle" x="415" y="-124.3" font-family="Helvetica,sans-Serif" font-size="11.00">salsa</text>
</g>
<!-- djls_workspace&#45;&gt;djls_workspace_salsa -->
<g id="edge31" class="edge">
<title>djls_workspace&#45;&gt;djls_workspace_salsa</title>
<path fill="none" stroke="#444444" d="M421.25,-203.43C421.25,-203.43 421.25,-155.37 421.25,-155.37"/>
<polygon fill="#444444" stroke="#444444" points="423.7,-155.37 421.25,-148.37 418.8,-155.37 423.7,-155.37"/>
</g>
<!-- djls_workspace_tokio -->
<g id="node30" class="node">
<title>djls_workspace_tokio</title>
<polygon fill="#d0d0d0" stroke="#606060" stroke-width="2" points="554,-146 500,-146 500,-110 554,-110 554,-146"/>
<text xml:space="preserve" text-anchor="middle" x="527" y="-124.3" font-family="Helvetica,sans-Serif" font-size="11.00">tokio</text>
</g>
<!-- djls_workspace&#45;&gt;djls_workspace_tokio -->
<g id="edge32" class="edge">
<title>djls_workspace&#45;&gt;djls_workspace_tokio</title>
<path fill="none" stroke="#444444" d="M498.4,-222C513.88,-222 527,-222 527,-222 527,-222 527,-155.08 527,-155.08"/>
<polygon fill="#444444" stroke="#444444" points="529.45,-155.08 527,-148.08 524.55,-155.08 529.45,-155.08"/>
</g>

<polygon fill="#971a1a" stroke="#971a1a" points="328.50,-692.00 333.50,-688.50 333.50,-695.50"/>
<polygon fill="#97501a" stroke="#97501a" points="678.17,-598.00 683.17,-594.50 683.17,-601.50"/>
<polygon fill="#97501a" stroke="#97501a" points="590.08,-598.00 595.08,-594.50 595.08,-601.50"/>
<polygon fill="#3e971a" stroke="#3e971a" points="99.00,-454.50 102.50,-459.50 95.50,-459.50"/>
<polygon fill="#1a9762" stroke="#1a9762" points="328.86,-457.00 333.86,-453.50 333.86,-460.50"/>
<polygon fill="#1a9797" stroke="#1a9797" points="411.31,-325.00 406.31,-328.50 406.31,-321.50"/>
<polygon fill="#1a9797" stroke="#1a9797" points="476.59,-325.00 471.59,-328.50 471.59,-321.50"/>
<polygon fill="#1a9797" stroke="#1a9797" points="276.00,-272.50 279.50,-277.50 272.50,-277.50"/>
<polygon fill="#1a2c97" stroke="#1a2c97" points="261.88,-348.10 265.38,-353.10 258.38,-353.10"/>
<polygon fill="#1a2c97" stroke="#1a2c97" points="344.40,-363.00 339.40,-366.50 339.40,-359.50"/>
<polygon fill="#1a2c97" stroke="#1a2c97" points="471.94,-363.00 466.94,-366.50 466.94,-359.50"/>
<polygon fill="#3e1a97" stroke="#3e1a97" points="203.17,-604.00 208.17,-600.50 208.17,-607.50"/>
<polygon fill="#3e1a97" stroke="#3e1a97" points="142.17,-604.00 147.17,-600.50 147.17,-607.50"/>
<polygon fill="#3e1a97" stroke="#3e1a97" points="374.50,-548.50 378.00,-553.50 371.00,-553.50"/>
<polygon fill="#971a85" stroke="#971a85" points="573.99,-316.00 578.99,-312.50 578.99,-319.50"/>
<polygon fill="#971a50" stroke="#971a50" points="379.00,-169.50 382.50,-174.50 375.50,-174.50"/>
</g>
</svg>
