<?xml version="1.0" encoding="UTF-8" standalone="no"?>
<!DOCTYPE svg PUBLIC "-//W3C//DTD SVG 1.1//EN"
 "http://www.w3.org/Graphics/SVG/1.1/DTD/svg11.dtd">
<!-- Generated by graphviz version 14.1.1 (0)
 -->
<!-- Title: dependencies Pages: 1 -->
<svg width="604pt" height="757pt"
 viewBox="0.00 0.00 604.00 757.00" xmlns="http://www.w3.org/2000/svg" xmlns:xlink="http://www.w3.org/1999/xlink">
<g id="graph0" class="graph" transform="scale(1 1) rotate(0) translate(4 753)">
<title>dependencies</title>
<polygon fill="#f8f9fa" stroke="none" points="-4,4 -4,-753 600,-753 600,4 -4,4"/>
<g id="clust1" class="cluster">
<title>cluster_djls</title>
<path fill="#e4cdcd" stroke="#971a1a" stroke-width="2" d="M20,-8C20,-8 363,-8 363,-8 369,-8 375,-14 375,-20 375,-20 375,-729 375,-729 375,-735 369,-741 363,-741 363,-741 20,-741 20,-741 14,-741 8,-735 8,-729 8,-729 8,-20 8,-20 8,-14 14,-8 20,-8"/>
<text xml:space="preserve" text-anchor="middle" x="191.5" y="-723.7" font-family="Helvetica Bold" font-size="14.00">djls</text>
</g>
<g id="clust2" class="cluster">
<title>cluster_djls_tools</title>
<path fill="#cde4e4" stroke="#1a9797" stroke-width="2" d="M395,-572C395,-572 576,-572 576,-572 582,-572 588,-578 588,-584 588,-584 588,-729 588,-729 588,-735 582,-741 576,-741 576,-741 395,-741 395,-741 389,-741 383,-735 383,-729 383,-729 383,-584 383,-584 383,-578 389,-572 395,-572"/>
<text xml:space="preserve" text-anchor="middle" x="485.5" y="-723.7" font-family="Helvetica Bold" font-size="14.00">djls&#45;tools</text>
</g>
<!-- djls -->
<g id="node1" class="node">
<title>djls</title>
<polygon fill="#e4cdcd" stroke="#971a1a" stroke-width="2" points="287,-710 233,-710 233,-674 287,-674 287,-710"/>
<text xml:space="preserve" text-anchor="middle" x="260" y="-688.3" font-family="Helvetica,sans-Serif" font-size="11.00">djls</text>
</g>
<!-- djls_server -->
<g id="node8" class="node">
<title>djls_server</title>
<polygon fill="#e4cdcd" stroke="#971a1a" stroke-width="2" points="296.88,-616 223.12,-616 223.12,-580 296.88,-580 296.88,-616"/>
<text xml:space="preserve" text-anchor="middle" x="260" y="-594.3" font-family="Helvetica,sans-Serif" font-size="11.00">djls&#45;server</text>
</g>
<!-- djls&#45;&gt;djls_server -->
<g id="edge1" class="edge">
<title>djls&#45;&gt;djls_server</title>
<path fill="none" stroke="#444444" d="M260,-673.43C260,-673.43 260,-625.37 260,-625.37"/>
<polygon fill="#444444" stroke="#444444" points="262.45,-625.37 260,-618.37 257.55,-625.37 262.45,-625.37"/>
</g>
<!-- djls_conf -->
<g id="node2" class="node">
<title>djls_conf</title>
<polygon fill="#e4cdcd" stroke="#971a1a" stroke-width="2" points="366.88,-240 305.12,-240 305.12,-204 366.88,-204 366.88,-240"/>
<text xml:space="preserve" text-anchor="middle" x="336" y="-218.3" font-family="Helvetica,sans-Serif" font-size="11.00">djls&#45;conf</text>
</g>
<!-- djls_db -->
<g id="node3" class="node">
<title>djls_db</title>
<polygon fill="#e4cdcd" stroke="#971a1a" stroke-width="2" points="219,-522 165,-522 165,-486 219,-486 219,-522"/>
<text xml:space="preserve" text-anchor="middle" x="192" y="-500.3" font-family="Helvetica,sans-Serif" font-size="11.00">djls&#45;db</text>
</g>
<!-- djls_semantic -->
<g id="node7" class="node">
<title>djls_semantic</title>
<polygon fill="#e4cdcd" stroke="#971a1a" stroke-width="2" points="203.38,-428 114.62,-428 114.62,-392 203.38,-392 203.38,-428"/>
<text xml:space="preserve" text-anchor="middle" x="159" y="-406.3" font-family="Helvetica,sans-Serif" font-size="11.00">djls&#45;semantic</text>
</g>
<!-- djls_db&#45;&gt;djls_semantic -->
<g id="edge4" class="edge">
<title>djls_db&#45;&gt;djls_semantic</title>
<path fill="none" stroke="#444444" d="M184.19,-485.43C184.19,-485.43 184.19,-437.37 184.19,-437.37"/>
<polygon fill="#444444" stroke="#444444" points="186.64,-437.37 184.19,-430.37 181.74,-437.37 186.64,-437.37"/>
</g>
<!-- djls_ide -->
<g id="node4" class="node">
<title>djls_ide</title>
<polygon fill="#e4cdcd" stroke="#971a1a" stroke-width="2" points="366.5,-522 311.5,-522 311.5,-486 366.5,-486 366.5,-522"/>
<text xml:space="preserve" text-anchor="middle" x="339" y="-500.3" font-family="Helvetica,sans-Serif" font-size="11.00">djls&#45;ide</text>
</g>
<!-- djls_ide&#45;&gt;djls_semantic -->
<g id="edge5" class="edge">
<title>djls_ide&#45;&gt;djls_semantic</title>
<path fill="none" stroke="#444444" d="M310.84,-504C284.77,-504 250,-504 250,-504 250,-504 250,-416 250,-416 250,-416 212.75,-416 212.75,-416"/>
<polygon fill="#444444" stroke="#444444" points="212.75,-413.55 205.75,-416 212.75,-418.45 212.75,-413.55"/>
</g>
<!-- djls_tower_lsp_server -->
<g id="node14" class="node">
<title>djls_tower_lsp_server</title>
<polygon fill="#d0d0d0" stroke="#606060" stroke-width="2" points="366.62,-428 261.38,-428 261.38,-392 366.62,-392 366.62,-428"/>
<text xml:space="preserve" text-anchor="middle" x="314" y="-406.3" font-family="Helvetica,sans-Serif" font-size="11.00">tower&#45;lsp&#45;server</text>
</g>
<!-- djls_ide&#45;&gt;djls_tower_lsp_server -->
<g id="edge6" class="edge">
<title>djls_ide&#45;&gt;djls_tower_lsp_server</title>
<path fill="none" stroke="#444444" d="M339,-485.43C339,-485.43 339,-437.37 339,-437.37"/>
<polygon fill="#444444" stroke="#444444" points="341.45,-437.37 339,-430.37 336.55,-437.37 341.45,-437.37"/>
</g>
<!-- djls_project -->
<g id="node5" class="node">
<title>djls_project</title>
<polygon fill="#e4cdcd" stroke="#971a1a" stroke-width="2" points="197.38,-334 120.62,-334 120.62,-298 197.38,-298 197.38,-334"/>
<text xml:space="preserve" text-anchor="middle" x="159" y="-312.3" font-family="Helvetica,sans-Serif" font-size="11.00">djls&#45;project</text>
</g>
<!-- djls_project&#45;&gt;djls_conf -->
<g id="edge7" class="edge">
<title>djls_project&#45;&gt;djls_conf</title>
<path fill="none" stroke="#444444" d="M198.11,-316C223.73,-316 252.5,-316 252.5,-316 252.5,-316 252.5,-222 252.5,-222 252.5,-222 295.92,-222 295.92,-222"/>
<polygon fill="#444444" stroke="#444444" points="295.92,-224.45 302.92,-222 295.92,-219.55 295.92,-224.45"/>
</g>
<!-- djls_python -->
<g id="node6" class="node">
<title>djls_python</title>
<polygon fill="#e4cdcd" stroke="#971a1a" stroke-width="2" points="92.38,-240 15.62,-240 15.62,-204 92.38,-204 92.38,-240"/>
<text xml:space="preserve" text-anchor="middle" x="54" y="-218.3" font-family="Helvetica,sans-Serif" font-size="11.00">djls&#45;python</text>
</g>
<!-- djls_project&#45;&gt;djls_python -->
<g id="edge8" class="edge">
<title>djls_project&#45;&gt;djls_python</title>
<path fill="none" stroke="#444444" d="M135.56,-297.34C135.56,-271.51 135.56,-228 135.56,-228 135.56,-228 101.86,-228 101.86,-228"/>
<polygon fill="#444444" stroke="#444444" points="101.86,-225.55 94.86,-228 101.86,-230.45 101.86,-225.55"/>
</g>
<!-- djls_workspace -->
<g id="node11" class="node">
<title>djls_workspace</title>
<polygon fill="#e4cdcd" stroke="#971a1a" stroke-width="2" points="247.5,-240 150.5,-240 150.5,-204 247.5,-204 247.5,-240"/>
<text xml:space="preserve" text-anchor="middle" x="199" y="-218.3" font-family="Helvetica,sans-Serif" font-size="11.00">djls&#45;workspace</text>
</g>
<!-- djls_project&#45;&gt;djls_workspace -->
<g id="edge9" class="edge">
<title>djls_project&#45;&gt;djls_workspace</title>
<path fill="none" stroke="#444444" d="M173.94,-297.43C173.94,-297.43 173.94,-249.37 173.94,-249.37"/>
<polygon fill="#444444" stroke="#444444" points="176.39,-249.37 173.94,-242.37 171.49,-249.37 176.39,-249.37"/>
</g>
<!-- djls_source -->
<g id="node9" class="node">
<title>djls_source</title>
<polygon fill="#e4cdcd" stroke="#971a1a" stroke-width="2" points="102.62,-146 27.38,-146 27.38,-110 102.62,-110 102.62,-146"/>
<text xml:space="preserve" text-anchor="middle" x="65" y="-124.3" font-family="Helvetica,sans-Serif" font-size="11.00">djls&#45;source</text>
</g>
<!-- djls_python&#45;&gt;djls_source -->
<g id="edge10" class="edge">
<title>djls_python&#45;&gt;djls_source</title>
<path fill="none" stroke="#444444" d="M59.88,-203.43C59.88,-203.43 59.88,-155.37 59.88,-155.37"/>
<polygon fill="#444444" stroke="#444444" points="62.33,-155.37 59.88,-148.37 57.43,-155.37 62.33,-155.37"/>
</g>
<!-- djls_semantic&#45;&gt;djls_project -->
<g id="edge11" class="edge">
<title>djls_semantic&#45;&gt;djls_project</title>
<path fill="none" stroke="#444444" d="M159,-391.43C159,-391.43 159,-343.37 159,-343.37"/>
<polygon fill="#444444" stroke="#444444" points="161.45,-343.37 159,-336.37 156.55,-343.37 161.45,-343.37"/>
</g>
<!-- djls_templates -->
<g id="node10" class="node">
<title>djls_templates</title>
<polygon fill="#e4cdcd" stroke="#971a1a" stroke-width="2" points="349,-334 255,-334 255,-298 349,-298 349,-334"/>
<text xml:space="preserve" text-anchor="middle" x="302" y="-312.3" font-family="Helvetica,sans-Serif" font-size="11.00">djls&#45;templates</text>
</g>
<!-- djls_semantic&#45;&gt;djls_templates -->
<g id="edge12" class="edge">
<title>djls_semantic&#45;&gt;djls_templates</title>
<path fill="none" stroke="#444444" d="M204.36,-404C208.51,-404 211.19,-404 211.19,-404 211.19,-404 211.19,-325 211.19,-325 211.19,-325 245.69,-325 245.69,-325"/>
<polygon fill="#444444" stroke="#444444" points="245.69,-327.45 252.69,-325 245.69,-322.55 245.69,-327.45"/>
</g>
<!-- djls_server&#45;&gt;djls_db -->
<g id="edge13" class="edge">
<title>djls_server&#45;&gt;djls_db</title>
<path fill="none" stroke="#444444" d="M239.38,-579.11C239.38,-549.37 239.38,-495 239.38,-495 239.38,-495 228.35,-495 228.35,-495"/>
<polygon fill="#444444" stroke="#444444" points="228.35,-492.55 221.35,-495 228.35,-497.45 228.35,-492.55"/>
</g>
<!-- djls_server&#45;&gt;djls_ide -->
<g id="edge14" class="edge">
<title>djls_server&#45;&gt;djls_ide</title>
<path fill="none" stroke="#444444" d="M279.12,-579.14C279.12,-554.09 279.12,-513 279.12,-513 279.12,-513 302.3,-513 302.3,-513"/>
<polygon fill="#444444" stroke="#444444" points="302.3,-515.45 309.3,-513 302.3,-510.55 302.3,-515.45"/>
</g>
<!-- djls_salsa -->
<g id="node12" class="node">
<title>djls_salsa</title>
<polygon fill="#d0d0d0" stroke="#606060" stroke-width="2" points="92,-52 38,-52 38,-16 92,-16 92,-52"/>
<text xml:space="preserve" text-anchor="middle" x="65" y="-30.3" font-family="Helvetica,sans-Serif" font-size="11.00">salsa</text>
</g>
<!-- djls_source&#45;&gt;djls_salsa -->
<g id="edge15" class="edge">
<title>djls_source&#45;&gt;djls_salsa</title>
<path fill="none" stroke="#444444" d="M65,-109.43C65,-109.43 65,-61.37 65,-61.37"/>
<polygon fill="#444444" stroke="#444444" points="67.45,-61.37 65,-54.37 62.55,-61.37 67.45,-61.37"/>
</g>
<!-- djls_templates&#45;&gt;djls_conf -->
<g id="edge16" class="edge">
<title>djls_templates&#45;&gt;djls_conf</title>
<path fill="none" stroke="#444444" d="M327.06,-297.43C327.06,-297.43 327.06,-249.37 327.06,-249.37"/>
<polygon fill="#444444" stroke="#444444" points="329.51,-249.37 327.06,-242.37 324.61,-249.37 329.51,-249.37"/>
</g>
<!-- djls_templates&#45;&gt;djls_workspace -->
<g id="edge17" class="edge">
<title>djls_templates&#45;&gt;djls_workspace</title>
<path fill="none" stroke="#444444" d="M254.03,-307C241.41,-307 231.25,-307 231.25,-307 231.25,-307 231.25,-249.38 231.25,-249.38"/>
<polygon fill="#444444" stroke="#444444" points="233.7,-249.38 231.25,-242.38 228.8,-249.38 233.7,-249.38"/>
</g>
<!-- djls_workspace&#45;&gt;djls_source -->
<g id="edge18" class="edge">
<title>djls_workspace&#45;&gt;djls_source</title>
<path fill="none" stroke="#444444" d="M149.74,-216C123.88,-216 97.5,-216 97.5,-216 97.5,-216 97.5,-155.18 97.5,-155.18"/>
<polygon fill="#444444" stroke="#444444" points="99.95,-155.18 97.5,-148.18 95.05,-155.18 99.95,-155.18"/>
</g>
<!-- djls_tokio -->
<g id="node13" class="node">
<title>djls_tokio</title>
<polygon fill="#d0d0d0" stroke="#606060" stroke-width="2" points="226,-146 172,-146 172,-110 226,-110 226,-146"/>
<text xml:space="preserve" text-anchor="middle" x="199" y="-124.3" font-family="Helvetica,sans-Serif" font-size="11.00">tokio</text>
</g>
<!-- djls_workspace&#45;&gt;djls_tokio -->
<g id="edge19" class="edge">
<title>djls_workspace&#45;&gt;djls_tokio</title>
<path fill="none" stroke="#444444" d="M199,-203.43C199,-203.43 199,-155.37 199,-155.37"/>
<polygon fill="#444444" stroke="#444444" points="201.45,-155.37 199,-148.37 196.55,-155.37 201.45,-155.37"/>
</g>
<!-- djls_bench -->
<g id="node15" class="node">
<title>djls_bench</title>
<polygon fill="#cde4e4" stroke="#1a9797" stroke-width="2" points="463.75,-710 392.25,-710 392.25,-674 463.75,-674 463.75,-710"/>
<text xml:space="preserve" text-anchor="middle" x="428" y="-688.3" font-family="Helvetica,sans-Serif" font-size="11.00">djls&#45;bench</text>
</g>
<!-- djls_corpus -->
<g id="node16" class="node">
<title>djls_corpus</title>
<polygon fill="#cde4e4" stroke="#1a9797" stroke-width="2" points="466.62,-616 391.38,-616 391.38,-580 466.62,-580 466.62,-616"/>
<text xml:space="preserve" text-anchor="middle" x="429" y="-594.3" font-family="Helvetica,sans-Serif" font-size="11.00">djls&#45;corpus</text>
</g>
<!-- djls_bench&#45;&gt;djls_corpus -->
<g id="edge2" class="edge">
<title>djls_bench&#45;&gt;djls_corpus</title>
<path fill="none" stroke="#444444" d="M428,-673.43C428,-673.43 428,-625.37 428,-625.37"/>
<polygon fill="#444444" stroke="#444444" points="430.45,-625.37 428,-618.37 425.55,-625.37 430.45,-625.37"/>
</g>
<!-- proxy_djls_tools_djls_ide -->
<g id="node18" class="node">
<title>proxy_djls_tools_djls_ide</title>
<polygon fill="#e4cdcd" stroke="#971a1a" stroke-width="2" stroke-dasharray="5,2" points="579.5,-616 524.5,-616 524.5,-580 579.5,-580 579.5,-616"/>
<text xml:space="preserve" text-anchor="middle" x="552" y="-594.3" font-family="Helvetica,sans-Serif" font-size="11.00">djls&#45;ide</text>
</g>
<!-- djls_bench&#45;&gt;proxy_djls_tools_djls_ide -->
<g id="edge3" class="edge">
<title>djls_bench&#45;&gt;proxy_djls_tools_djls_ide</title>
<path fill="none" stroke="#1a9797" stroke-width="1.5" stroke-dasharray="5,2" d="M464.54,-692C479.84,-692 494.12,-692 494.12,-692 494.12,-692 494.12,-598 494.12,-598 494.12,-598 514.47,-598 514.47,-598"/>
<polygon fill="#1a9797" stroke="#1a9797" stroke-width="1.5" points="514.47,-600.45 521.47,-598 514.47,-595.55 514.47,-600.45"/>
</g>
<!-- djls_dev -->
<g id="node17" class="node">
<title>djls_dev</title>
<polygon fill="#cde4e4" stroke="#1a9797" stroke-width="2" points="580.38,-710 521.62,-710 521.62,-674 580.38,-674 580.38,-710"/>
<text xml:space="preserve" text-anchor="middle" x="551" y="-688.3" font-family="Helvetica,sans-Serif" font-size="11.00">djls&#45;dev</text>
</g>
<!-- proxy_djls_tools_djls_ide&#45;&gt;djls_ide -->
<g id="edge20" class="edge">
<title>proxy_djls_tools_djls_ide&#45;&gt;djls_ide</title>
<path fill="none" stroke="#1a9797" stroke-width="1.5" stroke-dasharray="5,2" d="M552,-579.43C552,-552.03 552,-504 552,-504 552,-504 376.56,-504 376.56,-504"/>
<polygon fill="#1a9797" stroke="#1a9797" stroke-width="1.5" points="376.56,-501.55 369.56,-504 376.56,-506.45 376.56,-501.55"/>
</g>

<polygon fill="#1a9797" stroke="#1a9797" points="494.12,-642.50 497.62,-647.50 490.62,-647.50"/>
<polygon fill="#1a9797" stroke="#1a9797" points="461.78,-504.00 466.78,-500.50 466.78,-507.50"/>
</g>
</svg>
