<?xml version="1.0" encoding="UTF-8" standalone="no"?>
<!DOCTYPE svg PUBLIC "-//W3C//DTD SVG 1.1//EN"
 "http://www.w3.org/Graphics/SVG/1.1/DTD/svg11.dtd">
<!-- Generated by graphviz version 14.1.1 (0)
 -->
<!-- Title: dependencies Pages: 1 -->
<svg width="1008pt" height="757pt"
 viewBox="0.00 0.00 1008.00 757.00" xmlns="http://www.w3.org/2000/svg" xmlns:xlink="http://www.w3.org/1999/xlink">
<g id="graph0" class="graph" transform="scale(1 1) rotate(0) translate(4 753)">
<title>dependencies</title>
<polygon fill="#f8f9fa" stroke="none" points="-4,4 -4,-753 1004,-753 1004,4 -4,4"/>
<g id="clust1" class="cluster">
<title>cluster_djls</title>
<path fill="#e4cdcd" stroke="#971a1a" stroke-width="2" d="M20,-8C20,-8 690,-8 690,-8 696,-8 702,-14 702,-20 702,-20 702,-729 702,-729 702,-735 696,-741 690,-741 690,-741 20,-741 20,-741 14,-741 8,-735 8,-729 8,-729 8,-20 8,-20 8,-14 14,-8 20,-8"/>
<text xml:space="preserve" text-anchor="middle" x="355" y="-723.7" font-family="Helvetica Bold" font-size="14.00">djls</text>
</g>
<!-- djls -->
<g id="node1" class="node">
<title>djls</title>
<polygon fill="#e4cdcd" stroke="#971a1a" stroke-width="2" points="268,-710 214,-710 214,-674 268,-674 268,-710"/>
<text xml:space="preserve" text-anchor="middle" x="241" y="-688.3" font-family="Helvetica,sans-Serif" font-size="11.00">djls</text>
</g>
<!-- djls_server -->
<g id="node11" class="node">
<title>djls_server</title>
<polygon fill="#e4cdcd" stroke="#971a1a" stroke-width="2" points="277.88,-616 204.12,-616 204.12,-580 277.88,-580 277.88,-616"/>
<text xml:space="preserve" text-anchor="middle" x="241" y="-594.3" font-family="Helvetica,sans-Serif" font-size="11.00">djls&#45;server</text>
</g>
<!-- djls&#45;&gt;djls_server -->
<g id="edge1" class="edge">
<title>djls&#45;&gt;djls_server</title>
<path fill="none" stroke="#444444" d="M241,-673.43C241,-673.43 241,-625.37 241,-625.37"/>
<polygon fill="#444444" stroke="#444444" points="243.45,-625.37 241,-618.37 238.55,-625.37 243.45,-625.37"/>
</g>
<!-- djls_bench -->
<g id="node2" class="node">
<title>djls_bench</title>
<polygon fill="#e4cdcd" stroke="#971a1a" stroke-width="2" points="460.75,-616 389.25,-616 389.25,-580 460.75,-580 460.75,-616"/>
<text xml:space="preserve" text-anchor="middle" x="425" y="-594.3" font-family="Helvetica,sans-Serif" font-size="11.00">djls&#45;bench</text>
</g>
<!-- djls_corpus -->
<g id="node4" class="node">
<title>djls_corpus</title>
<polygon fill="#e4cdcd" stroke="#971a1a" stroke-width="2" points="517.62,-146 442.38,-146 442.38,-110 517.62,-110 517.62,-146"/>
<text xml:space="preserve" text-anchor="middle" x="480" y="-124.3" font-family="Helvetica,sans-Serif" font-size="11.00">djls&#45;corpus</text>
</g>
<!-- djls_bench&#45;&gt;djls_corpus -->
<g id="edge2" class="edge">
<title>djls_bench&#45;&gt;djls_corpus</title>
<path fill="none" stroke="#444444" d="M451.56,-579.29C451.56,-579.29 451.56,-155.28 451.56,-155.28"/>
<polygon fill="#444444" stroke="#444444" points="454.01,-155.28 451.56,-148.28 449.11,-155.28 454.01,-155.28"/>
</g>
<!-- djls_ide -->
<g id="node7" class="node">
<title>djls_ide</title>
<polygon fill="#e4cdcd" stroke="#971a1a" stroke-width="2" points="390.5,-522 335.5,-522 335.5,-486 390.5,-486 390.5,-522"/>
<text xml:space="preserve" text-anchor="middle" x="363" y="-500.3" font-family="Helvetica,sans-Serif" font-size="11.00">djls&#45;ide</text>
</g>
<!-- djls_bench&#45;&gt;djls_ide -->
<g id="edge3" class="edge">
<title>djls_bench&#45;&gt;djls_ide</title>
<path fill="none" stroke="#444444" d="M409.06,-579.43C409.06,-552.03 409.06,-504 409.06,-504 409.06,-504 399.9,-504 399.9,-504"/>
<polygon fill="#444444" stroke="#444444" points="399.9,-501.55 392.9,-504 399.9,-506.45 399.9,-501.55"/>
</g>
<!-- djls_conf -->
<g id="node3" class="node">
<title>djls_conf</title>
<polygon fill="#e4cdcd" stroke="#971a1a" stroke-width="2" points="383.88,-146 322.12,-146 322.12,-110 383.88,-110 383.88,-146"/>
<text xml:space="preserve" text-anchor="middle" x="353" y="-124.3" font-family="Helvetica,sans-Serif" font-size="11.00">djls&#45;conf</text>
</g>
<!-- djls_anyhow -->
<g id="node15" class="node">
<title>djls_anyhow</title>
<polygon fill="#d0d0d0" stroke="#606060" stroke-width="2" points="569.38,-52 510.62,-52 510.62,-16 569.38,-16 569.38,-52"/>
<text xml:space="preserve" text-anchor="middle" x="540" y="-30.3" font-family="Helvetica,sans-Serif" font-size="11.00">anyhow</text>
</g>
<!-- djls_conf&#45;&gt;djls_anyhow -->
<g id="edge4" class="edge">
<title>djls_conf&#45;&gt;djls_anyhow</title>
<path fill="none" stroke="#444444" d="M362.38,-109.1C362.38,-105.07 362.38,-102 362.38,-102 362.38,-102 512.96,-102 512.96,-102 512.96,-102 512.96,-61.46 512.96,-61.46"/>
<polygon fill="#444444" stroke="#444444" points="515.41,-61.46 512.96,-54.46 510.51,-61.46 515.41,-61.46"/>
</g>
<!-- djls_camino -->
<g id="node16" class="node">
<title>djls_camino</title>
<polygon fill="#d0d0d0" stroke="#606060" stroke-width="2" points="340.88,-52 285.12,-52 285.12,-16 340.88,-16 340.88,-52"/>
<text xml:space="preserve" text-anchor="middle" x="313" y="-30.3" font-family="Helvetica,sans-Serif" font-size="11.00">camino</text>
</g>
<!-- djls_conf&#45;&gt;djls_camino -->
<g id="edge5" class="edge">
<title>djls_conf&#45;&gt;djls_camino</title>
<path fill="none" stroke="#444444" d="M331.5,-109.43C331.5,-109.43 331.5,-61.37 331.5,-61.37"/>
<polygon fill="#444444" stroke="#444444" points="333.95,-61.37 331.5,-54.37 329.05,-61.37 333.95,-61.37"/>
</g>
<!-- djls_serde -->
<g id="node18" class="node">
<title>djls_serde</title>
<polygon fill="#d0d0d0" stroke="#606060" stroke-width="2" points="453,-52 399,-52 399,-16 453,-16 453,-52"/>
<text xml:space="preserve" text-anchor="middle" x="426" y="-30.3" font-family="Helvetica,sans-Serif" font-size="11.00">serde</text>
</g>
<!-- djls_conf&#45;&gt;djls_serde -->
<g id="edge6" class="edge">
<title>djls_conf&#45;&gt;djls_serde</title>
<path fill="none" stroke="#444444" d="M384.78,-128C401.3,-128 418.08,-128 418.08,-128 418.08,-128 418.08,-61.08 418.08,-61.08"/>
<polygon fill="#444444" stroke="#444444" points="420.53,-61.08 418.08,-54.08 415.63,-61.08 420.53,-61.08"/>
</g>
<!-- djls_thiserror -->
<g id="node19" class="node">
<title>djls_thiserror</title>
<polygon fill="#d0d0d0" stroke="#606060" stroke-width="2" points="226.62,-52 163.38,-52 163.38,-16 226.62,-16 226.62,-52"/>
<text xml:space="preserve" text-anchor="middle" x="195" y="-30.3" font-family="Helvetica,sans-Serif" font-size="11.00">thiserror</text>
</g>
<!-- djls_conf&#45;&gt;djls_thiserror -->
<g id="edge7" class="edge">
<title>djls_conf&#45;&gt;djls_thiserror</title>
<path fill="none" stroke="#444444" d="M326.81,-109.01C326.81,-94.51 326.81,-77 326.81,-77 326.81,-77 218.31,-77 218.31,-77 218.31,-77 218.31,-61.5 218.31,-61.5"/>
<polygon fill="#444444" stroke="#444444" points="220.76,-61.5 218.31,-54.5 215.86,-61.5 220.76,-61.5"/>
</g>
<!-- djls_corpus&#45;&gt;djls_anyhow -->
<g id="edge8" class="edge">
<title>djls_corpus&#45;&gt;djls_anyhow</title>
<path fill="none" stroke="#444444" d="M515.29,-109.43C515.29,-109.43 515.29,-61.37 515.29,-61.37"/>
<polygon fill="#444444" stroke="#444444" points="517.74,-61.37 515.29,-54.37 512.84,-61.37 517.74,-61.37"/>
</g>
<!-- djls_corpus&#45;&gt;djls_camino -->
<g id="edge9" class="edge">
<title>djls_corpus&#45;&gt;djls_camino</title>
<path fill="none" stroke="#444444" d="M445.03,-109.01C445.03,-91.76 445.03,-69 445.03,-69 445.03,-69 336.19,-69 336.19,-69 336.19,-69 336.19,-61.24 336.19,-61.24"/>
<polygon fill="#444444" stroke="#444444" points="338.64,-61.24 336.19,-54.24 333.74,-61.24 338.64,-61.24"/>
</g>
<!-- djls_corpus&#45;&gt;djls_serde -->
<g id="edge10" class="edge">
<title>djls_corpus&#45;&gt;djls_serde</title>
<path fill="none" stroke="#444444" d="M447.69,-109.43C447.69,-109.43 447.69,-61.37 447.69,-61.37"/>
<polygon fill="#444444" stroke="#444444" points="450.14,-61.37 447.69,-54.37 445.24,-61.37 450.14,-61.37"/>
</g>
<!-- djls_db -->
<g id="node5" class="node">
<title>djls_db</title>
<polygon fill="#e4cdcd" stroke="#971a1a" stroke-width="2" points="262,-522 208,-522 208,-486 262,-486 262,-522"/>
<text xml:space="preserve" text-anchor="middle" x="235" y="-500.3" font-family="Helvetica,sans-Serif" font-size="11.00">djls&#45;db</text>
</g>
<!-- djls_semantic -->
<g id="node10" class="node">
<title>djls_semantic</title>
<polygon fill="#e4cdcd" stroke="#971a1a" stroke-width="2" points="264.38,-428 175.62,-428 175.62,-392 264.38,-392 264.38,-428"/>
<text xml:space="preserve" text-anchor="middle" x="220" y="-406.3" font-family="Helvetica,sans-Serif" font-size="11.00">djls&#45;semantic</text>
</g>
<!-- djls_db&#45;&gt;djls_semantic -->
<g id="edge11" class="edge">
<title>djls_db&#45;&gt;djls_semantic</title>
<path fill="none" stroke="#444444" d="M235,-485.43C235,-485.43 235,-437.37 235,-437.37"/>
<polygon fill="#444444" stroke="#444444" points="237.45,-437.37 235,-430.37 232.55,-437.37 237.45,-437.37"/>
</g>
<!-- djls_dev -->
<g id="node6" class="node">
<title>djls_dev</title>
<polygon fill="#e4cdcd" stroke="#971a1a" stroke-width="2" points="634.38,-146 575.62,-146 575.62,-110 634.38,-110 634.38,-146"/>
<text xml:space="preserve" text-anchor="middle" x="605" y="-124.3" font-family="Helvetica,sans-Serif" font-size="11.00">djls&#45;dev</text>
</g>
<!-- djls_dev&#45;&gt;djls_serde -->
<g id="edge12" class="edge">
<title>djls_dev&#45;&gt;djls_serde</title>
<path fill="none" stroke="#444444" d="M605,-109.06C605,-88.94 605,-60 605,-60 605,-60 450.34,-60 450.34,-60 450.34,-60 450.34,-59.29 450.34,-59.29"/>
<polygon fill="#444444" stroke="#444444" points="452.79,-61.41 450.34,-54.41 447.89,-61.41 452.79,-61.41"/>
</g>
<!-- djls_ide&#45;&gt;djls_semantic -->
<g id="edge13" class="edge">
<title>djls_ide&#45;&gt;djls_semantic</title>
<path fill="none" stroke="#444444" d="M334.51,-498C317.87,-498 300.12,-498 300.12,-498 300.12,-498 300.12,-416 300.12,-416 300.12,-416 273.73,-416 273.73,-416"/>
<polygon fill="#444444" stroke="#444444" points="273.73,-413.55 266.73,-416 273.73,-418.45 273.73,-413.55"/>
</g>
<!-- djls_tower_lsp_server -->
<g id="node21" class="node">
<title>djls_tower_lsp_server</title>
<polygon fill="#d0d0d0" stroke="#606060" stroke-width="2" points="427.62,-428 322.38,-428 322.38,-392 427.62,-392 427.62,-428"/>
<text xml:space="preserve" text-anchor="middle" x="375" y="-406.3" font-family="Helvetica,sans-Serif" font-size="11.00">tower&#45;lsp&#45;server</text>
</g>
<!-- djls_ide&#45;&gt;djls_tower_lsp_server -->
<g id="edge14" class="edge">
<title>djls_ide&#45;&gt;djls_tower_lsp_server</title>
<path fill="none" stroke="#444444" d="M363,-485.43C363,-485.43 363,-437.37 363,-437.37"/>
<polygon fill="#444444" stroke="#444444" points="365.45,-437.37 363,-430.37 360.55,-437.37 365.45,-437.37"/>
</g>
<!-- djls_project -->
<g id="node8" class="node">
<title>djls_project</title>
<polygon fill="#e4cdcd" stroke="#971a1a" stroke-width="2" points="231.38,-334 154.62,-334 154.62,-298 231.38,-298 231.38,-334"/>
<text xml:space="preserve" text-anchor="middle" x="193" y="-312.3" font-family="Helvetica,sans-Serif" font-size="11.00">djls&#45;project</text>
</g>
<!-- djls_project&#45;&gt;djls_conf -->
<g id="edge16" class="edge">
<title>djls_project&#45;&gt;djls_conf</title>
<path fill="none" stroke="#444444" d="M224.25,-297.23C224.25,-261.01 224.25,-185 224.25,-185 224.25,-185 344.81,-185 344.81,-185 344.81,-185 344.81,-155.49 344.81,-155.49"/>
<polygon fill="#444444" stroke="#444444" points="347.26,-155.49 344.81,-148.49 342.36,-155.49 347.26,-155.49"/>
</g>
<!-- djls_python -->
<g id="node9" class="node">
<title>djls_python</title>
<polygon fill="#e4cdcd" stroke="#971a1a" stroke-width="2" points="152.38,-240 75.62,-240 75.62,-204 152.38,-204 152.38,-240"/>
<text xml:space="preserve" text-anchor="middle" x="114" y="-218.3" font-family="Helvetica,sans-Serif" font-size="11.00">djls&#45;python</text>
</g>
<!-- djls_project&#45;&gt;djls_python -->
<g id="edge17" class="edge">
<title>djls_project&#45;&gt;djls_python</title>
<path fill="none" stroke="#444444" d="M159,-297.19C159,-268.22 159,-216 159,-216 159,-216 158.41,-216 158.41,-216"/>
<polygon fill="#444444" stroke="#444444" points="161.63,-213.55 154.63,-216 161.63,-218.45 161.63,-213.55"/>
</g>
<!-- djls_workspace -->
<g id="node14" class="node">
<title>djls_workspace</title>
<polygon fill="#e4cdcd" stroke="#971a1a" stroke-width="2" points="367.5,-240 270.5,-240 270.5,-204 367.5,-204 367.5,-240"/>
<text xml:space="preserve" text-anchor="middle" x="319" y="-218.3" font-family="Helvetica,sans-Serif" font-size="11.00">djls&#45;workspace</text>
</g>
<!-- djls_project&#45;&gt;djls_workspace -->
<g id="edge18" class="edge">
<title>djls_project&#45;&gt;djls_workspace</title>
<path fill="none" stroke="#444444" d="M232.04,-316C252.34,-316 272.96,-316 272.96,-316 272.96,-316 272.96,-249.08 272.96,-249.08"/>
<polygon fill="#444444" stroke="#444444" points="275.41,-249.08 272.96,-242.08 270.51,-249.08 275.41,-249.08"/>
</g>
<!-- djls_project&#45;&gt;djls_camino -->
<g id="edge15" class="edge">
<title>djls_project&#45;&gt;djls_camino</title>
<path fill="none" stroke="#444444" d="M217.12,-297.18C217.12,-256.7 217.12,-165 217.12,-165 217.12,-165 309.79,-165 309.79,-165 309.79,-165 309.79,-61.28 309.79,-61.28"/>
<polygon fill="#444444" stroke="#444444" points="312.24,-61.28 309.79,-54.28 307.34,-61.28 312.24,-61.28"/>
</g>
<!-- djls_source -->
<g id="node12" class="node">
<title>djls_source</title>
<polygon fill="#e4cdcd" stroke="#971a1a" stroke-width="2" points="151.62,-146 76.38,-146 76.38,-110 151.62,-110 151.62,-146"/>
<text xml:space="preserve" text-anchor="middle" x="114" y="-124.3" font-family="Helvetica,sans-Serif" font-size="11.00">djls&#45;source</text>
</g>
<!-- djls_python&#45;&gt;djls_source -->
<g id="edge19" class="edge">
<title>djls_python&#45;&gt;djls_source</title>
<path fill="none" stroke="#444444" d="M114,-203.43C114,-203.43 114,-155.37 114,-155.37"/>
<polygon fill="#444444" stroke="#444444" points="116.45,-155.37 114,-148.37 111.55,-155.37 116.45,-155.37"/>
</g>
<!-- djls_semantic&#45;&gt;djls_project -->
<g id="edge20" class="edge">
<title>djls_semantic&#45;&gt;djls_project</title>
<path fill="none" stroke="#444444" d="M203.5,-391.43C203.5,-391.43 203.5,-343.37 203.5,-343.37"/>
<polygon fill="#444444" stroke="#444444" points="205.95,-343.37 203.5,-336.37 201.05,-343.37 205.95,-343.37"/>
</g>
<!-- djls_templates -->
<g id="node13" class="node">
<title>djls_templates</title>
<polygon fill="#e4cdcd" stroke="#971a1a" stroke-width="2" points="383,-334 289,-334 289,-298 383,-298 383,-334"/>
<text xml:space="preserve" text-anchor="middle" x="336" y="-312.3" font-family="Helvetica,sans-Serif" font-size="11.00">djls&#45;templates</text>
</g>
<!-- djls_semantic&#45;&gt;djls_templates -->
<g id="edge21" class="edge">
<title>djls_semantic&#45;&gt;djls_templates</title>
<path fill="none" stroke="#444444" d="M265.36,-404C288.26,-404 311.25,-404 311.25,-404 311.25,-404 311.25,-343.18 311.25,-343.18"/>
<polygon fill="#444444" stroke="#444444" points="313.7,-343.18 311.25,-336.18 308.8,-343.18 313.7,-343.18"/>
</g>
<!-- djls_server&#45;&gt;djls_db -->
<g id="edge22" class="edge">
<title>djls_server&#45;&gt;djls_db</title>
<path fill="none" stroke="#444444" d="M235,-579.43C235,-579.43 235,-531.37 235,-531.37"/>
<polygon fill="#444444" stroke="#444444" points="237.45,-531.37 235,-524.37 232.55,-531.37 237.45,-531.37"/>
</g>
<!-- djls_server&#45;&gt;djls_ide -->
<g id="edge23" class="edge">
<title>djls_server&#45;&gt;djls_ide</title>
<path fill="none" stroke="#444444" d="M275.42,-579.34C275.42,-553.51 275.42,-510 275.42,-510 275.42,-510 326.29,-510 326.29,-510"/>
<polygon fill="#444444" stroke="#444444" points="326.29,-512.45 333.29,-510 326.29,-507.55 326.29,-512.45"/>
</g>
<!-- djls_source&#45;&gt;djls_camino -->
<g id="edge24" class="edge">
<title>djls_source&#45;&gt;djls_camino</title>
<path fill="none" stroke="#444444" d="M116.66,-109.01C116.66,-97.5 116.66,-85 116.66,-85 116.66,-85 297.46,-85 297.46,-85 297.46,-85 297.46,-61.5 297.46,-61.5"/>
<polygon fill="#444444" stroke="#444444" points="299.91,-61.5 297.46,-54.5 295.01,-61.5 299.91,-61.5"/>
</g>
<!-- djls_salsa -->
<g id="node17" class="node">
<title>djls_salsa</title>
<polygon fill="#d0d0d0" stroke="#606060" stroke-width="2" points="105,-52 51,-52 51,-16 105,-16 105,-52"/>
<text xml:space="preserve" text-anchor="middle" x="78" y="-30.3" font-family="Helvetica,sans-Serif" font-size="11.00">salsa</text>
</g>
<!-- djls_source&#45;&gt;djls_salsa -->
<g id="edge25" class="edge">
<title>djls_source&#45;&gt;djls_salsa</title>
<path fill="none" stroke="#444444" d="M90.69,-109.43C90.69,-109.43 90.69,-61.37 90.69,-61.37"/>
<polygon fill="#444444" stroke="#444444" points="93.14,-61.37 90.69,-54.37 88.24,-61.37 93.14,-61.37"/>
</g>
<!-- djls_source&#45;&gt;djls_serde -->
<g id="edge26" class="edge">
<title>djls_source&#45;&gt;djls_serde</title>
<path fill="none" stroke="#444444" d="M128.31,-109.27C128.31,-100.95 128.31,-93 128.31,-93 128.31,-93 408.54,-93 408.54,-93 408.54,-93 408.54,-61.51 408.54,-61.51"/>
<polygon fill="#444444" stroke="#444444" points="410.99,-61.51 408.54,-54.51 406.09,-61.51 410.99,-61.51"/>
</g>
<!-- djls_source&#45;&gt;djls_thiserror -->
<g id="edge27" class="edge">
<title>djls_source&#45;&gt;djls_thiserror</title>
<path fill="none" stroke="#444444" d="M139.97,-109.43C139.97,-82.03 139.97,-34 139.97,-34 139.97,-34 154.16,-34 154.16,-34"/>
<polygon fill="#444444" stroke="#444444" points="154.16,-36.45 161.16,-34 154.16,-31.55 154.16,-36.45"/>
</g>
<!-- djls_templates&#45;&gt;djls_conf -->
<g id="edge28" class="edge">
<title>djls_templates&#45;&gt;djls_conf</title>
<path fill="none" stroke="#444444" d="M375.25,-297.29C375.25,-297.29 375.25,-155.43 375.25,-155.43"/>
<polygon fill="#444444" stroke="#444444" points="377.7,-155.43 375.25,-148.43 372.8,-155.43 377.7,-155.43"/>
</g>
<!-- djls_templates&#45;&gt;djls_workspace -->
<g id="edge29" class="edge">
<title>djls_templates&#45;&gt;djls_workspace</title>
<path fill="none" stroke="#444444" d="M328.25,-297.43C328.25,-297.43 328.25,-249.37 328.25,-249.37"/>
<polygon fill="#444444" stroke="#444444" points="330.7,-249.37 328.25,-242.37 325.8,-249.37 330.7,-249.37"/>
</g>
<!-- djls_workspace&#45;&gt;djls_source -->
<g id="edge31" class="edge">
<title>djls_workspace&#45;&gt;djls_source</title>
<path fill="none" stroke="#444444" d="M269.73,-228C232.11,-228 186.69,-228 186.69,-228 186.69,-228 186.69,-128 186.69,-128 186.69,-128 160.99,-128 160.99,-128"/>
<polygon fill="#444444" stroke="#444444" points="160.99,-125.55 153.99,-128 160.99,-130.45 160.99,-125.55"/>
</g>
<!-- djls_workspace&#45;&gt;djls_anyhow -->
<g id="edge30" class="edge">
<title>djls_workspace&#45;&gt;djls_anyhow</title>
<path fill="none" stroke="#444444" d="M368.27,-222C434.35,-222 543.5,-222 543.5,-222 543.5,-222 543.5,-61.23 543.5,-61.23"/>
<polygon fill="#444444" stroke="#444444" points="545.95,-61.23 543.5,-54.23 541.05,-61.23 545.95,-61.23"/>
</g>
<!-- djls_tokio -->
<g id="node20" class="node">
<title>djls_tokio</title>
<polygon fill="#d0d0d0" stroke="#606060" stroke-width="2" points="264,-146 210,-146 210,-110 264,-110 264,-146"/>
<text xml:space="preserve" text-anchor="middle" x="237" y="-124.3" font-family="Helvetica,sans-Serif" font-size="11.00">tokio</text>
</g>
<!-- djls_workspace&#45;&gt;djls_tokio -->
<g id="edge32" class="edge">
<title>djls_workspace&#45;&gt;djls_tokio</title>
<path fill="none" stroke="#444444" d="M277.81,-203.43C277.81,-176.03 277.81,-128 277.81,-128 277.81,-128 273.41,-128 273.41,-128"/>
<polygon fill="#444444" stroke="#444444" points="273.41,-125.55 266.41,-128 273.41,-130.45 273.41,-125.55"/>
</g>
<!-- tower_lsp_server -->
<g id="node22" class="node">
<title>tower_lsp_server</title>
<polygon fill="lightgrey" stroke="black" points="893.5,-710 784.5,-710 784.5,-674 893.5,-674 893.5,-710"/>
<text xml:space="preserve" text-anchor="middle" x="839" y="-688.3" font-family="Helvetica,sans-Serif" font-size="11.00">tower_lsp_server</text>
</g>
<!-- external_serde -->
<g id="node23" class="node">
<title>external_serde</title>
<polygon fill="lightgrey" stroke="black" points="847.88,-616 750.12,-616 750.12,-580 847.88,-580 847.88,-616"/>
<text xml:space="preserve" text-anchor="middle" x="799" y="-594.3" font-family="Helvetica,sans-Serif" font-size="11.00">external_serde</text>
</g>
<!-- tower_lsp_server&#45;&gt;external_serde -->
<g id="edge33" class="edge">
<title>tower_lsp_server&#45;&gt;external_serde</title>
<path fill="none" stroke="#444444" d="M816.19,-673.88C816.19,-673.88 816.19,-624.9 816.19,-624.9"/>
<polygon fill="#444444" stroke="#444444" points="818.64,-624.9 816.19,-617.9 813.74,-624.9 818.64,-624.9"/>
</g>
<!-- external_tokio -->
<g id="node24" class="node">
<title>external_tokio</title>
<polygon fill="lightgrey" stroke="black" points="1000,-616 906,-616 906,-580 1000,-580 1000,-616"/>
<text xml:space="preserve" text-anchor="middle" x="953" y="-594.3" font-family="Helvetica,sans-Serif" font-size="11.00">external_tokio</text>
</g>
<!-- tower_lsp_server&#45;&gt;external_tokio -->
<g id="edge34" class="edge">
<title>tower_lsp_server&#45;&gt;external_tokio</title>
<path fill="none" stroke="#444444" d="M870.69,-673.88C870.69,-646.56 870.69,-598 870.69,-598 870.69,-598 897.08,-598 897.08,-598"/>
<polygon fill="#444444" stroke="#444444" points="897.08,-600.45 904.08,-598 897.08,-595.55 897.08,-600.45"/>
</g>
</g>
</svg>
