<?xml version="1.0" encoding="UTF-8" standalone="no"?>
<!DOCTYPE svg PUBLIC "-//W3C//DTD SVG 1.1//EN"
 "http://www.w3.org/Graphics/SVG/1.1/DTD/svg11.dtd">
<!-- Generated by graphviz version 14.1.1 (0)
 -->
<!-- Title: dependencies Pages: 1 -->
<svg width="658pt" height="757pt"
 viewBox="0.00 0.00 658.00 757.00" xmlns="http://www.w3.org/2000/svg" xmlns:xlink="http://www.w3.org/1999/xlink">
<g id="graph0" class="graph" transform="scale(1 1) rotate(0) translate(4 753)">
<title>dependencies</title>
<polygon fill="#f8f9fa" stroke="none" points="-4,4 -4,-753 654,-753 654,4 -4,4"/>
<g id="clust1" class="cluster">
<title>cluster_djls</title>
<path fill="#e4cdcd" stroke="#971a1a" stroke-width="2" d="M20,-8C20,-8 630,-8 630,-8 636,-8 642,-14 642,-20 642,-20 642,-729 642,-729 642,-735 636,-741 630,-741 630,-741 20,-741 20,-741 14,-741 8,-735 8,-729 8,-729 8,-20 8,-20 8,-14 14,-8 20,-8"/>
<text xml:space="preserve" text-anchor="middle" x="325" y="-723.7" font-family="Helvetica Bold" font-size="14.00">djls</text>
</g>
<!-- djls -->
<g id="node1" class="node">
<title>djls</title>
<polygon fill="#e4cdcd" stroke="#971a1a" stroke-width="2" points="208,-710 154,-710 154,-674 208,-674 208,-710"/>
<text xml:space="preserve" text-anchor="middle" x="181" y="-688.3" font-family="Helvetica,sans-Serif" font-size="11.00">djls</text>
</g>
<!-- djls_server -->
<g id="node11" class="node">
<title>djls_server</title>
<polygon fill="#e4cdcd" stroke="#971a1a" stroke-width="2" points="217.88,-616 144.12,-616 144.12,-580 217.88,-580 217.88,-616"/>
<text xml:space="preserve" text-anchor="middle" x="181" y="-594.3" font-family="Helvetica,sans-Serif" font-size="11.00">djls&#45;server</text>
</g>
<!-- djls&#45;&gt;djls_server -->
<g id="edge1" class="edge">
<title>djls&#45;&gt;djls_server</title>
<path fill="none" stroke="#444444" d="M181,-673.43C181,-673.43 181,-625.37 181,-625.37"/>
<polygon fill="#444444" stroke="#444444" points="183.45,-625.37 181,-618.37 178.55,-625.37 183.45,-625.37"/>
</g>
<!-- djls_bench -->
<g id="node2" class="node">
<title>djls_bench</title>
<polygon fill="#e4cdcd" stroke="#971a1a" stroke-width="2" points="400.75,-616 329.25,-616 329.25,-580 400.75,-580 400.75,-616"/>
<text xml:space="preserve" text-anchor="middle" x="365" y="-594.3" font-family="Helvetica,sans-Serif" font-size="11.00">djls&#45;bench</text>
</g>
<!-- djls_corpus -->
<g id="node4" class="node">
<title>djls_corpus</title>
<polygon fill="#e4cdcd" stroke="#971a1a" stroke-width="2" points="457.62,-146 382.38,-146 382.38,-110 457.62,-110 457.62,-146"/>
<text xml:space="preserve" text-anchor="middle" x="420" y="-124.3" font-family="Helvetica,sans-Serif" font-size="11.00">djls&#45;corpus</text>
</g>
<!-- djls_bench&#45;&gt;djls_corpus -->
<g id="edge2" class="edge">
<title>djls_bench&#45;&gt;djls_corpus</title>
<path fill="none" stroke="#444444" d="M391.56,-579.29C391.56,-579.29 391.56,-155.28 391.56,-155.28"/>
<polygon fill="#444444" stroke="#444444" points="394.01,-155.28 391.56,-148.28 389.11,-155.28 394.01,-155.28"/>
</g>
<!-- djls_ide -->
<g id="node7" class="node">
<title>djls_ide</title>
<polygon fill="#e4cdcd" stroke="#971a1a" stroke-width="2" points="330.5,-522 275.5,-522 275.5,-486 330.5,-486 330.5,-522"/>
<text xml:space="preserve" text-anchor="middle" x="303" y="-500.3" font-family="Helvetica,sans-Serif" font-size="11.00">djls&#45;ide</text>
</g>
<!-- djls_bench&#45;&gt;djls_ide -->
<g id="edge3" class="edge">
<title>djls_bench&#45;&gt;djls_ide</title>
<path fill="none" stroke="#444444" d="M349.06,-579.43C349.06,-552.03 349.06,-504 349.06,-504 349.06,-504 339.9,-504 339.9,-504"/>
<polygon fill="#444444" stroke="#444444" points="339.9,-501.55 332.9,-504 339.9,-506.45 339.9,-501.55"/>
</g>
<!-- djls_conf -->
<g id="node3" class="node">
<title>djls_conf</title>
<polygon fill="#e4cdcd" stroke="#971a1a" stroke-width="2" points="211.88,-146 150.12,-146 150.12,-110 211.88,-110 211.88,-146"/>
<text xml:space="preserve" text-anchor="middle" x="181" y="-124.3" font-family="Helvetica,sans-Serif" font-size="11.00">djls&#45;conf</text>
</g>
<!-- djls_anyhow -->
<g id="node15" class="node">
<title>djls_anyhow</title>
<polygon fill="#d0d0d0" stroke="#606060" stroke-width="2" points="534.38,-52 475.62,-52 475.62,-16 534.38,-16 534.38,-52"/>
<text xml:space="preserve" text-anchor="middle" x="505" y="-30.3" font-family="Helvetica,sans-Serif" font-size="11.00">anyhow</text>
</g>
<!-- djls_conf&#45;&gt;djls_anyhow -->
<g id="edge4" class="edge">
<title>djls_conf&#45;&gt;djls_anyhow</title>
<path fill="none" stroke="#444444" d="M205.12,-109.1C205.12,-105.07 205.12,-102 205.12,-102 205.12,-102 488.96,-102 488.96,-102 488.96,-102 488.96,-61.46 488.96,-61.46"/>
<polygon fill="#444444" stroke="#444444" points="491.41,-61.46 488.96,-54.46 486.51,-61.46 491.41,-61.46"/>
</g>
<!-- djls_camino -->
<g id="node16" class="node">
<title>djls_camino</title>
<polygon fill="#d0d0d0" stroke="#606060" stroke-width="2" points="305.88,-52 250.12,-52 250.12,-16 305.88,-16 305.88,-52"/>
<text xml:space="preserve" text-anchor="middle" x="278" y="-30.3" font-family="Helvetica,sans-Serif" font-size="11.00">camino</text>
</g>
<!-- djls_conf&#45;&gt;djls_camino -->
<g id="edge5" class="edge">
<title>djls_conf&#45;&gt;djls_camino</title>
<path fill="none" stroke="#444444" d="M212.61,-128C235.84,-128 263.38,-128 263.38,-128 263.38,-128 263.38,-61.08 263.38,-61.08"/>
<polygon fill="#444444" stroke="#444444" points="265.83,-61.08 263.38,-54.08 260.93,-61.08 265.83,-61.08"/>
</g>
<!-- djls_serde -->
<g id="node18" class="node">
<title>djls_serde</title>
<polygon fill="#d0d0d0" stroke="#606060" stroke-width="2" points="418,-52 364,-52 364,-16 418,-16 418,-52"/>
<text xml:space="preserve" text-anchor="middle" x="391" y="-30.3" font-family="Helvetica,sans-Serif" font-size="11.00">serde</text>
</g>
<!-- djls_conf&#45;&gt;djls_serde -->
<g id="edge6" class="edge">
<title>djls_conf&#45;&gt;djls_serde</title>
<path fill="none" stroke="#444444" d="M198.38,-109.27C198.38,-100.95 198.38,-93 198.38,-93 198.38,-93 377.46,-93 377.46,-93 377.46,-93 377.46,-61.51 377.46,-61.51"/>
<polygon fill="#444444" stroke="#444444" points="379.91,-61.51 377.46,-54.51 375.01,-61.51 379.91,-61.51"/>
</g>
<!-- djls_thiserror -->
<g id="node19" class="node">
<title>djls_thiserror</title>
<polygon fill="#d0d0d0" stroke="#606060" stroke-width="2" points="191.62,-52 128.38,-52 128.38,-16 191.62,-16 191.62,-52"/>
<text xml:space="preserve" text-anchor="middle" x="160" y="-30.3" font-family="Helvetica,sans-Serif" font-size="11.00">thiserror</text>
</g>
<!-- djls_conf&#45;&gt;djls_thiserror -->
<g id="edge7" class="edge">
<title>djls_conf&#45;&gt;djls_thiserror</title>
<path fill="none" stroke="#444444" d="M170.88,-109.43C170.88,-109.43 170.88,-61.37 170.88,-61.37"/>
<polygon fill="#444444" stroke="#444444" points="173.33,-61.37 170.88,-54.37 168.43,-61.37 173.33,-61.37"/>
</g>
<!-- djls_corpus&#45;&gt;djls_anyhow -->
<g id="edge8" class="edge">
<title>djls_corpus&#45;&gt;djls_anyhow</title>
<path fill="none" stroke="#444444" d="M437.81,-109.43C437.81,-82.03 437.81,-34 437.81,-34 437.81,-34 466.43,-34 466.43,-34"/>
<polygon fill="#444444" stroke="#444444" points="466.43,-36.45 473.43,-34 466.43,-31.55 466.43,-36.45"/>
</g>
<!-- djls_corpus&#45;&gt;djls_camino -->
<g id="edge9" class="edge">
<title>djls_corpus&#45;&gt;djls_camino</title>
<path fill="none" stroke="#444444" d="M391.28,-109.01C391.28,-91.76 391.28,-69 391.28,-69 391.28,-69 287.94,-69 287.94,-69 287.94,-69 287.94,-61.24 287.94,-61.24"/>
<polygon fill="#444444" stroke="#444444" points="290.39,-61.24 287.94,-54.24 285.49,-61.24 290.39,-61.24"/>
</g>
<!-- djls_corpus&#45;&gt;djls_serde -->
<g id="edge10" class="edge">
<title>djls_corpus&#45;&gt;djls_serde</title>
<path fill="none" stroke="#444444" d="M400.19,-109.43C400.19,-109.43 400.19,-61.37 400.19,-61.37"/>
<polygon fill="#444444" stroke="#444444" points="402.64,-61.37 400.19,-54.37 397.74,-61.37 402.64,-61.37"/>
</g>
<!-- djls_db -->
<g id="node5" class="node">
<title>djls_db</title>
<polygon fill="#e4cdcd" stroke="#971a1a" stroke-width="2" points="202,-522 148,-522 148,-486 202,-486 202,-522"/>
<text xml:space="preserve" text-anchor="middle" x="175" y="-500.3" font-family="Helvetica,sans-Serif" font-size="11.00">djls&#45;db</text>
</g>
<!-- djls_semantic -->
<g id="node10" class="node">
<title>djls_semantic</title>
<polygon fill="#e4cdcd" stroke="#971a1a" stroke-width="2" points="204.38,-428 115.62,-428 115.62,-392 204.38,-392 204.38,-428"/>
<text xml:space="preserve" text-anchor="middle" x="160" y="-406.3" font-family="Helvetica,sans-Serif" font-size="11.00">djls&#45;semantic</text>
</g>
<!-- djls_db&#45;&gt;djls_semantic -->
<g id="edge11" class="edge">
<title>djls_db&#45;&gt;djls_semantic</title>
<path fill="none" stroke="#444444" d="M175,-485.43C175,-485.43 175,-437.37 175,-437.37"/>
<polygon fill="#444444" stroke="#444444" points="177.45,-437.37 175,-430.37 172.55,-437.37 177.45,-437.37"/>
</g>
<!-- djls_dev -->
<g id="node6" class="node">
<title>djls_dev</title>
<polygon fill="#e4cdcd" stroke="#971a1a" stroke-width="2" points="574.38,-146 515.62,-146 515.62,-110 574.38,-110 574.38,-146"/>
<text xml:space="preserve" text-anchor="middle" x="545" y="-124.3" font-family="Helvetica,sans-Serif" font-size="11.00">djls&#45;dev</text>
</g>
<!-- djls_dev&#45;&gt;djls_serde -->
<g id="edge12" class="edge">
<title>djls_dev&#45;&gt;djls_serde</title>
<path fill="none" stroke="#444444" d="M525,-109.06C525,-88.94 525,-60 525,-60 525,-60 409.09,-60 409.09,-60 409.09,-60 409.09,-59.29 409.09,-59.29"/>
<polygon fill="#444444" stroke="#444444" points="411.54,-61.41 409.09,-54.41 406.64,-61.41 411.54,-61.41"/>
</g>
<!-- djls_ide&#45;&gt;djls_semantic -->
<g id="edge13" class="edge">
<title>djls_ide&#45;&gt;djls_semantic</title>
<path fill="none" stroke="#444444" d="M274.59,-498C262.93,-498 252.12,-498 252.12,-498 252.12,-498 252.12,-416 252.12,-416 252.12,-416 213.77,-416 213.77,-416"/>
<polygon fill="#444444" stroke="#444444" points="213.77,-413.55 206.77,-416 213.77,-418.45 213.77,-413.55"/>
</g>
<!-- djls_tower_lsp_server -->
<g id="node21" class="node">
<title>djls_tower_lsp_server</title>
<polygon fill="#d0d0d0" stroke="#606060" stroke-width="2" points="367.62,-428 262.38,-428 262.38,-392 367.62,-392 367.62,-428"/>
<text xml:space="preserve" text-anchor="middle" x="315" y="-406.3" font-family="Helvetica,sans-Serif" font-size="11.00">tower&#45;lsp&#45;server</text>
</g>
<!-- djls_ide&#45;&gt;djls_tower_lsp_server -->
<g id="edge14" class="edge">
<title>djls_ide&#45;&gt;djls_tower_lsp_server</title>
<path fill="none" stroke="#444444" d="M303,-485.43C303,-485.43 303,-437.37 303,-437.37"/>
<polygon fill="#444444" stroke="#444444" points="305.45,-437.37 303,-430.37 300.55,-437.37 305.45,-437.37"/>
</g>
<!-- djls_project -->
<g id="node8" class="node">
<title>djls_project</title>
<polygon fill="#e4cdcd" stroke="#971a1a" stroke-width="2" points="189.38,-334 112.62,-334 112.62,-298 189.38,-298 189.38,-334"/>
<text xml:space="preserve" text-anchor="middle" x="151" y="-312.3" font-family="Helvetica,sans-Serif" font-size="11.00">djls&#45;project</text>
</g>
<!-- djls_project&#45;&gt;djls_conf -->
<g id="edge15" class="edge">
<title>djls_project&#45;&gt;djls_conf</title>
<path fill="none" stroke="#444444" d="M169.75,-297.29C169.75,-297.29 169.75,-155.43 169.75,-155.43"/>
<polygon fill="#444444" stroke="#444444" points="172.2,-155.43 169.75,-148.43 167.3,-155.43 172.2,-155.43"/>
</g>
<!-- djls_python -->
<g id="node9" class="node">
<title>djls_python</title>
<polygon fill="#e4cdcd" stroke="#971a1a" stroke-width="2" points="92.38,-240 15.62,-240 15.62,-204 92.38,-204 92.38,-240"/>
<text xml:space="preserve" text-anchor="middle" x="54" y="-218.3" font-family="Helvetica,sans-Serif" font-size="11.00">djls&#45;python</text>
</g>
<!-- djls_project&#45;&gt;djls_python -->
<g id="edge16" class="edge">
<title>djls_project&#45;&gt;djls_python</title>
<path fill="none" stroke="#444444" d="M120.5,-297.19C120.5,-268.22 120.5,-216 120.5,-216 120.5,-216 101.58,-216 101.58,-216"/>
<polygon fill="#444444" stroke="#444444" points="101.58,-213.55 94.58,-216 101.58,-218.45 101.58,-213.55"/>
</g>
<!-- djls_workspace -->
<g id="node14" class="node">
<title>djls_workspace</title>
<polygon fill="#e4cdcd" stroke="#971a1a" stroke-width="2" points="307.5,-240 210.5,-240 210.5,-204 307.5,-204 307.5,-240"/>
<text xml:space="preserve" text-anchor="middle" x="259" y="-218.3" font-family="Helvetica,sans-Serif" font-size="11.00">djls&#45;workspace</text>
</g>
<!-- djls_project&#45;&gt;djls_workspace -->
<g id="edge17" class="edge">
<title>djls_project&#45;&gt;djls_workspace</title>
<path fill="none" stroke="#444444" d="M190.33,-310C203.74,-310 215.42,-310 215.42,-310 215.42,-310 215.42,-249.18 215.42,-249.18"/>
<polygon fill="#444444" stroke="#444444" points="217.87,-249.18 215.42,-242.18 212.97,-249.18 217.87,-249.18"/>
</g>
<!-- djls_source -->
<g id="node12" class="node">
<title>djls_source</title>
<polygon fill="#e4cdcd" stroke="#971a1a" stroke-width="2" points="91.62,-146 16.38,-146 16.38,-110 91.62,-110 91.62,-146"/>
<text xml:space="preserve" text-anchor="middle" x="54" y="-124.3" font-family="Helvetica,sans-Serif" font-size="11.00">djls&#45;source</text>
</g>
<!-- djls_python&#45;&gt;djls_source -->
<g id="edge18" class="edge">
<title>djls_python&#45;&gt;djls_source</title>
<path fill="none" stroke="#444444" d="M54,-203.43C54,-203.43 54,-155.37 54,-155.37"/>
<polygon fill="#444444" stroke="#444444" points="56.45,-155.37 54,-148.37 51.55,-155.37 56.45,-155.37"/>
</g>
<!-- djls_semantic&#45;&gt;djls_project -->
<g id="edge19" class="edge">
<title>djls_semantic&#45;&gt;djls_project</title>
<path fill="none" stroke="#444444" d="M152.5,-391.43C152.5,-391.43 152.5,-343.37 152.5,-343.37"/>
<polygon fill="#444444" stroke="#444444" points="154.95,-343.37 152.5,-336.37 150.05,-343.37 154.95,-343.37"/>
</g>
<!-- djls_templates -->
<g id="node13" class="node">
<title>djls_templates</title>
<polygon fill="#e4cdcd" stroke="#971a1a" stroke-width="2" points="341,-334 247,-334 247,-298 341,-298 341,-334"/>
<text xml:space="preserve" text-anchor="middle" x="294" y="-312.3" font-family="Helvetica,sans-Serif" font-size="11.00">djls&#45;templates</text>
</g>
<!-- djls_semantic&#45;&gt;djls_templates -->
<g id="edge20" class="edge">
<title>djls_semantic&#45;&gt;djls_templates</title>
<path fill="none" stroke="#444444" d="M205.21,-404C230.6,-404 257.25,-404 257.25,-404 257.25,-404 257.25,-343.18 257.25,-343.18"/>
<polygon fill="#444444" stroke="#444444" points="259.7,-343.18 257.25,-336.18 254.8,-343.18 259.7,-343.18"/>
</g>
<!-- djls_server&#45;&gt;djls_db -->
<g id="edge21" class="edge">
<title>djls_server&#45;&gt;djls_db</title>
<path fill="none" stroke="#444444" d="M175,-579.43C175,-579.43 175,-531.37 175,-531.37"/>
<polygon fill="#444444" stroke="#444444" points="177.45,-531.37 175,-524.37 172.55,-531.37 177.45,-531.37"/>
</g>
<!-- djls_server&#45;&gt;djls_ide -->
<g id="edge22" class="edge">
<title>djls_server&#45;&gt;djls_ide</title>
<path fill="none" stroke="#444444" d="M212.96,-579.34C212.96,-553.51 212.96,-510 212.96,-510 212.96,-510 266,-510 266,-510"/>
<polygon fill="#444444" stroke="#444444" points="266,-512.45 273,-510 266,-507.55 266,-512.45"/>
</g>
<!-- djls_source&#45;&gt;djls_camino -->
<g id="edge23" class="edge">
<title>djls_source&#45;&gt;djls_camino</title>
<path fill="none" stroke="#444444" d="M75.41,-109.01C75.41,-94.51 75.41,-77 75.41,-77 75.41,-77 256.75,-77 256.75,-77 256.75,-77 256.75,-61.5 256.75,-61.5"/>
<polygon fill="#444444" stroke="#444444" points="259.2,-61.5 256.75,-54.5 254.3,-61.5 259.2,-61.5"/>
</g>
<!-- djls_salsa -->
<g id="node17" class="node">
<title>djls_salsa</title>
<polygon fill="#d0d0d0" stroke="#606060" stroke-width="2" points="70,-52 16,-52 16,-16 70,-16 70,-52"/>
<text xml:space="preserve" text-anchor="middle" x="43" y="-30.3" font-family="Helvetica,sans-Serif" font-size="11.00">salsa</text>
</g>
<!-- djls_source&#45;&gt;djls_salsa -->
<g id="edge24" class="edge">
<title>djls_source&#45;&gt;djls_salsa</title>
<path fill="none" stroke="#444444" d="M43.19,-109.43C43.19,-109.43 43.19,-61.37 43.19,-61.37"/>
<polygon fill="#444444" stroke="#444444" points="45.64,-61.37 43.19,-54.37 40.74,-61.37 45.64,-61.37"/>
</g>
<!-- djls_source&#45;&gt;djls_serde -->
<g id="edge25" class="edge">
<title>djls_source&#45;&gt;djls_serde</title>
<path fill="none" stroke="#444444" d="M80.81,-109.01C80.81,-97.5 80.81,-85 80.81,-85 80.81,-85 372.54,-85 372.54,-85 372.54,-85 372.54,-61.5 372.54,-61.5"/>
<polygon fill="#444444" stroke="#444444" points="374.99,-61.5 372.54,-54.5 370.09,-61.5 374.99,-61.5"/>
</g>
<!-- djls_source&#45;&gt;djls_thiserror -->
<g id="edge26" class="edge">
<title>djls_source&#45;&gt;djls_thiserror</title>
<path fill="none" stroke="#444444" d="M86.22,-109.43C86.22,-82.03 86.22,-34 86.22,-34 86.22,-34 118.91,-34 118.91,-34"/>
<polygon fill="#444444" stroke="#444444" points="118.91,-36.45 125.91,-34 118.91,-31.55 118.91,-36.45"/>
</g>
<!-- djls_templates&#45;&gt;djls_conf -->
<g id="edge27" class="edge">
<title>djls_templates&#45;&gt;djls_conf</title>
<path fill="none" stroke="#444444" d="M246.01,-322C221.54,-322 196.88,-322 196.88,-322 196.88,-322 196.88,-155.47 196.88,-155.47"/>
<polygon fill="#444444" stroke="#444444" points="199.33,-155.47 196.88,-148.47 194.43,-155.47 199.33,-155.47"/>
</g>
<!-- djls_templates&#45;&gt;djls_workspace -->
<g id="edge28" class="edge">
<title>djls_templates&#45;&gt;djls_workspace</title>
<path fill="none" stroke="#444444" d="M277.25,-297.43C277.25,-297.43 277.25,-249.37 277.25,-249.37"/>
<polygon fill="#444444" stroke="#444444" points="279.7,-249.37 277.25,-242.37 274.8,-249.37 279.7,-249.37"/>
</g>
<!-- djls_workspace&#45;&gt;djls_source -->
<g id="edge30" class="edge">
<title>djls_workspace&#45;&gt;djls_source</title>
<path fill="none" stroke="#444444" d="M209.6,-228C176.62,-228 139.25,-228 139.25,-228 139.25,-228 139.25,-128 139.25,-128 139.25,-128 100.65,-128 100.65,-128"/>
<polygon fill="#444444" stroke="#444444" points="100.65,-125.55 93.65,-128 100.65,-130.45 100.65,-125.55"/>
</g>
<!-- djls_workspace&#45;&gt;djls_anyhow -->
<g id="edge29" class="edge">
<title>djls_workspace&#45;&gt;djls_anyhow</title>
<path fill="none" stroke="#444444" d="M308.23,-222C379.32,-222 502.29,-222 502.29,-222 502.29,-222 502.29,-61.23 502.29,-61.23"/>
<polygon fill="#444444" stroke="#444444" points="504.74,-61.23 502.29,-54.23 499.84,-61.23 504.74,-61.23"/>
</g>
<!-- djls_tokio -->
<g id="node20" class="node">
<title>djls_tokio</title>
<polygon fill="#d0d0d0" stroke="#606060" stroke-width="2" points="324,-146 270,-146 270,-110 324,-110 324,-146"/>
<text xml:space="preserve" text-anchor="middle" x="297" y="-124.3" font-family="Helvetica,sans-Serif" font-size="11.00">tokio</text>
</g>
<!-- djls_workspace&#45;&gt;djls_tokio -->
<g id="edge31" class="edge">
<title>djls_workspace&#45;&gt;djls_tokio</title>
<path fill="none" stroke="#444444" d="M288.75,-203.43C288.75,-203.43 288.75,-155.37 288.75,-155.37"/>
<polygon fill="#444444" stroke="#444444" points="291.2,-155.37 288.75,-148.37 286.3,-155.37 291.2,-155.37"/>
</g>
</g>
</svg>
